#N canvas 417 97 520 293 10;
#X obj 23 94 gemwin;
#X msg 23 27 destroy;
#X obj 272 67 fiddle~ 2048;
#X obj 271 28 adc~;
#X obj 272 98 mod 12;
#X obj 341 174 / 100;
#X floatatom 362 81 5 0 0 0 - - -, f 5;
#X obj 341 146 - 72;
#X obj 389 135 expr 100 - $f1;
#X obj 362 112 t f f;
#X obj 272 124 / 12;
#N canvas 95 286 474 389 PARTICULAS 0;
#X obj 198 80 gemhead;
#X obj 198 112 part_head;
#X obj 198 166 part_color;
#X obj 198 190 part_size 1;
#X obj 198 288 part_render;
#X obj 198 214 part_velocity sphere 0 0 0 2;
#X obj 198 266 part_killold 20;
#X msg 126 81 speed 0.1;
#X obj 269 82 hsv2rgb;
#X obj 198 239 part_source 20;
#X msg 269 56 \$1 1 1;
#X obj 126 46 loadbang;
#X obj 269 33 inlet COR;
#X obj 347 34 inlet TAMANHO;
#X obj 347 82 max 0;
#X obj 54 161 gemhead;
#X obj 54 188 world_light;
#X obj 198 314 sphere 0.1;
#X connect 0 0 1 0;
#X connect 1 0 2 0;
#X connect 2 0 3 0;
#X connect 3 0 5 0;
#X connect 4 0 17 0;
#X connect 5 0 9 0;
#X connect 6 0 4 0;
#X connect 7 0 1 0;
#X connect 8 0 2 1;
#X connect 8 0 2 2;
#X connect 9 0 6 0;
#X connect 10 0 8 0;
#X connect 11 0 7 0;
#X connect 12 0 10 0;
#X connect 13 0 14 0;
#X connect 14 0 3 1;
#X connect 15 0 16 0;
#X restore 269 245 pd PARTICULAS;
#X floatatom 393 179 5 0 0 0 - - -, f 5;
#X obj 369 246 hsl 128 15 0 5 0 0 empty empty empty -2 -8 0 10 -262144
-1 -1 5914 1;
#X obj 341 197 * 15;
#X obj 23 173 tgl 15 0 empty empty empty 17 7 0 10 -262144 -1 -1 1
1;
#X msg 23 195 \; pd dsp \$1;
#X floatatom 373 54 5 0 0 0 - - -, f 5;
#X msg 34 53 reset \, FSAA 8 \, lighting 1 \, create \, 1;
#X floatatom 451 193 5 0 0 0 - - -, f 5;
#X connect 1 0 0 0;
#X connect 2 0 4 0;
#X connect 2 3 7 0;
#X connect 2 3 17 0;
#X connect 3 0 2 0;
#X connect 3 1 2 0;
#X connect 4 0 10 0;
#X connect 5 0 14 0;
#X connect 6 0 9 0;
#X connect 7 0 5 0;
#X connect 8 0 5 1;
#X connect 8 0 19 0;
#X connect 9 0 7 1;
#X connect 9 1 8 0;
#X connect 10 0 11 0;
#X connect 12 0 14 1;
#X connect 14 0 11 1;
#X connect 14 0 13 0;
#X connect 15 0 16 0;
#X connect 18 0 0 0;
