#N canvas 27 79 689 675 10;
#X obj 23 84 gemwin;
#X msg 34 50 0 \, destroy;
#X obj 232 -33 gemhead;
#X obj 232 26 pix_video;
#X obj 376 322 pix_blob;
#X obj 261 161 pix_rgba;
#X obj 339 233 hsl 128 15 0 100 0 0 empty empty empty -2 -8 0 10 -262144
-1 -1 0 1;
#X obj 336 257 / 100;
#X obj 319 415 gemhead;
#X obj 232 86 pix_flip;
#X msg 302 57 horizontal;
#X obj 375 605 circle 1;
#X obj 375 573 color 1 1 0;
#X obj 368 463 * 10.66;
#X obj 368 491 - 5.33;
#X obj 432 483 * 8;
#X obj 432 509 - 4;
#X obj 432 452 expr 1 - $f1;
#X obj 29 300 pix_texture;
#X obj 29 328 rectangle 5.33 4;
#X obj 261 136 alpha;
#X obj 234 110 t a a;
#X obj 233 456 pix_texture;
#X obj 233 430 separator;
#X obj 233 480 rectangle 5.33 4;
#X obj 38 271 spigot;
#X obj 97 272 tgl 15 0 empty empty empty 17 7 0 10 -262144 -1 -1 0
1;
#X obj 261 284 pix_movement2;
#X msg 223 219 bang;
#X obj 301 184 hsl 128 15 0 100 0 0 empty empty empty -2 -8 0 10 -262144
-1 -1 0 1;
#X obj 298 204 / 100;
#X msg 287 -3 device \$1;
#X obj 287 -26 tgl 15 0 empty empty empty 17 7 0 10 -262144 -1 -1 1
1;
#X msg 398 297 0;
#X obj 539 491 * 15;
#X obj 537 431 pack 0 100;
#X obj 537 460 line;
#X obj 19 186 import cyclone;
#X obj 440 401 s y;
#X obj 432 427 r y;
#X obj 455 358 s size;
#X obj 440 379 clip 0 2;
#X obj 357 545 translateXYZ f f 1;
#X obj 302 28 loadbang;
#X obj 539 535 s blob-size;
#X msg 23 24 dimen 300 200 \, create \, 1;
#N canvas 1 82 483 643 SOM~ 1;
#X obj 89 203 osc~;
#X obj 87 107 mtof;
#X obj 286 585 dac~, f 5;
#X obj 294 542 *~;
#X obj 85 165 vline~;
#X obj 200 283 osc~;
#X obj 152 217 *~ 0.5;
#X floatatom 176 186 5 0 0 0 - - -, f 5;
#X obj 238 256 osc~;
#X floatatom 240 194 5 0 0 0 - - -, f 5;
#X obj 216 225 *~ 0.25;
#X obj 86 136 pack 0 50;
#X obj 324 419 min~ 1;
#X obj 315 447 lop~ 3;
#X obj 86 32 r y;
#X obj 322 359 r size;
#X obj 331 395 * 10;
#X obj 86 57 * 12;
#X obj 86 81 + 60;
#X floatatom 402 351 5 0 0 0 - - -, f 5;
#X connect 0 0 3 0;
#X connect 1 0 11 0;
#X connect 3 0 2 0;
#X connect 3 0 2 1;
#X connect 4 0 0 0;
#X connect 4 0 6 0;
#X connect 4 0 10 0;
#X connect 5 0 3 0;
#X connect 6 0 5 0;
#X connect 7 0 6 1;
#X connect 8 0 3 0;
#X connect 9 0 10 1;
#X connect 10 0 8 0;
#X connect 11 0 4 0;
#X connect 12 0 13 0;
#X connect 13 0 3 1;
#X connect 14 0 17 0;
#X connect 15 0 16 0;
#X connect 16 0 12 0;
#X connect 17 0 18 0;
#X connect 18 0 1 0;
#X connect 19 0 16 1;
#X restore 28 130 pd SOM~;
#X obj 537 407 r size;
#X obj 398 275 loadbang;
#X obj 25 -20 tgl 15 0 empty empty empty 17 7 0 10 -262144 -1 -1 1
1;
#X msg 48 -21 \; pd dsp \$1;
#X msg 60 110 dimen 600 400 \, create \, 1;
#X floatatom 605 477 5 0 0 0 - - -, f 5;
#X connect 1 0 0 0;
#X connect 2 0 3 0;
#X connect 3 0 9 0;
#X connect 4 0 23 0;
#X connect 4 1 13 0;
#X connect 4 2 41 0;
#X connect 4 3 40 0;
#X connect 5 0 27 0;
#X connect 6 0 7 0;
#X connect 7 0 27 2;
#X connect 8 0 42 0;
#X connect 9 0 21 0;
#X connect 10 0 9 0;
#X connect 12 0 11 0;
#X connect 13 0 14 0;
#X connect 14 0 42 1;
#X connect 15 0 16 0;
#X connect 16 0 42 2;
#X connect 17 0 15 0;
#X connect 18 0 19 0;
#X connect 20 0 5 0;
#X connect 21 0 25 0;
#X connect 21 1 20 0;
#X connect 22 0 24 0;
#X connect 23 0 22 0;
#X connect 25 0 18 0;
#X connect 26 0 25 1;
#X connect 27 0 4 0;
#X connect 28 0 27 0;
#X connect 29 0 30 0;
#X connect 30 0 27 1;
#X connect 31 0 3 0;
#X connect 32 0 31 0;
#X connect 33 0 4 1;
#X connect 34 0 11 1;
#X connect 34 0 44 0;
#X connect 35 0 36 0;
#X connect 36 0 34 0;
#X connect 39 0 17 0;
#X connect 41 0 38 0;
#X connect 42 0 12 0;
#X connect 43 0 10 0;
#X connect 45 0 0 0;
#X connect 47 0 35 0;
#X connect 48 0 33 0;
#X connect 49 0 50 0;
#X connect 51 0 0 0;
