#N canvas 457 221 482 219 10;
#N canvas 20 92 881 592 colorsignal 0;
#N canvas 0 22 450 300 gemwin 0;
#X obj 132 136 gemwin;
#X obj 67 89 outlet;
#X obj 67 10 inlet;
#X msg 67 70 set destroy;
#X msg 132 112 create \, 1;
#X msg 198 112 destroy;
#X msg 156 71 set create;
#X obj 67 41 route create;
#X connect 2 0 7 0;
#X connect 3 0 1 0;
#X connect 4 0 0 0;
#X connect 5 0 0 0;
#X connect 6 0 1 0;
#X connect 7 0 3 0;
#X connect 7 0 4 0;
#X connect 7 1 6 0;
#X connect 7 1 5 0;
#X restore 599 379 pd gemwin;
#X msg 599 360 create;
#X obj 450 75 gemhead;
#X obj 451 360 pix_texture;
#X obj 463 93 bng 25 250 50 0 empty open empty 0 -6 0 8 -261911 -260097
-1;
#X obj 476 287 unpack 0 0 0;
#X floatatom 466 310 5 0 0 3 length - -;
#X floatatom 515 310 5 0 0 3 width - -;
#X floatatom 565 310 5 0 0 3 height - -;
#X obj 520 268 bng 15 250 50 0 empty empty end_reached 20 7 0 10 -262144
-1 -1;
#X floatatom 502 233 5 0 10000 1 frame# - -;
#X obj 463 122 openpanel;
#X msg 463 142 open \$1;
#X obj 451 382 rectangle 4 3;
#X obj 451 251 pix_film;
#X msg 469 185 auto \$1;
#X obj 469 167 tgl 15 0 empty empty empty 0 -6 0 8 -262144 -1 -1 1
1;
#X msg 480 209 colorspace Grey;
#X obj 142 374 pix_data;
#X msg 249 10 1;
#X msg 301 24 0;
#X obj 147 414 unpack 0 0 0;
#X floatatom 313 461 5 0 0 0 red - -;
#X floatatom 164 448 5 0 0 0 blue - -;
#X floatatom 88 442 5 0 0 0 green - -;
#X obj 134 170 t b b b b;
#X obj 238 221 randF 1;
#X obj 313 221 randF 1;
#X floatatom 296 351 5 0 0 0 - - -;
#N canvas 22 82 858 462 gray 0;
#X obj 245 297 lop~;
#X obj 244 358 tabsend~ state;
#X obj 244 332 blocknorm~ 1;
#X obj 244 268 hip~;
#X obj 283 246 hsl 128 15 100 10000 1 1 empty empty empty -2 -6 0 8
-262144 -1 -1 11200 1;
#X obj 239 111 tabreceive~ state;
#X obj 287 170 fblock 64;
#X obj 501 336 pdynwav~;
#X floatatom 555 313 5 0 0 0 - - -;
#X obj 162 92 ead~ 0 20;
#X obj 179 116 noise~;
#X obj 163 139 *~;
#X obj 162 69 bng 15 250 50 0 empty empty empty 0 -6 0 8 -262144 -1
-1;
#X msg 386 82 1;
#X floatatom 386 105 5 0 0 0 - - -;
#X floatatom 287 150 5 0 0 0 - - -;
#X obj 615 229 table state 64;
#X obj 243 218 dynwav~;
#X obj 287 193 phasor~;
#X obj 459 129 bang~;
#X msg 417 81 2;
#X obj 459 153 f;
#X floatatom 507 148 5 0 0 0 - - -;
#X msg 506 127 0;
#X msg 536 127 0.03;
#X msg 574 127 0.17;
#X obj 459 189 spigot;
#X obj 497 171 tgl 15 0 empty empty empty 0 -6 0 8 -262144 -1 -1 0
1;
#X text 552 149 phase offset;
#X text 331 149 mod freq;
#X text 515 170 phase sync;
#X obj 283 274 hsl 128 15 100 10000 1 1 empty empty empty -2 -6 0 8
-262144 -1 -1 9380 1;
#X text 431 105 relative formant shift;
#X msg 656 315 89;
#X msg 344 72 135;
#X obj 499 406 outlet~;
#X obj 169 21 inlet;
#X obj 548 17 bng 15 250 50 0 empty empty empty 0 -6 0 10 -258111 -1
-1;
#X msg 483 67 0;
#X obj 329 13 inlet;
#X floatatom 441 291 5 0 0 0 - - -;
#X msg 463 231 5804;
#X msg 486 267 3000;
#X obj 395 39 bng 15 250 50 0 empty empty empty 0 -6 0 10 -262144 -1
-1;
#X connect 0 0 2 0;
#X connect 0 0 7 0;
#X connect 2 0 1 0;
#X connect 3 0 0 0;
#X connect 4 0 3 1;
#X connect 5 0 17 0;
#X connect 6 0 18 0;
#X connect 7 0 35 0;
#X connect 8 0 7 1;
#X connect 9 0 11 0;
#X connect 10 0 11 1;
#X connect 11 0 3 0;
#X connect 12 0 9 0;
#X connect 12 0 37 0;
#X connect 13 0 14 0;
#X connect 14 0 6 1;
#X connect 15 0 6 0;
#X connect 17 0 3 0;
#X connect 18 0 17 1;
#X connect 19 0 21 0;
#X connect 20 0 14 0;
#X connect 21 0 26 0;
#X connect 22 0 21 1;
#X connect 23 0 22 0;
#X connect 24 0 22 0;
#X connect 25 0 22 0;
#X connect 26 0 18 1;
#X connect 27 0 26 1;
#X connect 31 0 0 1;
#X connect 31 0 40 0;
#X connect 33 0 7 1;
#X connect 34 0 6 0;
#X connect 36 0 12 0;
#X connect 37 0 34 0;
#X connect 37 0 13 0;
#X connect 37 0 33 0;
#X connect 37 0 41 0;
#X connect 37 0 42 0;
#X connect 38 0 14 0;
#X connect 38 0 7 1;
#X connect 38 0 23 0;
#X connect 38 0 6 0;
#X connect 38 0 3 1;
#X connect 38 0 0 1;
#X connect 39 0 43 0;
#X connect 41 0 4 0;
#X connect 42 0 31 0;
#X connect 43 0 38 0;
#X restore 416 596 pd gray;
#X obj 55 468 sig~;
#X obj 253 493 sig~;
#X obj 336 643 hsl 90 25 0 90 0 0 empty volume empty -2 -6 0 10 -228856
-4032 -1 0 1;
#X obj 40 529 osc~;
#X obj 156 694 dac~;
#X obj 150 660 vol~;
#X obj 167 504 sig~;
#X obj 172 529 osc~;
#X obj 251 61 metro 9;
#X floatatom 408 508 5 0 0 0 - - -;
#X obj 416 566 bng 15 250 50 0 empty empty empty 0 -6 0 10 -4034 -1
-1;
#X obj 412 538 moses 100;
#X obj 457 570 bng 15 250 50 0 empty empty empty 0 -6 0 10 -258113
-1 -1;
#X obj 163 478 ftom;
#X obj 253 475 mtof;
#X obj 46 499 mtof~;
#X msg 374 15 132;
#X floatatom 112 534 5 0 0 0 bang - -;
#X floatatom 360 57 5 0 0 0 - - -;
#N canvas 94 54 934 646 deep 0;
#X obj 158 205 inlet~;
#X obj 342 667 vols~;
#X msg 238 284 lines 501 752 5003 7504 105 206 307 408;
#X obj 218 587 fdn~ 64 40000;
#X msg 253 558 30;
#X msg 306 553 20;
#X obj 104 719 vols~;
#X obj 101 618 inlet~;
#X obj 259 730 outlet~;
#X obj 385 721 bng 20 250 50 0 empty empty empty 0 -6 0 10 -203904
-1 -1;
#X msg 233 658 90;
#X obj 462 708 moses 2;
#X msg 604 429 bang;
#X obj 604 481 metro 500;
#X msg 513 487 stop;
#X obj 604 507 float;
#X obj 604 455 trigger bang bang;
#X obj 513 461 select -5;
#X floatatom 603 571 5 0 0 0 - - -;
#X obj 604 533 - 1;
#X obj 417 177 inlet;
#X floatatom 809 450 5 0 0 0 - - -;
#X obj 768 393 loadbang;
#X msg 718 487 80;
#X msg 806 479 124;
#X obj 286 523 loadbang;
#X msg 280 353 linear 32 100 105;
#X msg 284 395 linear 32 1000 1005;
#X msg 322 468 exponential 32 10 5000;
#X msg 304 430 linear 32 100 2015;
#X msg 256 316 linear 8 75 100;
#X connect 0 0 3 0;
#X connect 1 0 8 0;
#X connect 2 0 3 0;
#X connect 3 0 1 0;
#X connect 3 1 1 1;
#X connect 4 0 3 1;
#X connect 5 0 3 2;
#X connect 6 0 8 0;
#X connect 7 0 6 0;
#X connect 7 0 6 1;
#X connect 7 0 8 0;
#X connect 9 0 10 0;
#X connect 10 0 6 2;
#X connect 11 0 9 0;
#X connect 12 0 16 0;
#X connect 13 0 15 0;
#X connect 14 0 13 0;
#X connect 15 0 19 0;
#X connect 16 0 13 0;
#X connect 16 1 23 0;
#X connect 17 0 14 0;
#X connect 18 0 1 2;
#X connect 18 0 11 0;
#X connect 19 0 15 1;
#X connect 19 0 17 0;
#X connect 19 0 18 0;
#X connect 20 0 12 0;
#X connect 21 0 13 1;
#X connect 22 0 24 0;
#X connect 23 0 15 1;
#X connect 24 0 13 1;
#X connect 25 0 4 0;
#X connect 25 0 5 0;
#X connect 26 0 3 0;
#X connect 27 0 3 0;
#X connect 28 0 3 0;
#X connect 29 0 3 0;
#X connect 30 0 3 0;
#X restore 54 621 pd deep green;
#X obj 236 520 cos~;
#N canvas 17 39 1007 721 deep 0;
#X obj 165 72 inlet~;
#X obj 189 375 outlet~;
#X text 211 73 input signal;
#X obj 416 -103 vsl 15 250 -1 1 0 1 empty empty empty 20 8 0 8 -262144
-1 -1 0 1;
#X msg 416 197 rc 0 \$1;
#X obj 447 -104 vsl 15 250 -1 1 0 1 empty empty empty 20 8 0 8 -262144
-33289 -1 14539 1;
#X obj 478 -103 vsl 15 250 -1 1 0 1 empty empty empty 20 8 0 8 -262144
-1 -1 15068 1;
#X obj 508 -103 vsl 15 250 -1 1 0 1 empty empty empty 20 8 0 8 -262144
-1 -1 24638 1;
#X obj 538 -103 vsl 15 250 -1 1 0 1 empty empty empty 20 8 0 8 -262144
-1 -1 14285 1;
#X obj 569 -104 vsl 15 250 -1 1 0 1 empty empty empty 20 8 0 8 -262144
-1 -1 14115 1;
#X obj 600 -104 vsl 15 250 -1 1 0 1 empty empty empty 20 8 0 8 -262144
-1 -1 14052 1;
#X obj 630 -103 vsl 15 250 -1 1 0 1 empty empty empty 20 8 0 8 -262144
-1 -1 23707 1;
#X msg 445 173 rc 1 \$1;
#X msg 477 198 rc 2 \$1;
#X msg 506 174 rc 3 \$1;
#X msg 538 197 rc 4 \$1;
#X msg 567 173 rc 5 \$1;
#X msg 599 198 rc 6 \$1;
#X floatatom 513 -151 5 -1 1 0 - - -;
#X obj 423 276 lattice~ 8;
#X obj 422 337 vol~;
#X floatatom 444 307 5 0 0 0 - - -;
#X obj 386 304 dist~ 1;
#X obj 536 -216 bng 15 250 50 0 empty empty empty 0 -6 0 10 -262144
-1 -1;
#X obj 299 -137 randF 1;
#X obj 369 -147 randF 1;
#X obj 427 -155 randF 1;
#X obj 559 -163 randF 1;
#X obj 612 -179 randF 1;
#X obj 668 -187 randF 1;
#X obj 678 -164 randF 1;
#X obj 689 -133 randF 1;
#X msg 309 -3 -1;
#X obj 286 -61 loadbang;
#X obj 213 -205 inlet;
#X msg 812 15 bang;
#X obj 812 67 metro 500;
#X msg 721 73 stop;
#X obj 812 93 float;
#X obj 812 41 trigger bang bang;
#X obj 721 47 select -5;
#X floatatom 811 157 5 0 0 0 - - -;
#X obj 812 119 - 1;
#X floatatom 1014 47 5 0 0 0 - - -;
#X obj 264 605 tabsend~ red;
#X obj 264 605 tabsend~ red;
#X obj 482 433 tabsend~ red;
#X msg 926 73 95;
#X connect 0 0 19 0;
#X connect 3 0 4 0;
#X connect 4 0 19 0;
#X connect 5 0 12 0;
#X connect 6 0 13 0;
#X connect 7 0 14 0;
#X connect 8 0 15 0;
#X connect 9 0 16 0;
#X connect 10 0 17 0;
#X connect 12 0 19 0;
#X connect 13 0 19 0;
#X connect 14 0 19 0;
#X connect 15 0 19 0;
#X connect 16 0 19 0;
#X connect 17 0 19 0;
#X connect 18 0 3 0;
#X connect 18 0 5 0;
#X connect 18 0 6 0;
#X connect 18 0 7 0;
#X connect 18 0 8 0;
#X connect 18 0 9 0;
#X connect 18 0 10 0;
#X connect 18 0 11 0;
#X connect 19 0 22 0;
#X connect 20 0 1 0;
#X connect 20 0 46 0;
#X connect 21 0 20 1;
#X connect 22 0 20 0;
#X connect 23 0 24 0;
#X connect 23 0 25 0;
#X connect 23 0 27 0;
#X connect 23 0 28 0;
#X connect 23 0 26 0;
#X connect 23 0 29 0;
#X connect 23 0 30 0;
#X connect 23 0 31 0;
#X connect 23 0 35 0;
#X connect 25 0 5 0;
#X connect 26 0 6 0;
#X connect 27 0 7 0;
#X connect 28 0 8 0;
#X connect 29 0 9 0;
#X connect 30 0 10 0;
#X connect 31 0 11 0;
#X connect 32 0 3 0;
#X connect 33 0 32 0;
#X connect 34 0 23 0;
#X connect 35 0 39 0;
#X connect 36 0 38 0;
#X connect 37 0 36 0;
#X connect 38 0 42 0;
#X connect 39 0 36 0;
#X connect 39 1 47 0;
#X connect 40 0 37 0;
#X connect 41 0 20 1;
#X connect 42 0 38 1;
#X connect 42 0 40 0;
#X connect 42 0 41 0;
#X connect 43 0 36 1;
#X connect 47 0 38 1;
#X restore 307 565 pd deep red;
#X obj 343 527 bng 15 250 50 0 empty empty empty 0 -6 0 10 -258113
-1 -1;
#X obj 309 525 bng 15 250 50 0 empty empty empty 0 -6 0 10 -204786
-4034 -1;
#X obj 303 492 moses 170;
#X obj 96 561 moses 140;
#X obj 142 591 bng 15 250 50 0 empty empty empty 0 -6 0 10 -258113
-1 -1;
#X obj 108 589 bng 15 250 50 0 empty empty empty 0 -6 0 10 -204786
-4034 -1;
#X obj 637 252 bng 15 250 50 0 empty create_destroy empty 0 -6 0 10
-262144 -1 -1;
#X obj 382 -15 loadbang;
#X obj 553 -1 hsl 90 25 0 200 0 0 empty speed empty -2 -6 0 10 -228856
-4032 -1 0 1;
#X obj 614 137 loadbang;
#X obj -53 487 tabsend~ green;
#X obj 207 575 tabsend~ blue;
#X obj 68 684 outlet~;
#N canvas 485 260 543 496 record 0;
#X obj 119 79 inlet~;
#X obj 265 79 inlet;
#X msg 235 243 start;
#X msg 465 210 stop;
#X obj 230 305 writesf~;
#X obj 264 153 sel 1;
#X obj 264 177 savepanel;
#X msg 315 242 open \$1;
#X obj 264 199 t b s;
#X connect 0 0 4 0;
#X connect 1 0 5 0;
#X connect 2 0 4 0;
#X connect 3 0 4 0;
#X connect 5 0 6 0;
#X connect 5 1 3 0;
#X connect 6 0 8 0;
#X connect 7 0 4 0;
#X connect 8 0 2 0;
#X connect 8 1 7 0;
#X restore 461 682 pd record;
#X obj 568 651 tgl 15 0 empty record empty 0 -6 0 10 -262144 -1 -1
0 1;
#X text 220 -14 comment;
#X obj 682 533 delay;
#X obj 570 568 osc~;
#X obj 580 520 sig~;
#X msg 679 596 0;
#X msg 589 475 200;
#X obj 603 439 bng 15 250 50 0 empty mark_in empty 0 -6 0 10 -262144
-1 -1;
#X connect 0 0 1 0;
#X connect 1 0 0 0;
#X connect 2 0 14 0;
#X connect 3 0 13 0;
#X connect 4 0 11 0;
#X connect 5 0 6 0;
#X connect 5 1 7 0;
#X connect 5 2 8 0;
#X connect 10 0 14 1;
#X connect 11 0 12 0;
#X connect 12 0 14 0;
#X connect 13 0 18 1;
#X connect 14 0 3 0;
#X connect 14 1 5 0;
#X connect 14 2 9 0;
#X connect 15 0 14 0;
#X connect 16 0 15 0;
#X connect 17 0 14 0;
#X connect 18 1 21 0;
#X connect 18 2 28 0;
#X connect 19 0 38 0;
#X connect 20 0 38 0;
#X connect 21 0 24 0;
#X connect 21 1 23 0;
#X connect 21 2 22 0;
#X connect 22 0 44 0;
#X connect 22 0 54 0;
#X connect 23 0 43 0;
#X connect 24 0 47 0;
#X connect 24 0 30 0;
#X connect 25 0 2 0;
#X connect 25 1 18 0;
#X connect 25 2 26 0;
#X connect 25 3 27 0;
#X connect 26 0 18 2;
#X connect 27 0 18 3;
#X connect 28 0 39 0;
#X connect 29 0 35 0;
#X connect 30 0 45 0;
#X connect 31 0 50 0;
#X connect 32 0 35 1;
#X connect 33 0 49 1;
#X connect 33 0 49 0;
#X connect 33 0 62 0;
#X connect 35 0 34 0;
#X connect 35 0 34 1;
#X connect 35 0 64 0;
#X connect 35 0 65 0;
#X connect 36 0 37 0;
#X connect 37 0 35 0;
#X connect 37 0 63 0;
#X connect 38 0 25 0;
#X connect 39 0 41 0;
#X connect 40 0 29 0;
#X connect 41 0 40 0;
#X connect 41 1 42 0;
#X connect 42 0 29 1;
#X connect 43 0 36 0;
#X connect 44 0 31 0;
#X connect 45 0 33 0;
#X connect 46 0 38 1;
#X connect 47 0 55 0;
#X connect 48 0 38 1;
#X connect 49 0 35 0;
#X connect 50 0 51 0;
#X connect 50 0 35 0;
#X connect 51 0 35 0;
#X connect 52 0 51 1;
#X connect 54 0 53 0;
#X connect 54 1 52 0;
#X connect 55 0 57 0;
#X connect 55 1 56 0;
#X connect 56 0 49 2;
#X connect 58 0 1 0;
#X connect 59 0 46 0;
#X connect 59 0 19 0;
#X connect 60 0 38 1;
#X connect 61 0 16 0;
#X connect 66 0 65 1;
#X connect 68 0 71 0;
#X connect 69 0 35 0;
#X connect 70 0 69 0;
#X connect 71 0 70 0;
#X connect 72 0 70 0;
#X connect 72 0 68 0;
#X connect 73 0 72 0;
#X restore 4 266 pd colorsignal;
#X obj 6 -2 cnv 15 235 100 empty empty empty 20 12 0 10 -228856 -4160
0;
#X obj 17 24 bng 20 250 50 0 open empty open_mov 0 -6 0 10 -262144
-128992 -1;
#X obj 17 67 bng 20 250 50 0 create_destroy empty create/destroy 0
-6 0 10 -262144 -128992 -1;
#N canvas 0 22 450 300 graph10 0;
#X array red 50 float 3;
#A 0 0 0 0 0 0 0 0 0 0 0 0 0 0 0 0 0 0 0 0 0 0 0 0 0 0 0 0 0 0 0 0
0 0 0 0 0 0 0 0 0 0 0 0 0 0 0 0 0 0 0;
#X coords 0 1 50 -1 150 80 1;
#X restore 323 122 graph;
#N canvas 0 22 450 300 graph10 0;
#X array blue 50 float 5;
#A 0 1 1 1 1 1 1 1 1 1 1 1 1 1 1 1 1 1 1 1 1 1 1 1 1 1 1 1 1 1 1 1
1 1 1 1 1 1 1 1 1 1 1 1 1 1 1 1 1 1 1;
#X coords 0 1 49 -1 150 80 1;
#X restore 169 122 graph;
#N canvas 0 22 450 300 graph10 0;
#X array green 50 float 3;
#A 0 0.782455 0.783177 0.783899 0.784621 0.785344 0.786066 0.786788
0.787511 0.788233 0.788946 0.789657 0.790368 0.791079 0.79179 0.792501
0.793212 0.793923 0.794634 0.795345 0.796052 0.796752 0.797451 0.798151
0.798851 0.79955 0.80025 0.80095 0.801649 0.802349 0.803048 0.803739
0.804427 0.805116 0.805804 0.806492 0.80718 0.807868 0.808556 0.809244
0.809932 0.810618 0.811294 0.811971 0.812648 0.813324 0.814001 0.814677
0.815354 0.81603 0.816707;
#X coords 0 1 50 -1 150 80 1;
#X restore 16 122 graph;
#X obj 206 33 tgl 25 0 record empty record 0 -6 0 8 -162280 -13330
-1 0 1;
#X obj 106 27 knob 32 32 0 95 0 0 volume empty volume 0 -8 32 8 -262144
-1 -1 0 1;
#X floatatom 106 65 5 0 0 0 - - -;
#X obj 154 27 knob 32 32 0 127 0 0 speed empty speed 0 -8 32 8 -262144
-1 -1 0 1;
#X floatatom 154 65 5 0 0 0 - - -;
#X connect 8 0 9 0;
#X connect 10 0 11 0;
