#N canvas 1 79 621 502 10;
#X text 81 -100 GEM object;
#X obj 78 -51 cnv 15 250 450 empty empty empty 20 12 0 14 -228992 -66577
0;
#X text 82 -68 Example:;
#X obj 80 -45 gemhead;
#X obj 80 302 pix_texture;
#X text 134 -51 open a supported;
#X text 135 -40 movie-clip;
#X obj 143 173 bng 15 250 50 0 empty empty end_reached 20 7 0 10 -262144
-1 -1;
#X floatatom 133 155 5 0 10000 1 frameNum - -, f 5;
#X obj 80 324 rectangle 4 3;
#X msg 109 85 colorspace Grey;
#X obj 80 173 pix_film;
#X msg 118 129 bang;
#X obj 257 65 f;
#X obj 257 87 + 1;
#X obj 463 -50 tgl 15 0 empty empty empty 17 7 0 10 -262144 -1 -1 0
1;
#X floatatom 301 9 5 0 0 0 - - -, f 5;
#X obj 280 -75 / 15;
#X floatatom 280 -49 5 0 0 0 - - -, f 5;
#X msg 269 -99 1000;
#X obj 389 202 spigot;
#X obj 383 109 sel 1893;
#X msg 439 169 0;
#X obj 457 -25 t f f b;
#X msg 487 10 -1;
#X obj 257 43 metro 66.66;
#X msg 92 28 open \$1;
#X obj 401 322 gemwin;
#X msg 382 269 create \, 1;
#X msg 420 293 0 \, destroy;
#X connect 3 0 11 0;
#X connect 4 0 9 0;
#X connect 8 0 11 1;
#X connect 10 0 11 0;
#X connect 11 0 4 0;
#X connect 11 2 7 0;
#X connect 12 0 11 0;
#X connect 13 0 14 0;
#X connect 14 0 13 1;
#X connect 14 0 21 0;
#X connect 14 0 20 0;
#X connect 15 0 23 0;
#X connect 16 0 25 1;
#X connect 17 0 18 0;
#X connect 18 0 25 1;
#X connect 19 0 17 0;
#X connect 20 0 11 1;
#X connect 21 0 22 0;
#X connect 22 0 20 1;
#X connect 23 0 25 0;
#X connect 23 1 20 1;
#X connect 23 2 24 0;
#X connect 24 0 13 0;
#X connect 25 0 13 0;
#X connect 26 0 11 0;
#X connect 28 0 27 0;
#X connect 29 0 27 0;
