#N canvas 592 114 696 463 10;
#X obj 85 118 gemwin;
#X msg 51 45 create;
#X msg 76 69 destroy;
#X obj 44 85 tgl 15 0 empty empty empty 17 7 0 10 -262144 -1 -1 1 1
;
#X obj 141 22 bng 15 250 50 0 empty empty empty 17 7 0 10 -262144 -1
-1;
#X obj 138 52 t b b;
#X msg 136 88 buffer 1;
#X msg 232 92 reset;
#X obj 440 82 gemhead;
#X obj 442 114 pix_video;
#X obj 431 169 pix_data;
#X obj 352 89 gemhead;
#X obj 349 205 color;
#X obj 549 85 random 1000;
#X obj 549 111 / 1000;
#X obj 624 84 random 1000;
#X obj 628 110 / 1000;
#X obj 527 138 t f f;
#X obj 627 142 t f f;
#X obj 541 189 * 8;
#X obj 542 216 - 4;
#X obj 351 271 translateXYZ;
#X obj 371 6 tgl 15 0 empty empty empty 17 7 0 10 -262144 -1 -1 1 1
;
#X obj 352 412 text2d;
#X msg 384 345 text M;
#X msg 335 316 font PUSSSA__.TTF;
#X obj 370 26 metro 1;
#X text 482 17 user chooses a letter to paint;
#X msg 426 370 text S;
#X msg 480 370 text L;
#X msg 537 369 text A;
#X msg 597 369 text M;
#X msg 84 395 text $s1;
#X msg 73 369 A;
#X msg 302 317 30;
#X obj 524 280 f;
#X obj 555 279 + 1;
#X obj 524 304 mod 4;
#X floatatom 565 304 5 0 0 0 - - -, f 5;
#X obj 520 337 sel 0 1 2 3;
#X obj 369 50 t b b b b b b;
#X text 21 173 single buffer mode does not clear the buffer \; so what
is on the gem stays.;
#X obj 623 178 * 8;
#X obj 624 205 - 4;
#X obj 293 295 loadbang;
#X text 402 413 size gives the resolution of the image;
#X floatatom 280 364 5 0 0 0 - - -, f 5;
#X connect 1 0 0 0;
#X connect 2 0 0 0;
#X connect 3 0 0 0;
#X connect 4 0 5 0;
#X connect 5 0 6 0;
#X connect 5 1 7 0;
#X connect 6 0 0 0;
#X connect 7 0 0 0;
#X connect 8 0 9 0;
#X connect 9 0 10 1;
#X connect 10 1 12 1;
#X connect 11 0 12 0;
#X connect 12 0 21 0;
#X connect 13 0 14 0;
#X connect 14 0 17 0;
#X connect 15 0 16 0;
#X connect 16 0 18 0;
#X connect 17 0 10 2;
#X connect 17 1 19 0;
#X connect 18 0 10 3;
#X connect 18 1 42 0;
#X connect 19 0 20 0;
#X connect 20 0 21 1;
#X connect 21 0 23 0;
#X connect 22 0 26 0;
#X connect 24 0 23 0;
#X connect 25 0 23 0;
#X connect 26 0 40 0;
#X connect 28 0 23 0;
#X connect 29 0 23 0;
#X connect 30 0 23 0;
#X connect 31 0 23 0;
#X connect 32 0 23 0;
#X connect 33 0 32 0;
#X connect 34 0 23 1;
#X connect 35 0 36 0;
#X connect 35 0 37 0;
#X connect 36 0 35 1;
#X connect 37 0 39 0;
#X connect 38 0 37 1;
#X connect 39 0 28 0;
#X connect 39 1 29 0;
#X connect 39 2 30 0;
#X connect 39 3 31 0;
#X connect 40 0 11 0;
#X connect 40 1 10 0;
#X connect 40 2 8 0;
#X connect 40 3 13 0;
#X connect 40 4 15 0;
#X connect 40 5 35 0;
#X connect 42 0 43 0;
#X connect 43 0 21 2;
#X connect 44 0 25 0;
#X connect 44 0 34 0;
#X connect 46 0 23 1;
