#N canvas 1 79 589 434 10;
#X obj 19 20 tgl 15 0 empty empty empty 17 7 0 10 -262144 -1 -1 0 1
;
#X msg 18 41 \; pd dsp \$1;
#X obj 25 166 vu 15 120 empty empty -1 -8 0 10 -66577 -1 1 0;
#X obj 32 116 env~;
#X obj 24 139 - 100;
#X floatatom 98 129 5 0 0 0 - - -, f 5;
#X obj 102 55 adc~;
#X obj 131 104 fiddle~ 1024 1 20 3;
#X obj 160 207 mod 12;
#X floatatom 115 249 5 0 0 0 - - -, f 5;
#X obj 193 338 hsv2rgb;
#X obj 158 247 / 12;
#X obj 197 309 pack f f 1;
#X obj 237 165 unpack;
#X obj 237 125 route 1 2 3 4;
#X obj 290 166 unpack;
#X obj 341 166 unpack;
#X obj 262 214 -;
#X obj 313 213 .;
#X obj 263 244 abs;
#X obj 308 247 abs;
#X obj 236 277 expr ($f1+$f2)*10;
#X obj 444 158 gemhead;
#X obj 436 121 gemwin;
#X msg 431 76 create \, 1;
#X obj 444 213 translateXYZ;
#X obj 450 313 circle 2;
#X obj 190 364 s cor;
#X obj 492 250 r cor;
#X obj 444 271 color;
#X msg 444 99 0 \, destroy;
#X connect 0 0 1 0;
#X connect 3 0 4 0;
#X connect 4 0 2 0;
#X connect 6 0 3 0;
#X connect 6 0 7 0;
#X connect 6 1 7 0;
#X connect 7 0 5 0;
#X connect 7 0 8 0;
#X connect 7 4 14 0;
#X connect 8 0 9 0;
#X connect 8 0 11 0;
#X connect 10 0 27 0;
#X connect 11 0 12 0;
#X connect 12 0 10 0;
#X connect 13 1 17 0;
#X connect 13 1 18 0;
#X connect 14 0 13 0;
#X connect 14 1 15 0;
#X connect 14 2 16 0;
#X connect 15 1 17 1;
#X connect 16 1 18 1;
#X connect 17 0 19 0;
#X connect 18 0 20 0;
#X connect 19 0 21 0;
#X connect 20 0 21 1;
#X connect 21 0 12 1;
#X connect 22 0 25 0;
#X connect 24 0 23 0;
#X connect 25 0 29 0;
#X connect 28 0 29 1;
#X connect 29 0 26 0;
#X connect 30 0 23 0;
