#N canvas 737 251 523 464 10;
#X obj 131 104 fiddle~ 1024 1 20 3;
#X obj 341 167 unpack;
#X obj 341 127 route 1 2 3 4;
#X obj 394 168 unpack;
#X obj 445 168 unpack;
#X obj 366 216 -;
#X obj 417 215 .;
#X obj 367 246 abs;
#X obj 412 249 abs;
#X obj 295 6 inlet;
#X obj 188 187 / 100;
#X obj 279 200 vsl 15 128 0 1 0 0 empty empty empty 0 -9 0 10 -262144
-1 -1 3344 1;
#X obj 121 238 mod 24;
#X obj 119 278 / 24;
#X obj 187 257 line 0 20;
#X obj 187 224 pack \$1 100;
#X obj 189 138 - 20;
#X obj 187 160 * 1.6;
#X obj 288 69 switch~;
#X obj 287 41 tgl 15 0 empty empty empty 17 7 0 10 -262144 -1 -1 1
1;
#X floatatom 360 310 5 0 0 0 - - -, f 5;
#X obj 357 278 expr ($f1+$f2)*50;
#X obj 67 23 r~ audioIn-L;
#X obj 149 22 r~ audioIn-R;
#X floatatom 281 137 5 0 0 0 - - -, f 5;
#X floatatom 98 329 5 0 0 0 - - -, f 5;
#X obj 142 386 s audio-corH;
#X obj 226 384 s audio-corS;
#X obj 312 385 s audio-corV;
#X obj 332 356 line 0 20;
#X obj 333 331 pack \$1 100;
#X connect 0 0 12 0;
#X connect 0 3 16 0;
#X connect 0 4 2 0;
#X connect 1 1 5 0;
#X connect 1 1 6 0;
#X connect 2 0 1 0;
#X connect 2 1 3 0;
#X connect 2 2 4 0;
#X connect 3 1 5 1;
#X connect 4 1 6 1;
#X connect 5 0 7 0;
#X connect 6 0 8 0;
#X connect 7 0 21 0;
#X connect 8 0 21 1;
#X connect 9 0 19 0;
#X connect 10 0 11 0;
#X connect 10 0 15 0;
#X connect 12 0 13 0;
#X connect 13 0 25 0;
#X connect 13 0 26 0;
#X connect 14 0 28 0;
#X connect 15 0 14 0;
#X connect 16 0 17 0;
#X connect 17 0 10 0;
#X connect 19 0 18 0;
#X connect 20 0 30 0;
#X connect 21 0 20 0;
#X connect 22 0 0 0;
#X connect 23 0 0 0;
#X connect 24 0 17 1;
#X connect 29 0 27 0;
#X connect 30 0 29 0;
