#N canvas 532 196 665 477 10;
#X obj 54 48 gemhead;
#X obj 54 103 translateXYZ;
#X obj 54 161 color;
#X obj 31 -10 loadbang;
#X msg 37 18 0;
#X obj 86 132 r Life-Cor;
#X obj 128 5 inlet;
#X obj 30 259 text2d;
#X msg 266 139 text LIFE;
#X obj 202 84 loadbang;
#X msg 168 149 400;
#X obj 29 291 translateXYZ 0 0 -0.01;
#X obj 57 71 alpha;
#X obj 221 111 t b b;
#X obj 225 252 unpack f f f;
#X obj 231 333 mod 360;
#X obj 234 279 * 360;
#X obj 236 304 - 180;
#X obj 253 378 pack f f f;
#X obj 228 210 rgb2hsv;
#X obj 208 399 hsv2rgb;
#X obj 226 354 / 360;
#X msg 18 208 font files/No_Color.ttf;
#X floatatom 190 331 5 0 0 0 - - -, f 5;
#X floatatom 127 327 5 0 0 0 - - -, f 5;
#X obj 29 328 color;
#X obj 37 372 rectangle 5 5;
#X obj 225 178 r audio-cor;
#X connect 0 0 12 0;
#X connect 1 0 2 0;
#X connect 2 0 7 0;
#X connect 3 0 4 0;
#X connect 3 0 22 0;
#X connect 4 0 0 0;
#X connect 5 0 2 1;
#X connect 6 0 0 0;
#X connect 7 0 11 0;
#X connect 8 0 7 0;
#X connect 9 0 13 0;
#X connect 10 0 7 1;
#X connect 11 0 25 0;
#X connect 12 0 1 0;
#X connect 13 0 10 0;
#X connect 13 1 8 0;
#X connect 14 0 16 0;
#X connect 14 1 18 1;
#X connect 14 2 18 2;
#X connect 15 0 21 0;
#X connect 16 0 17 0;
#X connect 17 0 15 0;
#X connect 18 0 20 0;
#X connect 19 0 14 0;
#X connect 20 0 25 1;
#X connect 21 0 18 0;
#X connect 22 0 7 0;
#X connect 23 0 11 3;
#X connect 24 0 26 1;
#X connect 25 0 26 0;
#X connect 27 0 19 0;
