#N canvas 897 156 424 509 10;
#X msg 68 83 0;
#X obj 108 153 gemhead;
#X obj 108 225 part_head;
#X obj 108 279 part_color;
#X obj 108 303 part_size 1;
#X obj 108 401 part_render;
#X obj 108 327 part_velocity sphere 0 0 0 2;
#X obj 108 379 part_killold 20;
#X msg 4 122 speed 0.1;
#X obj 179 195 hsv2rgb;
#X obj 108 352 part_source 20;
#X msg 188 151 \$1 1 1;
#X obj -1 48 loadbang;
#X obj 266 177 max 0;
#X obj 108 427 sphere 0.1;
#X obj 5 83 t b b;
#X obj 107 74 tgl 15 0 empty empty empty 17 7 0 10 -262144 -1 -1 1
1;
#X obj 189 128 r Bl-COR;
#X obj 266 128 r Bl-TAMANHO;
#X obj 108 181 alpha;
#X obj 106 47 inlet;
#X connect 0 0 1 0;
#X connect 1 0 19 0;
#X connect 2 0 3 0;
#X connect 3 0 4 0;
#X connect 4 0 6 0;
#X connect 5 0 14 0;
#X connect 6 0 10 0;
#X connect 7 0 5 0;
#X connect 8 0 2 0;
#X connect 9 0 3 1;
#X connect 9 0 3 2;
#X connect 10 0 7 0;
#X connect 11 0 9 0;
#X connect 12 0 15 0;
#X connect 13 0 4 1;
#X connect 15 0 8 0;
#X connect 15 1 0 0;
#X connect 16 0 1 0;
#X connect 17 0 11 0;
#X connect 18 0 13 0;
#X connect 19 0 2 0;
#X connect 20 0 16 0;
