#N canvas 359 198 520 293 10;
#X obj 369 246 hsl 128 15 0 5 0 0 empty empty empty -2 -8 0 10 -262144
-1 -1 2290 1;
#X obj 252 57 fiddle~ 2048;
#X obj 252 88 mod 12;
#X obj 341 174 / 100;
#X floatatom 362 81 5 0 0 0 - - -, f 5;
#X obj 341 146 - 72;
#X obj 389 135 expr 100 - $f1;
#X obj 362 112 t f f;
#X obj 252 114 / 12;
#X floatatom 393 179 5 0 0 0 - - -, f 5;
#X floatatom 451 193 5 0 0 0 - - -, f 5;
#X obj 252 151 s Bl-Cor;
#X obj 341 270 s Bl-Tamanho;
#X obj 341 197 * 16;
#X floatatom 218 181 5 0 0 0 - - -, f 5;
#X obj 114 79 switch~;
#X obj 109 15 inlet;
#X obj 236 22 r~ audioIn-L;
#X obj 318 21 r~ audioIn-R;
#X obj 116 48 tgl 15 0 empty empty empty 17 7 0 10 -262144 -1 -1 1
1;
#X connect 1 0 2 0;
#X connect 1 3 5 0;
#X connect 2 0 8 0;
#X connect 3 0 13 0;
#X connect 4 0 7 0;
#X connect 5 0 3 0;
#X connect 6 0 3 1;
#X connect 6 0 10 0;
#X connect 7 0 5 1;
#X connect 7 1 6 0;
#X connect 8 0 11 0;
#X connect 8 0 14 0;
#X connect 9 0 13 1;
#X connect 13 0 0 0;
#X connect 13 0 12 0;
#X connect 16 0 19 0;
#X connect 17 0 1 0;
#X connect 18 0 1 0;
#X connect 19 0 15 0;
