#N canvas 537 118 672 649 10;
#X obj 16 33 tgl 15 0 empty empty empty 17 7 0 10 -262144 -1 -1 0 1
;
#X msg 16 59 \; pd dsp \$1;
#X obj 115 119 soundfiler;
#X floatatom 112 151 12 0 0 0 - - -, f 12;
#X obj 119 36 bng 15 250 50 0 empty empty empty 17 7 0 10 -262144 -1
-1;
#N canvas 36 181 479 586 tables 0;
#N canvas 1 79 450 300 (subpatch) 0;
#X array tone 12099 float 2;
#X coords 0 1 12099 -1 200 140 1 0 0;
#X restore 120 33 graph;
#N canvas 0 50 450 300 (subpatch) 0;
#X array bass 39682 float 2;
#X coords 0 1 39682 -1 200 140 1;
#X restore 117 203 graph;
#N canvas 0 50 450 300 (subpatch) 0;
#X array slap 20430 float 2;
#X coords 0 1 20430 -1 200 140 1;
#X restore 123 393 graph;
#X restore 21 345 pd tables;
#X msg 151 93 read -resize Djembe1_Slap.wav slap;
#X msg 153 60 read -resize Djembe1_Bass.wav bass;
#X msg 150 30 read -resize Djembe1_Tone.wav tone;
#N canvas 1 79 450 300 (subpatch) 0;
#X array loop 16 float 1;
#A 0 0 2 2 2 2 2 2 0 0 2 2 2 2 2 2 2;
#X coords 0 -1 15 5 200 140 1 0 0;
#X restore 19 392 graph;
#X obj 436 600 dac~;
#X obj 380 495 t b b;
#X obj 484 499 t b b;
#X obj 565 498 t b b;
#X obj 424 463 sel 1 2 3;
#X msg 406 520 set bass;
#X msg 509 521 set tone;
#X msg 585 521 set slap;
#X obj 445 567 tabplay~;
#X obj 412 78 cnv 50 200 150 empty empty empty 20 12 0 14 -232576 -232576
0;
#X obj 448 142 timer;
#X obj 412 25 bng 50 250 50 0 empty empty bangMe 8 20 0 10 -159808
-191407 -257985;
#X obj 425 114 t b b;
#X obj 482 84 tgl 15 0 empty empty empty 17 7 0 10 -262144 -1 -1 1
1;
#X obj 424 84 demux;
#X floatatom 439 165 12 0 0 0 - - -, f 12;
#X obj 493 198 spigot;
#X obj 541 201 tgl 15 0 empty empty empty 17 7 0 10 -262144 -1 -1 1
1;
#X msg 525 90 0;
#X text 555 93 reset;
#X obj 523 116 t b f f f;
#X msg 529 161 1;
#X text 452 0 DOUBLE BANG SPEED CONTROLLER;
#X obj 298 448 tabwrite loop;
#X obj 271 418 t f f;
#X obj 243 445 s play;
#X obj 457 232 tgl 15 0 empty empty empty 17 7 0 10 -262144 -1 -1 0
1;
#X obj 457 255 metro 200;
#X obj 388 368 hradio 15 1 0 16 empty empty empty 0 -8 0 10 -262144
-1 -1 7;
#X obj 389 404 t f f;
#X obj 418 436 tabread loop;
#X floatatom 190 230 3 0 0 0 - - -, f 3;
#X obj 190 208 keyname;
#X symbolatom 241 233 10 0 0 0 - - -, f 10;
#X obj 150 292 sel Shift_L Space Shift_R Control_L;
#X msg 151 320 1;
#X msg 302 320 0;
#X msg 256 320 3;
#X msg 197 318 2;
#X obj 271 379 hradio 15 1 0 4 empty empty empty 0 -8 0 10 -262144
-1 -1 0;
#X obj 230 262 spigot;
#X obj 459 281 f;
#X obj 488 281 + 1;
#X text 507 310 16 beats;
#X text 465 27 double click on bang \; remember to reset before \;
changing the speed;
#X floatatom 357 400 5 0 0 0 - - -, f 5;
#X obj 460 309 mod 16;
#X msg 25 286 \; loop const 0;
#X obj 25 224 bng 50 250 50 0 empty empty reset_loop 52 7 0 10 -191407
-1 -1;
#X obj 449 186 / 4;
#X floatatom 540 238 5 0 0 0 - - -, f 5;
#X connect 0 0 1 0;
#X connect 2 0 3 0;
#X connect 4 0 7 0;
#X connect 4 0 6 0;
#X connect 4 0 8 0;
#X connect 6 0 2 0;
#X connect 7 0 2 0;
#X connect 8 0 2 0;
#X connect 11 0 18 0;
#X connect 11 1 15 0;
#X connect 12 0 18 0;
#X connect 12 1 16 0;
#X connect 13 0 18 0;
#X connect 13 1 17 0;
#X connect 14 0 11 0;
#X connect 14 1 12 0;
#X connect 14 2 13 0;
#X connect 15 0 18 0;
#X connect 16 0 18 0;
#X connect 17 0 18 0;
#X connect 18 0 10 1;
#X connect 18 0 10 0;
#X connect 20 0 25 0;
#X connect 21 0 24 0;
#X connect 22 0 23 0;
#X connect 22 1 20 0;
#X connect 23 0 24 1;
#X connect 24 0 22 0;
#X connect 24 1 20 1;
#X connect 25 0 59 0;
#X connect 26 0 37 1;
#X connect 27 0 26 1;
#X connect 28 0 30 0;
#X connect 30 0 31 0;
#X connect 30 1 23 0;
#X connect 30 2 25 0;
#X connect 30 3 27 0;
#X connect 31 0 27 0;
#X connect 34 0 35 0;
#X connect 34 1 33 0;
#X connect 36 0 37 0;
#X connect 37 0 51 0;
#X connect 38 0 39 0;
#X connect 38 0 55 0;
#X connect 39 0 33 1;
#X connect 39 1 40 0;
#X connect 40 0 14 0;
#X connect 41 0 50 1;
#X connect 42 0 41 0;
#X connect 42 1 43 0;
#X connect 42 1 50 0;
#X connect 44 0 45 0;
#X connect 44 1 48 0;
#X connect 44 2 47 0;
#X connect 44 3 46 0;
#X connect 45 0 49 0;
#X connect 46 0 49 0;
#X connect 47 0 49 0;
#X connect 48 0 49 0;
#X connect 49 0 34 0;
#X connect 50 0 44 0;
#X connect 51 0 52 0;
#X connect 51 0 56 0;
#X connect 52 0 51 1;
#X connect 56 0 38 0;
#X connect 58 0 57 0;
#X connect 59 0 26 0;
#X connect 59 0 60 0;
