#N canvas 291 214 507 490 10;
#X obj 42 50 gemhead;
#X obj 488 65 pix_image;
#X msg 449 17 open files/tree.jpg;
#X obj 466 141 pix_texture;
#X obj 65 360 color;
#X obj 495 198 translateXYZ 0 0 0.01;
#X obj 465 173 rectangle 5.5 4;
#X obj 586 54 line;
#X obj 488 100 rotateXYZ 0 0 -180;
#X msg 629 30 -180 1000;
#X msg 578 29 0 2000;
#X msg 288 262 font files/Maze.ttf;
#X obj 408 453 + 120;
#X obj 334 290 tgl 15 0 empty empty empty 17 7 0 10 -262144 -1 -1 0
1;
#X obj 334 335 f;
#X obj 366 334 + 1;
#X obj 348 386 cos;
#X floatatom 383 397 5 0 0 0 - - -;
#X floatatom 399 311 5 0 0 0 - - -;
#X obj 338 360 / 100;
#X obj 350 411 * 3;
#X obj 332 312 metro 20;
#X obj 42 30 tgl 15 0 empty empty empty 17 7 0 10 -262144 -1 -1 0 1
;
#X obj 42 8 inlet;
#X obj 177 47 loadbang;
#X msg 118 343 0.7 0.2 1;
#X floatatom 178 404 5 0 0 0 - - -;
#X obj 18 311 rotateXYZ 0 0 180;
#X floatatom 96 280 5 0 0 0 - - -;
#X obj 114 426 text3d;
#X msg 126 31 0;
#X obj 18 186 translateXYZ 0 0 0;
#X floatatom 77 157 5 0 0 0 - - -;
#X obj 161 116 t b b b b b b;
#X msg 193 318 17;
#X msg 154 191 text MUNDO AO CONTRARIO;
#X msg 51 453 font files/No_Color.ttf;
#X obj 34 422 loadbang;
#X connect 0 0 31 0;
#X connect 1 0 8 0;
#X connect 3 0 6 0;
#X connect 4 0 29 0;
#X connect 6 0 5 0;
#X connect 7 0 8 3;
#X connect 8 0 3 0;
#X connect 9 0 7 0;
#X connect 10 0 7 0;
#X connect 11 0 29 0;
#X connect 13 0 21 0;
#X connect 14 0 15 0;
#X connect 14 0 19 0;
#X connect 15 0 14 1;
#X connect 16 0 20 0;
#X connect 17 0 20 1;
#X connect 18 0 21 1;
#X connect 19 0 16 0;
#X connect 20 0 12 0;
#X connect 21 0 14 0;
#X connect 22 0 0 0;
#X connect 23 0 22 0;
#X connect 24 0 33 0;
#X connect 25 0 4 1;
#X connect 26 0 29 1;
#X connect 27 0 4 0;
#X connect 28 0 27 3;
#X connect 30 0 22 0;
#X connect 31 0 27 0;
#X connect 32 0 31 2;
#X connect 33 0 30 0;
#X connect 33 1 35 0;
#X connect 33 2 11 0;
#X connect 33 3 25 0;
#X connect 33 4 34 0;
#X connect 34 0 29 1;
#X connect 35 0 29 0;
#X connect 36 0 29 0;
#X connect 37 0 36 0;
