#N canvas 141 230 450 355 10;
#X obj 63 154 pix_image;
#X obj 113 30 gemhead;
#X obj 116 -1 tgl 15 0 empty empty empty 17 7 0 10 -262144 -1 -1 1
1;
#X obj 83 248 pix_texture;
#X msg 185 81 open files/Coracao-2.png;
#X msg 189 113 open files/Coracao-3.png;
#X msg 209 147 open files/Coracao-4.png;
#X msg 219 173 open files/Coracao-5.png;
#X msg 181 52 open files/Coracao-1.png;
#X floatatom 125 270 5 0 0 0 - - -, f 5;
#X floatatom 194 270 5 0 0 0 - - -, f 5;
#X floatatom 101 186 5 0 0 0 - - -, f 5;
#X floatatom 164 190 5 0 0 0 - - -, f 5;
#X obj 83 291 rectangle 4 4;
#X obj 43 -12 loadbang;
#X msg 43 14 0;
#X obj 160 8 inlet;
#X obj 69 212 translateXYZ 0 0.81 0;
#X connect 0 0 17 0;
#X connect 1 0 0 0;
#X connect 2 0 1 0;
#X connect 3 0 13 0;
#X connect 4 0 0 0;
#X connect 5 0 0 0;
#X connect 6 0 0 0;
#X connect 7 0 0 0;
#X connect 8 0 0 0;
#X connect 9 0 13 1;
#X connect 10 0 13 2;
#X connect 11 0 17 1;
#X connect 12 0 17 2;
#X connect 14 0 15 0;
#X connect 15 0 2 0;
#X connect 16 0 2 0;
#X connect 17 0 3 0;
