#N canvas 824 79 491 519 10;
#X obj 18 51 gemwin;
#X msg 16 8 create \, 1;
#X msg 26 30 0 \, destroy;
#X obj 237 40 gemhead;
#X obj 183 488 text2d;
#X obj 235 94 translateXYZ;
#X floatatom 259 65 5 0 0 0 - - -, f 5;
#X floatatom 299 65 5 0 0 0 - - -, f 5;
#X obj 370 45 gemhead;
#X obj 325 483 text2d;
#X obj 367 100 translateXYZ;
#X floatatom 391 71 5 0 0 0 - - -, f 5;
#X floatatom 431 71 5 0 0 0 - - -, f 5;
#X msg 195 433 text mamma;
#X msg 351 438 text italiana;
#X floatatom 264 447 5 0 0 0 - - -, f 5;
#X obj 191 300 colorRGB;
#X obj 331 302 colorRGB;
#X obj 246 212 hsl 128 15 0 1 0 0 empty empty empty -2 -8 0 10 -262144
-1 -1 6265 1;
#X obj 259 236 expr 1-$f1;
#X obj 93 208 line;
#X msg 134 184 1 \$1;
#X msg 89 178 0 \$1;
#X obj 87 156 f;
#X obj 144 156 f;
#X floatatom 182 36 5 0 0 0 - - -, f 5;
#X obj 84 64 tgl 15 0 empty empty empty 17 7 0 10 -262144 -1 -1 1 1
;
#X obj 104 62 metro;
#X obj 85 89 bng 15 250 50 0 empty empty empty 17 7 0 10 -262144 -1
-1;
#X obj 143 120 bng 15 250 50 0 empty empty empty 17 7 0 10 -262144
-1 -1;
#X obj 68 110 t b b;
#X obj 94 132 delay;
#X obj 142 44 * 2;
#X obj 257 390 loadbang;
#X msg 268 421 80;
#X msg 154 397 text I LOVE 2;
#X msg 347 394 text LOVE U;
#X obj 234 275 pow 3;
#X obj 367 278 pow 3;
#X connect 1 0 0 0;
#X connect 2 0 0 0;
#X connect 3 0 5 0;
#X connect 5 0 16 0;
#X connect 6 0 5 1;
#X connect 7 0 5 2;
#X connect 8 0 10 0;
#X connect 10 0 17 0;
#X connect 11 0 10 1;
#X connect 12 0 10 2;
#X connect 13 0 4 0;
#X connect 14 0 9 0;
#X connect 15 0 4 1;
#X connect 15 0 9 1;
#X connect 16 0 4 0;
#X connect 17 0 9 0;
#X connect 18 0 19 0;
#X connect 18 0 37 0;
#X connect 19 0 38 0;
#X connect 20 0 18 0;
#X connect 21 0 20 0;
#X connect 22 0 20 0;
#X connect 23 0 22 0;
#X connect 24 0 21 0;
#X connect 25 0 24 1;
#X connect 25 0 23 1;
#X connect 25 0 32 0;
#X connect 25 0 31 1;
#X connect 26 0 27 0;
#X connect 27 0 28 0;
#X connect 28 0 30 0;
#X connect 30 0 23 0;
#X connect 30 1 31 0;
#X connect 31 0 24 0;
#X connect 32 0 27 1;
#X connect 33 0 34 0;
#X connect 33 0 13 0;
#X connect 33 0 14 0;
#X connect 34 0 15 0;
#X connect 35 0 4 0;
#X connect 36 0 9 0;
#X connect 37 0 16 4;
#X connect 38 0 17 4;
