#N canvas 1 80 750 699 10;
#X obj 62 54 gemwin;
#X msg 42 31 create;
#X msg 91 29 destroy;
#X obj 42 55 tgl 15 0 empty empty empty 17 7 0 10 -262144 -1 -1 1 1
;
#X msg 42 10 dimen 800 600;
#X obj 319 -2 gemhead;
#X obj 322 141 part_head;
#X obj 149 14 loadbang;
#X obj 149 38 s init;
#X msg 379 109 speed \$1;
#X floatatom 393 86 5 0 0 0 - - -;
#X msg 392 62 0.1;
#X msg 421 66 0.5;
#X obj -8 148 world_light;
#X msg -32 13 lighting 1;
#X msg -30 34 lighting 0;
#X obj -17 87 gemhead;
#X obj -17 109 rotateXYZ -45 90 0;
#X obj 108 150 mod 360;
#X obj 314 345 part_killold 40;
#X msg 497 344 100;
#X msg 538 343 20;
#X msg 458 344 1000;
#X obj 315 381 part_render;
#X obj 313 308 part_size;
#X floatatom 377 309 5 0 0 0 - - -;
#X obj 321 233 part_source 1 point;
#X obj 315 416 s pt;
#X floatatom 409 15 5 0 0 0 - - -;
#X floatatom 362 29 5 0 0 0 - - -;
#X floatatom 332 28 5 0 0 0 - - -;
#X obj 314 60 rotateXYZ;
#X obj 320 187 part_color;
#X msg 413 154 1 1 0;
#X msg 462 156 0 0 1;
#X floatatom 791 231 5 0 0 0 - - -;
#X obj 42 185 r pt;
#X floatatom 48 238 5 0 0 0 - - -;
#X obj 40 213 part_info ----------;
#X floatatom 113 257 5 0 0 0 - - -;
#X floatatom 207 284 5 0 0 0 - - -;
#X floatatom 248 281 5 0 0 0 - - -;
#X obj -16 265 separator;
#X obj 18 389 translateXYZ;
#X obj 72 313 unpack f f f;
#X floatatom 116 350 5 0 0 0 - - -;
#X floatatom 154 349 5 0 0 0 - - -;
#X floatatom 196 350 5 0 0 0 - - -;
#X msg 87 365 0;
#X msg 503 68 1;
#X msg 534 68 0;
#X msg 430 206 \$1 0 -3;
#X obj 517 120 random 80;
#X obj 518 145 / 10;
#X obj 524 174 - 4;
#X obj 317 275 part_velocity plane 0 0 0.01;
#X floatatom 111 83 5 0 0 0 - - -;
#X floatatom 504 206 5 0 0 0 - - -;
#X msg 421 346 5000;
#X obj 625 35 gemhead;
#X obj 621 72 separator;
#X obj 621 203 rotateXYZ;
#X obj 618 277 color;
#X floatatom 642 177 5 0 0 0 - - -;
#X msg 650 239 0 0.3 0;
#X obj 616 133 translateXYZ;
#X floatatom 653 100 5 0 0 0 - - -;
#X obj 519 90 metro 100;
#X obj -9 477 rectangle 0.05 4;
#X obj 287 6 vsl 15 60 -20 20 0 0 empty empty empty 0 -9 0 10 -262144
-1 -1 2950 1;
#X obj 245 82 hsl 60 15 15 -15 0 0 empty empty empty -2 -8 0 10 -262144
-1 -1 2300 1;
#X msg 257 7 0;
#X obj 582 327 rectangle 4 100;
#X floatatom 665 297 5 0 0 0 - - -;
#X obj 384 0 tgl 15 0 empty empty empty 17 7 0 10 -262144 -1 -1 1 1
;
#X obj 531 410 gemhead;
#X obj 527 447 separator;
#X obj 559 538 rotateXYZ;
#X obj 568 606 color;
#X floatatom 580 512 5 0 0 0 - - -;
#X msg 600 568 0 0.3 0;
#X obj 561 480 translateXYZ;
#X floatatom 598 447 5 0 0 0 - - -;
#X floatatom 615 626 5 0 0 0 - - -;
#X obj 552 650 cone 4 100;
#X floatatom 579 626 5 0 0 0 - - -;
#X obj 497 413 tgl 15 0 empty empty empty 17 7 0 10 -262144 -1 -1 0
1;
#X msg 240 56 0;
#X connect 1 0 0 0;
#X connect 2 0 0 0;
#X connect 3 0 0 0;
#X connect 4 0 0 0;
#X connect 5 0 31 0;
#X connect 6 0 32 0;
#X connect 7 0 8 0;
#X connect 9 0 6 0;
#X connect 10 0 9 0;
#X connect 11 0 10 0;
#X connect 12 0 10 0;
#X connect 14 0 0 0;
#X connect 15 0 0 0;
#X connect 16 0 17 0;
#X connect 17 0 13 0;
#X connect 18 0 17 2;
#X connect 19 0 23 0;
#X connect 20 0 19 1;
#X connect 21 0 19 1;
#X connect 22 0 19 1;
#X connect 23 0 27 0;
#X connect 24 0 19 0;
#X connect 25 0 24 1;
#X connect 26 0 55 0;
#X connect 28 0 31 3;
#X connect 29 0 31 2;
#X connect 30 0 31 1;
#X connect 31 0 6 0;
#X connect 32 0 26 0;
#X connect 33 0 32 1;
#X connect 34 0 32 2;
#X connect 36 0 38 0;
#X connect 38 0 42 0;
#X connect 38 1 37 0;
#X connect 38 2 44 0;
#X connect 38 3 39 0;
#X connect 38 5 40 0;
#X connect 38 6 41 0;
#X connect 42 0 68 0;
#X connect 44 0 43 1;
#X connect 44 0 45 0;
#X connect 44 1 46 0;
#X connect 44 2 47 0;
#X connect 44 2 48 0;
#X connect 48 0 43 3;
#X connect 49 0 67 0;
#X connect 50 0 67 0;
#X connect 51 0 26 3;
#X connect 52 0 53 0;
#X connect 53 0 54 0;
#X connect 54 0 51 0;
#X connect 54 0 57 0;
#X connect 55 0 24 0;
#X connect 56 0 17 2;
#X connect 58 0 19 1;
#X connect 59 0 60 0;
#X connect 60 0 65 0;
#X connect 61 0 62 0;
#X connect 62 0 72 0;
#X connect 63 0 61 1;
#X connect 64 0 62 1;
#X connect 65 0 61 0;
#X connect 66 0 65 2;
#X connect 67 0 52 0;
#X connect 69 0 31 1;
#X connect 70 0 31 3;
#X connect 71 0 69 0;
#X connect 73 0 72 2;
#X connect 74 0 5 0;
#X connect 75 0 76 0;
#X connect 76 0 81 0;
#X connect 77 0 78 0;
#X connect 78 0 84 0;
#X connect 79 0 77 1;
#X connect 80 0 78 1;
#X connect 81 0 77 0;
#X connect 82 0 81 2;
#X connect 83 0 84 2;
#X connect 85 0 84 1;
#X connect 86 0 75 0;
#X connect 87 0 70 0;
