#N canvas 103 505 268 152 10;
#N canvas 530 97 700 657 patch 1;
#X obj 36 27 adc~;
#X obj 46 67 s~ micIn;
#X obj 192 393 r~ micIn;
#X obj 390 31 r~ micIn;
#X obj 391 54 fiddle~;
#X obj 402 83 bng 15 250 50 0 empty empty empty 17 7 0 10 -262144 -1
-1;
#X floatatom 454 90 5 0 0 0 - - -;
#X obj 325 107 mtof;
#X obj 294 622 dac~;
#X obj 298 590 *~;
#X obj 341 576 vsl 20 60 0 1 0 0 empty Vol-r empty 0 -9 0 10 -262144
-1 -1 299 1;
#X obj 194 501 *~;
#X obj 220 193 phasor~;
#X floatatom 219 160 5 0 0 0 - - -;
#X obj 573 28 vsl 30 80 0 300 0 0 att att-r att 0 -9 0 10 -262144 -1
-1 1053 1;
#X obj 472 246 vsl 15 128 0 127 0 0 empty empty empty 0 -9 0 10 -262144
-1 -1 100 1;
#X obj 424 380 mtof;
#X obj 142 452 vsl 20 60 0 1 0 0 empty vol_micIn-r empty 0 -9 0 10
-262144 -1 -1 5900 1;
#X obj 383 489 *~;
#X obj 504 244 vsl 15 128 0 4 0 0 empty empty empty 0 -9 0 10 -262144
-1 -1 12500 1;
#X floatatom 518 381 5 0 0 0 - - -;
#X floatatom 430 307 5 0 0 0 - - -;
#X obj 302 549 +~;
#X obj 459 165 pack f f;
#X obj 422 224 line;
#X obj 455 134 f;
#X obj 404 134 r att;
#X obj 632 31 vsl 30 80 0 1000 0 0 dec dec-r dec 0 -9 0 10 -262144
-1 -1 5925 1;
#X obj 418 170 r dec;
#X obj 459 53 s amp;
#X obj 585 463 r dec;
#X obj 397 108 t b b b;
#X obj 508 137 s hit;
#X obj 508 114 bng 15 250 50 0 empty empty empty 17 7 0 10 -262144
-1 -1;
#X floatatom 583 509 5 0 0 0 - - -;
#X floatatom 585 131 5 0 0 0 - - -;
#X obj 476 403 t b b;
#X obj 376 193 pack 1 f;
#X obj 359 157 del 1000;
#X floatatom 644 129 5 0 0 0 - - -;
#X obj 461 427 del 1000;
#X obj 574 234 - 30;
#X obj 542 261 f;
#X obj 577 260 / 90;
#X obj 536 227 r hit;
#X obj 231 523 hip~ 500;
#X floatatom 266 482 5 0 0 0 - - -;
#X obj 269 227 phasor~;
#X obj 263 275 +~;
#X obj 574 205 r amp;
#X obj 39 109 tgl 15 0 empty empty empty 17 7 0 10 -262144 -1 -1 1
1;
#X msg 39 136 \; pd dsp \$1;
#X obj 283 323 *~;
#X obj 341 266 expr~ $v1 > 0.5;
#X obj 328 238 phasor~;
#X obj 542 289 s ampOnHit;
#X obj 214 124 r ampOnHit;
#X obj 37 185 loadbang;
#X obj 504 205 r bp2;
#X obj 66 109 r OnOffSound;
#X msg 37 212 \; vol_micIn-r 0.05 \; vol_synth-r 0.8 \; att-r 40 \;
dec-r 750 \; bp2 4 \; Vol-r 0.3 \;;
#X obj 481 478 lop~ 3;
#X obj 290 374 moog~;
#X obj 351 371 sig~;
#X obj 353 338 sig~;
#X msg 466 452 0;
#X msg 515 449 1;
#X obj 376 527 *~;
#X obj 195 555 sig~;
#X obj 195 582 / 2;
#X obj 424 510 vsl 20 60 0 1 0 0 empty vol_synth-r empty 0 -9 0 10
-262144 -1 -1 5900 1;
#X obj 280 186 * 0.49;
#X floatatom 397 323 5 0 0 0 - - -;
#X text 525 315 verificar os valores de bp2;
#X connect 0 0 1 0;
#X connect 0 1 1 0;
#X connect 2 0 11 0;
#X connect 3 0 4 0;
#X connect 4 1 5 0;
#X connect 4 3 6 0;
#X connect 4 3 29 0;
#X connect 4 3 7 0;
#X connect 5 0 31 0;
#X connect 6 0 25 1;
#X connect 7 0 54 0;
#X connect 9 0 8 0;
#X connect 9 0 8 1;
#X connect 10 0 9 1;
#X connect 11 0 45 0;
#X connect 12 0 48 0;
#X connect 13 0 12 0;
#X connect 13 0 71 0;
#X connect 14 0 35 0;
#X connect 15 0 16 0;
#X connect 15 0 21 0;
#X connect 15 0 36 0;
#X connect 16 0 63 0;
#X connect 17 0 11 1;
#X connect 18 0 67 0;
#X connect 19 0 20 0;
#X connect 19 0 64 0;
#X connect 22 0 9 0;
#X connect 23 0 24 0;
#X connect 24 0 15 0;
#X connect 25 0 23 0;
#X connect 26 0 23 1;
#X connect 26 0 38 1;
#X connect 27 0 39 0;
#X connect 28 0 37 1;
#X connect 30 0 34 0;
#X connect 30 0 40 1;
#X connect 31 0 38 0;
#X connect 31 1 25 0;
#X connect 31 2 32 0;
#X connect 33 0 32 0;
#X connect 36 0 40 0;
#X connect 36 1 66 0;
#X connect 37 0 24 0;
#X connect 38 0 37 0;
#X connect 40 0 65 0;
#X connect 41 0 43 0;
#X connect 42 0 55 0;
#X connect 44 0 42 0;
#X connect 45 0 22 0;
#X connect 46 0 45 1;
#X connect 47 0 48 1;
#X connect 48 0 52 0;
#X connect 49 0 41 0;
#X connect 49 0 42 1;
#X connect 50 0 51 0;
#X connect 52 0 62 0;
#X connect 53 0 52 1;
#X connect 54 0 53 0;
#X connect 54 0 52 1;
#X connect 56 0 13 0;
#X connect 57 0 60 0;
#X connect 58 0 19 0;
#X connect 59 0 50 0;
#X connect 61 0 18 1;
#X connect 62 0 18 0;
#X connect 63 0 62 1;
#X connect 64 0 62 2;
#X connect 65 0 61 0;
#X connect 66 0 61 0;
#X connect 67 0 22 1;
#X connect 70 0 67 1;
#X connect 71 0 47 0;
#X connect 72 0 64 0;
#X restore 113 37 pd patch;
#X obj 29 35 vsl 40 80 0 1 0 0 Vol-r empty Vol 0 -9 0 10 -203904 -99865
-1 400 1;
#N canvas 522 381 436 93 RidMi 0;
#X text 26 11 get contact microphone output and control a digital sound
\; Mick Mengucci - LabIO 2015;
#X restore 114 92 pd RidMi;
#X obj 195 37 tgl 50 0 OnOffSound empty sound 17 7 0 10 -4034 -1 -1
1 1;
