#N canvas 432 135 450 300 10;
#X obj 340 107 gemhead 56;
#X obj 340 165 color;
#X msg 358 133 1 1 0;
#X obj 342 239 circle 0.5;
#X obj 38 126 pix_data;
#X obj 25 175 ColorDistance;
#X obj 100 152 spigot;
#X obj 42 152 t a a;
#X obj 24 219 > 0.1;
#X obj 53 7 r IMAGE;
#X obj 107 126 r STORE;
#X obj 53 198 r THR;
#X obj 168 184 translateXYZ;
#X obj 168 79 gemhead 55;
#X obj 168 238 square 0.1;
#X obj 168 157 color;
#X msg 248 210 draw line;
#X obj 247 105 * 10.66;
#X obj 247 130 - 5.33;
#X obj 300 106 * 8;
#X obj 302 128 - 4;
#X obj 288 174 r init;
#X obj 331 213 translateXYZ;
#X obj 24 240 s \$0-CHNG;
#X obj 341 80 r \$0-CHNG;
#X obj 194 19 inlet;
#X obj 275 20 inlet;
#X obj 94 240 outlet;
#X obj 194 41 s \$0-X;
#X obj 274 42 s \$0-Y;
#X obj 68 43 r \$0-X;
#X obj 94 73 r \$0-Y;
#X obj 245 79 r \$0-X;
#X obj 293 80 r \$0-Y;
#X msg 195 126 1 1 1;
#X obj 351 32 r nuAir-SW;
#X obj 164 98 t b a;
#X connect 0 0 1 0;
#X connect 1 0 22 0;
#X connect 2 0 1 1;
#X connect 4 1 7 0;
#X connect 5 0 8 0;
#X connect 6 0 5 1;
#X connect 7 0 5 0;
#X connect 7 1 6 0;
#X connect 8 0 23 0;
#X connect 8 0 27 0;
#X connect 9 0 4 1;
#X connect 10 0 6 1;
#X connect 11 0 8 1;
#X connect 12 0 14 0;
#X connect 13 0 36 0;
#X connect 15 0 12 0;
#X connect 16 0 14 0;
#X connect 17 0 18 0;
#X connect 18 0 12 1;
#X connect 18 0 22 1;
#X connect 19 0 20 0;
#X connect 20 0 12 2;
#X connect 20 0 22 2;
#X connect 21 0 16 0;
#X connect 21 0 34 0;
#X connect 21 0 2 0;
#X connect 22 0 3 0;
#X connect 24 0 0 0;
#X connect 25 0 28 0;
#X connect 26 0 29 0;
#X connect 30 0 4 2;
#X connect 31 0 4 3;
#X connect 32 0 17 0;
#X connect 33 0 19 0;
#X connect 34 0 15 1;
#X connect 35 0 0 0;
#X connect 35 0 13 0;
#X connect 36 0 4 0;
#X connect 36 1 15 0;
