#N canvas 133 374 450 300 10;
#X obj 37 60 soundfiler;
#N canvas 1 151 468 309 ARRAYS 0;
#N canvas 0 50 450 250 (subpatch) 0;
#X array somL 7.40762e+06 float 2;
#X coords 0 1 7.40762e+06 -1 200 140 1;
#X restore 221 125 graph;
#N canvas 0 50 450 250 (subpatch) 0;
#X array somR 7.40762e+06 float 2;
#X coords 0 1 7.40762e+06 -1 200 140 1;
#X restore 6 139 graph;
#X restore 141 61 pd ARRAYS;
#X obj 30 161 tabplay~ somL;
#X obj 139 157 tabplay~ somR;
#X obj 82 203 dac~;
#X obj 55 121 bng 15 250 50 0 empty empty empty 17 7 0 10 -262144 -1
-1;
#X obj 113 114 r JW-Audio-Play;
#X obj 337 87 netreceive 8000;
#X obj 336 126 route JW;
#X obj 351 241 s JW-Audio-Play;
#X obj 337 155 sel 0 1;
#X msg 332 178 stop;
#X msg 35 32 read -resize -maxsize 8e+06 files/JW-r1-48-16b.wav somL
somR;
#X connect 2 0 4 0;
#X connect 3 0 4 1;
#X connect 5 0 2 0;
#X connect 5 0 3 0;
#X connect 6 0 2 0;
#X connect 6 0 3 0;
#X connect 7 0 8 0;
#X connect 8 0 10 0;
#X connect 10 0 11 0;
#X connect 10 1 9 0;
#X connect 11 0 9 0;
#X connect 12 0 0 0;
