#N canvas 334 113 698 571 10;
#X obj 81 -38 gemhead;
#X obj 56 377 pix_texture;
#X msg 109 85 colorspace Grey;
#X obj 80 173 pix_film;
#X obj 185 -30 f;
#X obj 185 -8 + 1;
#X obj 269 -121 tgl 15 0 empty empty empty 17 7 0 10 -262144 -1 -1
1 1;
#X obj 361 9 sel 1893;
#X msg 293 -61 -1;
#X msg -115 62 open files/JW-Cut-mjpeg.mov;
#X obj -115 18 loadbang;
#X obj 210 -124 inlet;
#X obj 263 -96 t f f f b;
#X obj 147 -59 s JW;
#X obj 184 -53 metro 62;
#X obj 246 291 vsl 15 128 0 1 0 0 empty empty empty 0 -9 0 10 -262144
-1 -1 12700 1;
#X obj 56 348 pix_contrast;
#X floatatom 144 263 5 0 0 0 - - -, f 5;
#X msg 366 71 2;
#X obj 316 105 gate 2;
#X obj 185 15 t f f f;
#X obj 399 138 print;
#X floatatom 243 89 5 0 0 0 - - -, f 5;
#X obj 347 133 b;
#X floatatom 413 73 5 0 0 0 - - -, f 5;
#X obj 256 260 line 0 20;
#X obj 57 -131 loadbang;
#X msg 57 -109 0;
#X obj 94 -100 tgl 15 0 empty empty empty 17 7 0 10 -262144 -1 -1 1
1;
#X obj 11 -63 r JW;
#X obj 56 399 rectangle 5 5;
#X msg 364 168 1891;
#X obj 485 164 r JW;
#X msg 485 186 1;
#X msg 406 287 1 \, 2 80000;
#X msg 326 163 1892;
#X connect 0 0 3 0;
#X connect 1 0 30 0;
#X connect 2 0 3 0;
#X connect 3 0 16 0;
#X connect 4 0 5 0;
#X connect 5 0 20 0;
#X connect 6 0 12 0;
#X connect 7 0 18 0;
#X connect 7 0 34 0;
#X connect 8 0 4 0;
#X connect 9 0 3 0;
#X connect 10 0 9 0;
#X connect 11 0 6 0;
#X connect 12 0 13 0;
#X connect 12 1 14 0;
#X connect 12 2 19 0;
#X connect 12 3 8 0;
#X connect 14 0 4 0;
#X connect 15 0 16 2;
#X connect 16 0 1 0;
#X connect 17 0 16 2;
#X connect 18 0 19 0;
#X connect 19 0 3 1;
#X connect 19 1 23 0;
#X connect 20 0 4 1;
#X connect 20 1 19 1;
#X connect 20 2 7 0;
#X connect 23 0 35 0;
#X connect 24 0 19 0;
#X connect 25 0 16 2;
#X connect 26 0 27 0;
#X connect 27 0 0 0;
#X connect 28 0 0 0;
#X connect 29 0 0 0;
#X connect 31 0 3 1;
#X connect 32 0 33 0;
#X connect 33 0 25 0;
#X connect 34 0 25 0;
#X connect 35 0 3 1;
