#N canvas 404 147 698 571 10;
#X obj 81 -38 gemhead;
#X obj 80 302 pix_texture;
#X obj 80 324 rectangle 4 3;
#X msg 109 85 colorspace Grey;
#X obj 80 173 pix_film;
#X obj 184 -31 f;
#X obj 184 -9 + 1;
#X obj 269 -121 tgl 15 0 empty empty empty 17 7 0 10 -262144 -1 -1
1 1;
#X obj 316 106 spigot;
#X obj 310 13 sel 1893;
#X msg 366 73 0;
#X msg 293 -61 -1;
#X obj 401 322 gemwin;
#X msg 382 269 create \, 1;
#X msg 420 293 0 \, destroy;
#X msg -115 62 open files/JW-Cut-mjpeg.mov;
#X obj -115 18 loadbang;
#X obj 210 -124 inlet;
#X obj -94 349 netsend;
#X msg -106 204 connect localhost 8000;
#X obj -54 295 prepend send;
#X obj -26 236 r JW;
#X obj 263 -96 t f f f b;
#X msg -48 265 JW \$1;
#X obj -99 373 tgl 15 0 empty empty empty 17 7 0 10 -262144 -1 -1 1
1;
#X obj 147 -59 s JW;
#X floatatom 109 224 5 0 0 0 - - -, f 5;
#X obj 184 -53 metro 62;
#X obj 80 262 pix_posterize;
#X floatatom 170 220 5 0 0 0 - - -, f 5;
#X obj 92 206 pix_yuv;
#X obj 262 226 vsl 15 128 0 1 0 0 empty empty empty 0 -9 0 10 -262144
-1 -1 12700 1;
#X connect 0 0 4 0;
#X connect 1 0 2 0;
#X connect 3 0 4 0;
#X connect 4 0 30 0;
#X connect 5 0 6 0;
#X connect 6 0 5 1;
#X connect 6 0 9 0;
#X connect 6 0 8 0;
#X connect 7 0 22 0;
#X connect 8 0 4 1;
#X connect 9 0 10 0;
#X connect 10 0 8 1;
#X connect 11 0 5 0;
#X connect 13 0 12 0;
#X connect 14 0 12 0;
#X connect 15 0 4 0;
#X connect 16 0 15 0;
#X connect 17 0 7 0;
#X connect 18 0 24 0;
#X connect 19 0 18 0;
#X connect 20 0 18 0;
#X connect 21 0 23 0;
#X connect 22 0 25 0;
#X connect 22 1 27 0;
#X connect 22 2 8 1;
#X connect 22 3 11 0;
#X connect 23 0 20 0;
#X connect 26 0 28 1;
#X connect 27 0 5 0;
#X connect 28 0 1 0;
#X connect 29 0 28 2;
#X connect 30 0 28 0;
#X connect 31 0 26 0;
