#N canvas 211 163 454 558 10;
#X obj 54 68 gemhead;
#X obj 54 123 translateXYZ;
#X obj 54 210 color;
#X obj 15 43 loadbang;
#X msg 21 71 0;
#X obj 99 15 inlet;
#X obj 31 353 text2d;
#X obj 202 104 loadbang;
#X obj 30 385 translateXYZ 0 0 -0.01;
#X obj 57 91 alpha;
#X obj 221 131 t b b;
#X obj 225 272 unpack f f f;
#X obj 231 353 mod 360;
#X obj 234 299 * 360;
#X obj 236 324 - 180;
#X obj 253 398 pack f f f;
#X obj 268 423 hsv2rgb;
#X obj 226 374 / 360;
#X msg 23 261 font files/No_Color.ttf;
#X floatatom 190 351 5 0 0 0 - - -, f 5;
#X floatatom 85 495 5 0 0 0 - - -, f 5;
#X obj 24 474 color;
#X obj 27 518 rectangle 5 5;
#X msg 266 159 text HaCked PoEms;
#X obj 266 447 s bckg_color;
#X obj 368 10 r audio-corV;
#X obj 286 9 r audio-corS;
#X obj 203 9 r audio-corH;
#X obj 296 108 pack f f f;
#X obj 341 67 t b f;
#X obj 300 68 t b f;
#X obj 296 130 s title-cor;
#X obj 235 223 r title-cor;
#X obj 77 154 r title-cor;
#X obj 82 443 r bckg_color;
#X obj 341 242 print;
#X floatatom 211 65 5 0 0 0 - - -, f 5;
#X msg 327 33 0.5;
#X obj 286 33 * 0.5;
#X floatatom 402 63 5 0 0 0 - - -, f 5;
#X msg 407 37 0.5;
#X obj 366 37 * 0.5;
#X msg 168 169 100;
#X obj 97 44 tgl 15 0 empty empty empty 17 7 0 10 -262144 -1 -1 1 1
;
#X obj 110 72 s audio2corOn;
#X connect 0 0 9 0;
#X connect 1 0 2 0;
#X connect 2 0 6 0;
#X connect 3 0 4 0;
#X connect 3 0 18 0;
#X connect 4 0 0 0;
#X connect 5 0 43 0;
#X connect 6 0 8 0;
#X connect 7 0 10 0;
#X connect 8 0 21 0;
#X connect 9 0 1 0;
#X connect 10 0 42 0;
#X connect 10 1 23 0;
#X connect 11 0 13 0;
#X connect 11 1 15 1;
#X connect 11 2 15 2;
#X connect 12 0 17 0;
#X connect 13 0 14 0;
#X connect 14 0 12 0;
#X connect 15 0 16 0;
#X connect 16 0 24 0;
#X connect 17 0 15 0;
#X connect 18 0 6 0;
#X connect 19 0 8 3;
#X connect 20 0 22 1;
#X connect 21 0 22 0;
#X connect 23 0 6 0;
#X connect 25 0 41 0;
#X connect 26 0 38 0;
#X connect 27 0 28 0;
#X connect 27 0 36 0;
#X connect 28 0 31 0;
#X connect 29 0 28 0;
#X connect 29 1 28 2;
#X connect 30 0 28 0;
#X connect 30 1 28 1;
#X connect 32 0 11 0;
#X connect 33 0 2 1;
#X connect 34 0 21 1;
#X connect 37 0 38 1;
#X connect 38 0 30 0;
#X connect 40 0 41 1;
#X connect 41 0 39 0;
#X connect 41 0 29 0;
#X connect 42 0 6 1;
#X connect 43 0 0 0;
#X connect 43 0 44 0;
