#N canvas 434 193 653 475 10;
#X obj 92 135 gemhead;
#X obj 93 266 translateXYZ;
#X obj 230 361 rectangle 10 0.01;
#X obj 218 95 tgl 15 0 empty empty empty 17 7 0 10 -262144 -1 -1 1
1;
#X obj 216 125 metro 200;
#X obj 216 151 f;
#X obj 245 150 + 1;
#X obj 213 207 sel 4;
#X obj 265 84 hsl 128 15 0 1000 0 0 empty empty empty -2 -8 0 10 -262144
-1 -1 1143 1;
#X floatatom 145 157 5 0 0 0 - - -, f 5;
#X obj 95 191 rotateXYZ;
#X obj 94 106 tgl 15 0 empty empty empty 17 7 0 10 -262144 -1 -1 1
1;
#X obj 234 337 color;
#X obj 117 87 t f f;
#X obj 101 38 r onOff-\$1;
#X obj 475 58 r color-\$1;
#X obj 183 37 r angle-\$1;
#X obj 262 38 r speed-\$1;
#X obj 216 178 * 0.1;
#X msg 180 151 -40;
#X connect 0 0 10 0;
#X connect 1 0 12 0;
#X connect 3 0 4 0;
#X connect 4 0 5 0;
#X connect 5 0 6 0;
#X connect 5 0 18 0;
#X connect 6 0 5 1;
#X connect 7 0 19 0;
#X connect 7 1 1 2;
#X connect 8 0 4 1;
#X connect 9 0 10 3;
#X connect 10 0 1 0;
#X connect 11 0 0 0;
#X connect 12 0 2 0;
#X connect 13 0 11 0;
#X connect 13 1 3 0;
#X connect 14 0 13 0;
#X connect 15 0 12 1;
#X connect 16 0 10 3;
#X connect 17 0 8 0;
#X connect 18 0 7 0;
#X connect 19 0 5 0;
