#N canvas 727 263 580 354 10;
#X obj 154 38 gemhead;
#X obj 202 298 translateXYZ;
#X obj 210 256 rotateXYZ;
#X obj 163 59 t b a;
#X obj 74 112 f;
#X obj 103 115 + 1;
#X floatatom 336 174 5 0 0 0 - - -, f 5;
#X obj 201 322 rectangle 10 0.02;
#X msg 299 154 0;
#X obj 257 14 inlet speed;
#X obj 90 38 tgl 15 0 empty empty empty 17 7 0 10 -262144 -1 -1 0 1
;
#X obj 411 13 inlet color;
#X obj 106 90 spigot;
#X msg 44 105 0;
#X obj 67 185 / 1000;
#X obj 69 146 mod 1000;
#X obj 89 13 inlet onoff;
#X obj 97 212 expr -$f1*8 + 4;
#X obj 160 126 t f f;
#X floatatom 160 165 5 0 0 0 - - -, f 5;
#X floatatom 360 140 5 0 0 0 - - -, f 5;
#X obj 260 40 hsl 100 15 0.1 3000 0 0 empty empty empty -2 -8 0 10
-262144 -1 -1 400 1;
#X obj 348 85 unpack f f f;
#X obj 256 129 colorRGB;
#X obj 476 90 inlet alfa;
#X connect 0 0 3 0;
#X connect 1 0 7 0;
#X connect 2 0 1 0;
#X connect 3 0 12 0;
#X connect 3 1 23 0;
#X connect 4 0 5 0;
#X connect 4 0 15 0;
#X connect 5 0 4 1;
#X connect 6 0 1 2;
#X connect 8 0 2 2;
#X connect 8 0 2 1;
#X connect 8 0 2 3;
#X connect 9 0 21 0;
#X connect 10 0 12 1;
#X connect 10 0 0 0;
#X connect 11 0 22 0;
#X connect 12 0 4 0;
#X connect 13 0 4 0;
#X connect 14 0 17 0;
#X connect 15 0 14 0;
#X connect 16 0 10 0;
#X connect 17 0 1 2;
#X connect 17 0 2 3;
#X connect 17 0 2 2;
#X connect 17 0 2 1;
#X connect 18 0 15 1;
#X connect 18 1 14 1;
#X connect 18 1 19 0;
#X connect 21 0 18 0;
#X connect 21 0 20 0;
#X connect 22 0 23 1;
#X connect 22 1 23 2;
#X connect 22 2 23 3;
#X connect 23 0 2 0;
#X connect 24 0 23 4;
