#N canvas 18 78 433 685 10;
#N canvas 437 107 834 660 audio-words 0;
#X obj 132 229 pix_rgba;
#X obj 132 259 pix_flip;
#X obj 132 301 t a a;
#X msg 35 221 horizontal;
#X obj 35 196 r init;
#X obj 36 139 s init;
#X obj 35 114 loadbang;
#X obj 37 364 pix_separator;
#X obj 151 346 pix_separator;
#X obj 34 396 pix_texture;
#X obj 32 427 rectangle 5.33 4;
#X obj 153 419 pix_movement;
#X obj 178 391 hsl 128 15 0 1 0 0 empty empty empty -2 -8 0 10 -262144
-1 -1 0 1;
#X obj 154 451 alpha;
#X obj 142 518 pix_blob;
#X obj 171 485 hradio 15 1 0 5 empty empty empty 0 -8 0 10 -262144
-1 -1 4;
#X floatatom 51 557 5 0 0 0 - - -, f 5;
#X floatatom 87 559 5 0 0 0 - - -, f 5;
#X obj 357 142 part_head;
#X obj 357 394 part_killold 20;
#X obj 363 464 part_color;
#X msg 374 424 0.5 1 0;
#X msg 432 426 0 1 1;
#X obj 365 517 part_size;
#X floatatom 421 498 5 0 0 0 - - -, f 5;
#X obj 365 546 part_render;
#X obj 359 63 gemhead 55;
#X obj 131 612 s X;
#X obj 182 612 s Y;
#X obj 133 585 - 5.33;
#X obj 133 560 * 10.66;
#X obj 188 582 - 4;
#X obj 187 556 * 8;
#X obj 361 616 text3d;
#X msg 388 586 font PUSSSA__.TTF;
#X obj 290 454 r init;
#X msg 289 143 speed \$1;
#X obj 288 106 hsl 128 15 0 1 0 0 empty empty empty -2 -8 0 10 -262144
-1 -1 889 1;
#X obj 350 220 part_velocity 0 0 0.1 0.2;
#X obj 356 333 part_orbitpoint;
#X obj 351 187 part_source 5 point 0 0 0;
#X obj 397 271 r X;
#X obj 427 272 r Y;
#X obj 398 301 pack f f 0;
#X floatatom 478 305 5 0 0 0 - - -, f 5;
#X obj 436 121 r X;
#X obj 466 122 r Y;
#X obj 437 151 pack f f 0;
#X obj 522 274 vsl 15 128 -20 20 0 0 empty empty gravity -30 -9 0 10
-262130 -1 -1 0 1;
#X msg 218 465 4;
#X obj 253 41 r init;
#X msg 390 495 0.2;
#X obj 134 82 tgl 15 0 empty empty empty 17 7 0 10 -262144 -1 -1 0
1;
#X obj 134 52 inlet onOff;
#X obj 518 87 s word_color-bang;
#N canvas 1 60 450 435 word-colors 0;
#X obj 99 11 r word_color-bang;
#X obj 111 375 outlet;
#X obj 250 378 outlet;
#X obj 128 37 t b b b;
#X obj 139 112 random 100;
#X obj 139 137 / 100;
#X obj 163 220 hsv2rgb;
#X obj 173 190 pack f f 1;
#X obj 206 113 random 100;
#X obj 206 138 / 100;
#X obj 117 244 tgl 15 0 empty empty empty 17 7 0 10 -262144 -1 -1 0
1;
#X obj 191 295 demux . .;
#X text 220 20 changes word color at each bang;
#X connect 0 0 3 0;
#X connect 3 0 10 0;
#X connect 3 1 4 0;
#X connect 3 2 8 0;
#X connect 4 0 5 0;
#X connect 5 0 7 0;
#X connect 6 0 11 0;
#X connect 7 0 6 0;
#X connect 8 0 9 0;
#X connect 9 0 7 1;
#X connect 10 0 11 1;
#X connect 11 0 1 0;
#X connect 11 1 2 0;
#X restore 477 427 pd word-colors;
#X obj 46 329 spigot;
#X obj 95 332 tgl 15 0 empty empty empty 17 7 0 10 -262144 -1 -1 0
1;
#N canvas 1 56 476 464 det_speed 0;
#X obj 265 36 r Y;
#X obj 71 22 r X;
#X obj 92 121 f;
#X obj 73 157 -;
#X obj 59 66 t f f b;
#X floatatom 69 206 5 0 0 0 - - -, f 5;
#X obj 234 140 vsl 15 128 0 10 0 0 empty empty empty 0 -9 0 10 -262144
-1 -1 198 1;
#X obj 151 141 pack f 50;
#X obj 149 168 line;
#X obj 124 152 abs;
#X obj 299 127 f;
#X obj 280 163 -;
#X obj 266 72 t f f b;
#X floatatom 276 212 5 0 0 0 - - -, f 5;
#X obj 418 144 vsl 15 128 0 10 0 0 empty empty empty 0 -9 0 10 -262144
-1 -1 166 1;
#X obj 358 147 pack f 50;
#X obj 356 174 line;
#X obj 331 158 abs;
#X obj 240 292 expr sqrt($f1*$f1+$f2*$f2);
#X obj 237 420 s tot_speed;
#X obj 238 356 pack f 100;
#X obj 247 393 line;
#X floatatom 200 84 5 0 0 0 - - -, f 5;
#X text 122 0 speed detection \; horizontal (also left right) \; vertical
(up or down);
#X text 113 210 H speed;
#X text 291 232 V speed;
#X connect 0 0 12 0;
#X connect 1 0 4 0;
#X connect 2 0 3 1;
#X connect 3 0 5 0;
#X connect 3 0 9 0;
#X connect 4 0 3 0;
#X connect 4 1 2 1;
#X connect 4 2 2 0;
#X connect 7 0 8 0;
#X connect 8 0 6 0;
#X connect 8 0 18 0;
#X connect 9 0 7 0;
#X connect 10 0 11 1;
#X connect 11 0 13 0;
#X connect 11 0 17 0;
#X connect 12 0 11 0;
#X connect 12 1 10 1;
#X connect 12 2 10 0;
#X connect 15 0 16 0;
#X connect 16 0 14 0;
#X connect 16 0 18 1;
#X connect 17 0 15 0;
#X connect 18 0 20 0;
#X connect 20 0 21 0;
#X connect 21 0 19 0;
#X connect 22 0 7 1;
#X connect 22 0 15 1;
#X restore 34 611 pd det_speed;
#X obj 652 88 r tot_speed;
#X floatatom 652 130 5 0 0 0 - - -, f 5;
#X obj 648 177 sel 1;
#X obj 673 392 random 5;
#X floatatom 702 119 5 0 0 0 - - -, f 5;
#X obj 693 370 bng 15 250 50 0 empty empty empty 17 7 0 10 -262144
-1 -1;
#X obj 665 230 t b b;
#X obj 686 205 bng 15 250 50 0 empty empty empty 17 7 0 10 -262144
-1 -1;
#X obj 655 290 onebang;
#X obj 721 259 delay 2000;
#X obj 651 151 > 3;
#X text 13 9 words change with amount of movement (speed of blob) \;
color cnages on bang inlet;
#X msg 253 85 0.07;
#X floatatom 634 421 5 0 0 0 - - -, f 5;
#X obj 677 426 sel 0 1 2 3 4 5 6 7 8;
#X msg 654 608 text cenas;
#X floatatom 601 42 5 0 0 0 - - -, f 5;
#X obj 584 64 sel 1;
#X obj 672 51 bng 15 250 50 0 empty empty empty 17 7 0 10 -262144 -1
-1;
#X obj 521 55 > 0.5;
#X obj 89 52 r IMG;
#X obj 134 122 spigot;
#X msg 80 181 0;
#X msg 534 487 text code;
#X msg 566 516 text decode;
#X msg 581 544 text tag;
#X msg 596 565 text like;
#X msg 616 586 text emotion;
#X msg 740 600 text cenas;
#X msg 667 536 text tag;
#X msg 682 557 text like;
#X msg 702 578 text emotion;
#X obj 535 21 r audio-corV;
#X connect 0 0 1 0;
#X connect 1 0 2 0;
#X connect 2 0 56 0;
#X connect 2 1 8 0;
#X connect 3 0 1 0;
#X connect 4 0 3 0;
#X connect 4 0 81 0;
#X connect 6 0 5 0;
#X connect 7 0 9 0;
#X connect 8 0 11 0;
#X connect 9 0 10 0;
#X connect 11 0 13 0;
#X connect 12 0 11 1;
#X connect 13 0 14 0;
#X connect 14 1 16 0;
#X connect 14 1 30 0;
#X connect 14 2 17 0;
#X connect 14 2 32 0;
#X connect 15 0 14 1;
#X connect 18 0 40 0;
#X connect 19 0 20 0;
#X connect 20 0 23 0;
#X connect 21 0 20 1;
#X connect 22 0 20 2;
#X connect 23 0 25 0;
#X connect 24 0 23 1;
#X connect 25 0 33 0;
#X connect 26 0 18 0;
#X connect 29 0 27 0;
#X connect 30 0 29 0;
#X connect 31 0 28 0;
#X connect 32 0 31 0;
#X connect 34 0 33 0;
#X connect 35 0 34 0;
#X connect 35 0 21 0;
#X connect 35 0 22 0;
#X connect 35 0 51 0;
#X connect 35 0 49 0;
#X connect 35 0 82 0;
#X connect 36 0 18 0;
#X connect 37 0 36 0;
#X connect 38 0 39 0;
#X connect 39 0 19 0;
#X connect 40 0 38 0;
#X connect 41 0 43 0;
#X connect 42 0 43 1;
#X connect 43 0 39 1;
#X connect 44 0 39 2;
#X connect 45 0 47 0;
#X connect 46 0 47 1;
#X connect 47 0 40 3;
#X connect 48 0 44 0;
#X connect 49 0 15 0;
#X connect 50 0 71 0;
#X connect 51 0 24 0;
#X connect 52 0 26 0;
#X connect 52 0 80 1;
#X connect 53 0 52 0;
#X connect 55 0 20 1;
#X connect 55 1 20 2;
#X connect 56 0 7 0;
#X connect 57 0 56 1;
#X connect 59 0 60 0;
#X connect 60 0 69 0;
#X connect 61 0 65 0;
#X connect 62 0 72 0;
#X connect 62 0 73 0;
#X connect 63 0 69 1;
#X connect 64 0 62 0;
#X connect 65 0 67 0;
#X connect 65 1 68 0;
#X connect 66 0 65 0;
#X connect 67 0 64 0;
#X connect 68 0 67 1;
#X connect 69 0 61 0;
#X connect 71 0 37 0;
#X connect 73 0 82 0;
#X connect 73 1 83 0;
#X connect 73 2 84 0;
#X connect 73 3 85 0;
#X connect 73 4 86 0;
#X connect 73 5 74 0;
#X connect 74 0 33 0;
#X connect 76 0 54 0;
#X connect 76 0 77 0;
#X connect 78 0 76 0;
#X connect 79 0 80 0;
#X connect 80 0 0 0;
#X connect 81 0 52 0;
#X connect 82 0 33 0;
#X connect 83 0 33 0;
#X connect 84 0 33 0;
#X connect 85 0 33 0;
#X connect 86 0 33 0;
#X connect 91 0 78 0;
#X restore 22 462 pd audio-words;
#X obj 330 314 bng 15 250 50 0 empty empty empty 17 7 0 10 -262144
-1 -1;
#X obj 22 440 tgl 15 0 audio2corOn empty empty 17 7 0 10 -262144 -1
-1 0 1;
#X obj 327 246 r audio-vol;
#X obj 327 270 > 1.2;
#X obj 329 292 sel 1;
#N canvas 208 145 871 422 palavras_andantes 0;
#X obj 27 42 tgl 15 0 empty empty empty 17 7 0 10 -262144 -1 -1 0 1
;
#X obj 24 69 s pal_and_ON;
#X obj 51 202 palavra_andante 30 1;
#X obj 30 17 inlet;
#X obj 95 17 loadbang;
#X msg 95 44 0;
#X obj 37 157 bng 15 250 50 0 empty empty empty 17 7 0 10 -262144 -1
-1;
#X obj 48 283 palavra_andante 20 2;
#X obj 171 254 palavra_andante 10 -1;
#X obj 168 335 palavra_andante 13 3;
#X msg 174 313 girls;
#X msg 57 181 boys;
#X msg 54 262 belong;
#X msg 177 233 nowhere;
#X obj 362 19 inlet;
#X symbolatom 363 64 20 0 0 2 write_here - -, f 20;
#X obj 363 100 t s b b b b;
#X obj 362 136 symbol2list;
#X msg 513 205 set text;
#X msg 417 222 bang;
#X msg 412 296 text a bd e tom s k;
#X obj 362 160 drip 550;
#X msg 454 204 add2 \$1;
#X obj 353 222 s word_in;
#X obj 355 193 t b b;
#X obj 386 267 bng 15 250 50 0 empty empty empty 17 7 0 10 -262144
-1 -1;
#X text 473 101 shoots words in sequence (drips them) any 550 or other
time \; set a sel and send the words to each abstraction;
#X connect 0 0 1 0;
#X connect 3 0 0 0;
#X connect 4 0 5 0;
#X connect 4 0 6 0;
#X connect 5 0 0 0;
#X connect 6 0 11 0;
#X connect 6 0 12 0;
#X connect 6 0 13 0;
#X connect 6 0 10 0;
#X connect 10 0 9 0;
#X connect 11 0 2 0;
#X connect 12 0 7 0;
#X connect 13 0 8 0;
#X connect 14 0 15 0;
#X connect 15 0 16 0;
#X connect 16 0 17 0;
#X connect 16 4 18 0;
#X connect 17 0 21 0;
#X connect 18 0 20 0;
#X connect 19 0 20 0;
#X connect 21 0 22 0;
#X connect 21 0 24 0;
#X connect 22 0 20 0;
#X connect 24 0 23 0;
#X connect 24 1 19 0;
#X connect 24 1 25 0;
#X restore 119 223 pd palavras_andantes;
#X obj 120 199 tgl 15 0 empty empty empty 17 7 0 10 -262144 -1 -1 0
1;
#N canvas 173 236 601 384 lines 0;
#X obj 283 30 hsl 128 15 0 1000 0 0 empty empty empty -2 -8 0 10 -262144
-1 -1 1143 1;
#X obj 280 51 s speed;
#X msg 396 302 1 0 0.5;
#X msg 395 249 1 0.8 0.5;
#X msg 389 184 0 0.8 0.5;
#X msg 378 131 0.3 0.2 0.8;
#X obj 15 178 s onOff-0;
#X obj 14 157 tgl 15 0 empty empty empty 17 7 0 10 -262144 -1 -1 0
1;
#X obj 13 205 tgl 15 0 empty empty empty 17 7 0 10 -262144 -1 -1 0
1;
#X obj 15 254 tgl 15 0 empty empty empty 17 7 0 10 -262144 -1 -1 0
1;
#X obj 13 301 tgl 15 0 empty empty empty 17 7 0 10 -262144 -1 -1 0
1;
#X obj 14 226 s onOff-1;
#X obj 16 275 s onOff-2;
#X obj 14 322 s onOff-3;
#X obj 498 192 lineSom 1;
#X obj 496 239 lineSom 2;
#X obj 504 296 lineSom 3;
#X obj 502 156 lineSom 0;
#X obj 356 157 s color-0;
#X obj 283 158 s speed-0;
#X obj 146 208 s angle-1;
#X obj 144 155 s angle-0;
#X obj 285 211 s speed-1;
#X obj 358 210 s color-1;
#X obj 355 275 s color-2;
#X obj 357 328 s color-3;
#X obj 284 329 s speed-3;
#X obj 145 326 s angle-3;
#X obj 143 273 s angle-2;
#X obj 282 276 s speed-2;
#X obj 281 131 r speed;
#X obj 147 131 hsl 100 15 0 360 0 0 empty empty empty -2 -8 0 10 -262144
-1 -1 4800 1;
#X obj 147 184 hsl 100 15 0 360 0 0 empty empty empty -2 -8 0 10 -262144
-1 -1 4400 1;
#X obj 143 248 hsl 100 15 0 360 0 0 empty empty empty -2 -8 0 10 -262144
-1 -1 4600 1;
#X obj 143 300 hsl 100 15 0 360 0 0 empty empty empty -2 -8 0 10 -262144
-1 -1 5000 1;
#X obj 47 48 tgl 15 0 empty empty empty 17 7 0 10 -262144 -1 -1 0 1
;
#X obj 45 21 inlet;
#X obj 46 69 metro 1000;
#X obj 46 93 f;
#X obj 73 93 + 1;
#X obj 42 118 sel 0 15 40 70;
#X msg 9 137 1;
#X msg 58 145 1;
#X msg 86 151 1;
#X msg 102 176 1;
#X obj 6 66 sel 0;
#X msg 7 90 0;
#X floatatom 337 68 5 0 0 0 - - -, f 5;
#X obj 173 24 loadbang;
#X msg 208 48 90;
#X msg 140 26 0;
#X obj 364 110 loadbang;
#X connect 0 0 1 0;
#X connect 0 0 47 0;
#X connect 2 0 25 0;
#X connect 3 0 24 0;
#X connect 4 0 23 0;
#X connect 5 0 18 0;
#X connect 7 0 6 0;
#X connect 8 0 11 0;
#X connect 9 0 12 0;
#X connect 10 0 13 0;
#X connect 30 0 19 0;
#X connect 30 0 22 0;
#X connect 30 0 29 0;
#X connect 30 0 26 0;
#X connect 31 0 21 0;
#X connect 32 0 20 0;
#X connect 33 0 28 0;
#X connect 34 0 27 0;
#X connect 35 0 37 0;
#X connect 35 0 45 0;
#X connect 36 0 35 0;
#X connect 37 0 38 0;
#X connect 38 0 39 0;
#X connect 38 0 40 0;
#X connect 39 0 38 1;
#X connect 40 0 41 0;
#X connect 40 1 42 0;
#X connect 40 2 43 0;
#X connect 40 3 44 0;
#X connect 41 0 7 0;
#X connect 42 0 8 0;
#X connect 43 0 9 0;
#X connect 44 0 10 0;
#X connect 45 0 46 0;
#X connect 46 0 38 1;
#X connect 46 0 7 0;
#X connect 46 0 8 0;
#X connect 46 0 9 0;
#X connect 46 0 10 0;
#X connect 48 0 49 0;
#X connect 48 0 50 0;
#X connect 49 0 0 0;
#X connect 50 0 35 0;
#X connect 51 0 5 0;
#X connect 51 0 4 0;
#X connect 51 0 3 0;
#X connect 51 0 2 0;
#X restore 59 223 pd lines;
#X obj 69 196 tgl 15 0 empty empty empty 17 7 0 10 -262144 -1 -1 0
1;
#N canvas 56 187 617 413 INICIO 1;
#X obj 356 139 tgl 15 0 empty empty empty 17 7 0 10 -262144 -1 -1 0
1;
#X obj 337 234 pix_image;
#X obj 337 261 pix_texture;
#X obj 341 286 rectangle 5.333 4;
#X msg 332 206 open videos_images/girassois.jpg;
#X obj 56 33 tgl 15 0 empty empty empty 17 7 0 10 -262144 -1 -1 0 1
;
#X obj 54 58 gemhead 51;
#X obj 355 159 gemhead;
#X obj 235 169 color;
#X obj 78 80 separator;
#X obj 72 108 separator;
#X obj 156 85 rectangle 4.6 0.5;
#X obj 151 65 translateXYZ -0.6 -2.8 0;
#X obj 143 39 alpha;
#X obj 40 263 color;
#X obj 188 41 color;
#X msg 220 17 0 0 0;
#X msg 55 326 text "O meu olhar é nítido como um girassol" (A.Caeiro)
;
#X obj 37 291 translateXYZ -0.6 -2.7 0;
#X obj 198 138 hsv2rgb;
#X msg 193 114 0 0.8 0.8;
#X obj 263 129 separator;
#X obj 199 288 text2d;
#X msg 172 239 text Hacked Poems;
#X floatatom 242 278 7 0 0 0 - - -, f 7;
#X obj 474 294 line 0 100;
#X floatatom 530 322 5 0 0 0 - - -, f 5;
#X obj 479 348 *;
#X obj 499 320 cos;
#X obj 470 241 delay 5000;
#X obj 103 178 loadbang;
#X obj 53 370 text2d;
#X msg 114 352 33;
#X text 457 64 start;
#X msg 351 113 1;
#X obj 56 7 inlet;
#X obj 400 48 sel 1 0;
#X msg 413 116 0;
#X msg 140 258 font DK-Face-Your-Fears-II.ttf;
#X msg 476 264 0 \, 132 5000;
#X obj 165 214 translateXYZ -0.6 0 0.1;
#X msg 71 236 1 1 1;
#X obj 3 159 s somInicio_inicio;
#X obj 15 88 sel 1 0;
#X obj 17 136 s somInOff;
#X obj 431 77 t b b b;
#X obj 456 117 s somInicio_fim;
#X obj 501 86 bng 15 250 50 0 empty empty empty 17 7 0 10 -262144 -1
-1;
#X text 301 13 shows the incoming title;
#X obj 100 7 r endInicio;
#X msg 100 26 0;
#X obj 413 384 s endInicio;
#X obj 417 334 sel 132;
#X obj 393 360 delay 7000;
#X obj 341 384 outlet end;
#X connect 0 0 7 0;
#X connect 1 0 2 0;
#X connect 2 0 3 0;
#X connect 4 0 1 0;
#X connect 5 0 6 0;
#X connect 5 0 36 0;
#X connect 5 0 43 0;
#X connect 6 0 9 0;
#X connect 6 0 10 0;
#X connect 7 0 1 0;
#X connect 7 0 21 0;
#X connect 8 0 40 0;
#X connect 9 0 13 0;
#X connect 10 0 14 0;
#X connect 12 0 11 0;
#X connect 13 0 15 0;
#X connect 14 0 18 0;
#X connect 15 0 12 0;
#X connect 16 0 15 1;
#X connect 17 0 31 0;
#X connect 18 0 31 0;
#X connect 19 0 8 1;
#X connect 20 0 19 0;
#X connect 21 0 8 0;
#X connect 23 0 22 0;
#X connect 24 0 22 1;
#X connect 25 0 27 0;
#X connect 25 0 28 0;
#X connect 25 0 52 0;
#X connect 27 0 24 0;
#X connect 28 0 26 0;
#X connect 28 0 27 1;
#X connect 29 0 39 0;
#X connect 30 0 16 0;
#X connect 30 0 20 0;
#X connect 30 0 41 0;
#X connect 30 0 23 0;
#X connect 30 0 17 0;
#X connect 30 0 32 0;
#X connect 30 0 4 0;
#X connect 30 0 38 0;
#X connect 32 0 31 1;
#X connect 34 0 0 0;
#X connect 35 0 5 0;
#X connect 36 0 45 0;
#X connect 36 1 37 0;
#X connect 37 0 0 0;
#X connect 37 0 25 0;
#X connect 38 0 22 0;
#X connect 39 0 25 0;
#X connect 40 0 22 0;
#X connect 41 0 14 1;
#X connect 43 0 42 0;
#X connect 43 1 44 0;
#X connect 45 0 29 0;
#X connect 45 1 34 0;
#X connect 45 2 46 0;
#X connect 47 0 46 0;
#X connect 49 0 50 0;
#X connect 50 0 5 0;
#X connect 52 0 53 0;
#X connect 53 0 51 0;
#X connect 53 0 54 0;
#X restore 58 174 pd INICIO;
#X obj 27 154 tgl 15 0 empty empty empty 17 7 0 10 -262144 -1 -1 1
1;
#N canvas 110 61 1093 578 MIGRAR 0;
#X obj 254 447 pix_film;
#X msg 48 238 open videos_images/Refugees.mp4;
#X msg 554 327 open videos_images/MigratoryBirds.mp4;
#X obj 248 59 gemhead;
#X obj 273 388 line 0 100;
#X obj 251 480 pix_texture;
#X obj 247 527 rectangle 5.333 4;
#X floatatom 267 411 5 0 0 0 - - -, f 5;
#X obj 72 91 bng 15 250 50 0 empty empty empty 17 7 0 10 -262144 -1
-1;
#X obj 627 216 t b b;
#X obj 628 196 bng 15 250 50 0 empty empty empty 17 7 0 10 -262144
-1 -1;
#X obj 249 34 tgl 15 0 empty empty empty 17 7 0 10 -262144 -1 -1 0
1;
#X floatatom 27 409 5 0 0 3 length - -, f 5;
#X floatatom 78 407 5 0 0 3 width - -, f 5;
#X floatatom 129 407 5 0 0 3 height - -, f 5;
#X obj 37 370 unpack 0 0 0 0;
#X floatatom 145 371 5 0 0 3 fps - -, f 5;
#X obj 571 383 sel 1177;
#X msg 572 354 0 \, 1177 280000;
#X obj 364 245 pix_image;
#X obj 357 295 pix_texture;
#X obj 411 132 gemhead;
#X msg 355 170 open videos_images/strasbourg.jpg;
#X obj 392 133 tgl 15 0 empty empty empty 17 7 0 10 -262144 -1 -1 0
1;
#X obj 416 194 translateXYZ 0 0 0.1;
#X obj 191 17 inlet;
#X obj 193 42 tgl 15 0 empty empty empty 17 7 0 10 -262144 -1 -1 0
1;
#X obj 193 62 sel 1 0;
#X obj 423 79 t b b;
#X msg 400 106 0;
#X floatatom 312 447 5 0 0 0 - - -, f 5;
#X obj 271 10 loadbang;
#X msg 277 32 0;
#X obj 357 340 rectangle 5.333 4;
#X obj 363 272 pix_bitmask;
#X obj 939 317 vsl 15 100 0 1 0 0 empty empty empty 0 -9 0 10 -262144
-1 -1 0 1;
#X obj 970 310 vsl 15 100 0 1 0 0 empty empty empty 0 -9 0 10 -262144
-1 -1 0 1;
#X obj 1008 312 vsl 15 100 0 1 0 0 empty empty empty 0 -9 0 10 -262144
-1 -1 0 1;
#X obj 960 475 hsv2rgb;
#X obj 957 451 pack f f f;
#X obj 1004 421 t b f;
#X obj 964 421 t b f;
#X obj 944 505 unpack f f f;
#X obj 924 531 * 255;
#X obj 967 531 * 255;
#X obj 1008 531 * 255;
#X obj 863 495 pack f f f;
#X obj 860 528 print;
#X obj 867 451 bng 15 250 50 0 empty empty empty 17 7 0 10 -262144
-1 -1;
#X msg 432 248 45 193 107;
#X obj 432 223 loadbang;
#X obj 392 54 delay 15000;
#X obj 744 42 bng 15 250 50 0 empty empty empty 17 7 0 10 -262144 -1
-1;
#X msg 793 233 vlc ./videos_images/Ponha_pezinho.mp3;
#X obj 796 284 s ext;
#X msg 700 126 mplayer -noborder -geometry 1766:300 -screenw 800 -screenh
600 -nosound -ao jack -slave -input file=/tmp/labio ./videos_images/Ponha_pezinho.mp4
;
#X msg 887 277 killall vlc;
#X obj 880 258 bng 15 250 50 0 empty empty empty 17 7 0 10 -262144
-1 -1;
#X obj 845 69 bng 15 250 50 0 empty empty empty 17 7 0 10 -262144 -1
-1;
#X obj 811 96 s killvid;
#X obj 723 96 delay 50;
#X obj 738 179 delay 100;
#X obj 813 210 t b b;
#X msg 184 89 1;
#X msg 213 89 0;
#X text 633 381 loop;
#X text 361 9 doc refugees 70+150 sec + image 15sec + migratory loop
;
#X obj 180 114 s MigrarOnOff;
#X obj 358 319 spigot;
#X obj 410 318 tgl 15 0 empty empty empty 17 7 0 10 -262144 -1 -1 0
1;
#X obj 438 317 r MigrarOnOff;
#X obj 740 19 inlet startPezinho;
#X obj 869 24 inlet stopPezinho;
#X obj 458 409 spigot;
#X obj 489 387 tgl 15 0 empty empty empty 17 7 0 10 -262144 -1 -1 0
1;
#X obj 873 71 delay 100;
#X obj 861 46 t b b;
#X obj 374 449 r MigrarOnOff;
#X obj 387 469 == 0;
#X msg 388 489 0;
#X msg 107 265 0 \, 5270 70000;
#X obj 167 135 delay 70000;
#X msg 357 134 1;
#X obj 290 96 bng 15 250 50 0 empty empty empty 17 7 0 10 -262144 -1
-1;
#X msg 293 228 0;
#X obj 292 206 delay 10;
#X obj 739 65 t b b b b;
#X msg 656 37 0;
#X obj 255 163 s somStrasburg;
#X obj 287 117 t b b b b;
#X obj 125 204 s somDF;
#X obj 71 111 t b b b b;
#X msg 118 163 1;
#X msg 165 168 0;
#X connect 0 0 5 0;
#X connect 1 0 0 0;
#X connect 2 0 0 0;
#X connect 3 0 0 0;
#X connect 4 0 0 1;
#X connect 4 0 7 0;
#X connect 4 0 73 0;
#X connect 5 0 6 0;
#X connect 8 0 91 0;
#X connect 9 0 18 0;
#X connect 9 1 2 0;
#X connect 10 0 9 0;
#X connect 11 0 3 0;
#X connect 15 0 12 0;
#X connect 15 1 13 0;
#X connect 15 2 14 0;
#X connect 15 3 16 0;
#X connect 17 0 18 0;
#X connect 18 0 4 0;
#X connect 19 0 34 0;
#X connect 20 0 68 0;
#X connect 21 0 24 0;
#X connect 22 0 19 0;
#X connect 23 0 21 0;
#X connect 24 0 19 0;
#X connect 25 0 26 0;
#X connect 26 0 27 0;
#X connect 26 0 11 0;
#X connect 27 0 8 0;
#X connect 27 0 63 0;
#X connect 27 1 29 0;
#X connect 27 1 64 0;
#X connect 28 0 29 0;
#X connect 28 1 10 0;
#X connect 29 0 23 0;
#X connect 30 0 0 1;
#X connect 31 0 32 0;
#X connect 32 0 27 0;
#X connect 32 0 11 0;
#X connect 34 0 20 0;
#X connect 35 0 39 0;
#X connect 36 0 41 0;
#X connect 37 0 40 0;
#X connect 38 0 42 0;
#X connect 39 0 38 0;
#X connect 40 0 39 0;
#X connect 40 1 39 2;
#X connect 41 0 39 0;
#X connect 41 1 39 1;
#X connect 42 0 43 0;
#X connect 42 1 44 0;
#X connect 42 2 45 0;
#X connect 43 0 46 0;
#X connect 44 0 46 1;
#X connect 45 0 46 2;
#X connect 46 0 47 0;
#X connect 48 0 46 0;
#X connect 49 0 34 2;
#X connect 50 0 49 0;
#X connect 50 0 22 0;
#X connect 51 0 28 0;
#X connect 52 0 86 0;
#X connect 53 0 54 0;
#X connect 55 0 54 0;
#X connect 56 0 54 0;
#X connect 57 0 56 0;
#X connect 58 0 59 0;
#X connect 60 0 55 0;
#X connect 61 0 62 0;
#X connect 62 0 53 0;
#X connect 62 1 57 0;
#X connect 63 0 67 0;
#X connect 64 0 67 0;
#X connect 68 0 33 0;
#X connect 69 0 68 1;
#X connect 70 0 69 0;
#X connect 70 0 74 0;
#X connect 71 0 52 0;
#X connect 72 0 76 0;
#X connect 73 0 17 0;
#X connect 74 0 73 1;
#X connect 75 0 57 0;
#X connect 76 0 58 0;
#X connect 76 1 75 0;
#X connect 77 0 78 0;
#X connect 78 0 79 0;
#X connect 80 0 4 0;
#X connect 81 0 89 0;
#X connect 81 0 93 0;
#X connect 82 0 23 0;
#X connect 83 0 89 0;
#X connect 84 0 4 0;
#X connect 85 0 84 0;
#X connect 86 0 61 0;
#X connect 86 1 60 0;
#X connect 86 2 59 0;
#X connect 86 3 87 0;
#X connect 87 0 11 0;
#X connect 89 0 88 0;
#X connect 89 1 51 0;
#X connect 89 2 85 0;
#X connect 89 3 82 0;
#X connect 91 0 81 0;
#X connect 91 1 80 0;
#X connect 91 2 1 0;
#X connect 91 3 92 0;
#X connect 92 0 90 0;
#X connect 93 0 90 0;
#X restore 23 347 pd MIGRAR;
#X text 308 173 inicio \; lines Joana \; Migrar \;;
#X obj 23 287 tgl 15 0 empty empty empty 17 7 0 10 -262144 -1 -1 0
1;
#N canvas 488 126 757 416 Mauro 0;
#X obj 358 236 s ext;
#X obj 416 106 bng 15 250 50 0 empty empty empty 17 7 0 10 -262144
-1 -1;
#X obj 419 136 s killvid;
#X msg 358 162 mplayer -noborder -geometry 1366:300 -screenw 800 -screenh
600 -ao jack -slave -input file=/tmp/labio ./videos_images/pimbas_Mauro.mp4
;
#X obj 359 47 inlet;
#X obj 360 77 sel 1 0;
#X obj 78 91 gemhead;
#X obj 61 204 pix_image;
#X obj 78 237 pix_texture;
#X obj 90 279 rectangle 5.333 4;
#X obj 92 140 translateXYZ;
#X obj 51 41 loadbang;
#X msg 51 62 0;
#X msg 116 170 open ./videos_images/cao_de_palha.jpg;
#X obj 173 28 inlet;
#X obj 167 50 tgl 15 0 empty empty empty 17 7 0 10 -262144 -1 -1 0
1;
#X connect 1 0 2 0;
#X connect 3 0 0 0;
#X connect 4 0 5 0;
#X connect 4 0 6 0;
#X connect 5 0 3 0;
#X connect 5 1 1 0;
#X connect 6 0 10 0;
#X connect 7 0 8 0;
#X connect 8 0 9 0;
#X connect 10 0 7 0;
#X connect 11 0 12 0;
#X connect 12 0 6 0;
#X connect 13 0 7 0;
#X connect 14 0 15 0;
#X connect 15 0 6 0;
#X restore 21 406 pd Mauro;
#N canvas 215 138 667 486 belfiesEtc 0;
#X obj 44 14 inlet;
#X obj 41 143 tgl 15 0 empty empty empty 17 7 0 10 -262144 -1 -1 0
1;
#X obj 42 172 gemhead;
#X obj 113 318 pix_image;
#X obj 123 357 pix_texture;
#X obj 127 404 rectangle 5.333 4;
#X obj 61 235 translateXYZ;
#X obj 159 287 prepend open;
#X msg 172 169 videos_images/kim1.jpg;
#X msg 203 195 videos_images/migrar2.jpg;
#X obj 84 202 r Xpos;
#X obj 127 201 r Ypos;
#X obj 179 380 r Xsize;
#X obj 231 381 r Ysize;
#X obj 222 126 sel 0 1 2 3 4 5 6 7 8 9 10;
#X msg 242 221 videos_images/mira.jpg;
#X msg 273 247 videos_images/muro.jpg;
#X obj 205 41 random 11;
#X msg 292 271 videos_images/net_cloud.jpg;
#X msg 475 273 videos_images/net_cloud.jpg;
#X msg 355 171 videos_images/elefant_belfie.jpg;
#X msg 386 197 videos_images/bosh2.jpg;
#X msg 425 223 videos_images/crowd_aargh.jpg;
#X msg 456 250 videos_images/belfie-gang.jpg;
#X msg 434 297 videos_images/net_world.jpg;
#X obj 137 31 bng 15 250 50 0 empty empty empty 17 7 0 10 -262144 -1
-1;
#X msg 134 95 1;
#X obj 136 55 t b b b;
#X msg 100 95 0;
#X obj 101 75 delay 500;
#X obj 171 3 tgl 15 0 empty empty empty 17 7 0 10 -262144 -1 -1 0 1
;
#X obj 193 18 metro 3000;
#X obj 46 47 tgl 15 0 empty empty empty 17 7 0 10 -262144 -1 -1 0 1
;
#X obj 92 135 loadbang;
#X msg 106 160 0;
#X floatatom 280 80 5 0 0 0 - - -, f 5;
#X connect 0 0 32 0;
#X connect 1 0 2 0;
#X connect 2 0 6 0;
#X connect 3 0 4 0;
#X connect 4 0 5 0;
#X connect 6 0 3 0;
#X connect 7 0 3 0;
#X connect 8 0 7 0;
#X connect 9 0 7 0;
#X connect 10 0 6 1;
#X connect 11 0 6 2;
#X connect 12 0 5 1;
#X connect 13 0 5 2;
#X connect 14 0 8 0;
#X connect 14 1 9 0;
#X connect 14 2 15 0;
#X connect 14 3 16 0;
#X connect 14 4 18 0;
#X connect 14 5 20 0;
#X connect 14 6 21 0;
#X connect 14 7 22 0;
#X connect 14 8 23 0;
#X connect 14 9 19 0;
#X connect 14 10 24 0;
#X connect 15 0 7 0;
#X connect 16 0 7 0;
#X connect 17 0 14 0;
#X connect 17 0 35 0;
#X connect 18 0 7 0;
#X connect 19 0 7 0;
#X connect 20 0 7 0;
#X connect 21 0 7 0;
#X connect 22 0 7 0;
#X connect 23 0 7 0;
#X connect 24 0 7 0;
#X connect 25 0 27 0;
#X connect 26 0 1 0;
#X connect 27 0 29 0;
#X connect 27 1 26 0;
#X connect 27 2 17 0;
#X connect 28 0 1 0;
#X connect 29 0 28 0;
#X connect 30 0 31 0;
#X connect 31 0 25 0;
#X connect 32 0 1 0;
#X connect 32 0 30 0;
#X connect 33 0 34 0;
#X connect 34 0 1 0;
#X restore 132 461 pd belfiesEtc;
#X obj 132 439 tgl 15 0 empty empty empty 17 7 0 10 -262144 -1 -1 0
1;
#X obj 58 286 bng 50 250 50 0 empty empty on 17 7 0 10 -4034 -1 -1
;
#X obj 118 286 bng 50 250 50 0 empty empty off 17 7 0 10 -258113 -1
-1;
#X obj 132 175 delay 20000;
#X text 90 307 pezinho;
#X obj 15 182 sel 0;
#X msg 18 202 0;
#X obj 21 384 tgl 15 0 empty empty empty 17 7 0 10 -262144 -1 -1 0
1;
#X obj 5 13 cnv 15 400 130 empty empty empty 20 12 0 14 -233017 -66577
0;
#X obj 28 114 gemwin;
#X msg 46 74 destroy;
#N canvas 313 207 833 501 COMUNICATIONS-V 0;
#X obj 128 273 netsend;
#X msg 17 31 connect localhost 8000;
#X obj 295 201 prepend send;
#X obj 323 142 r JW;
#X msg 301 171 JW \$1;
#X obj 123 297 tgl 15 0 empty empty empty 17 7 0 10 -262144 -1 -1 1
1;
#X obj 121 320 outlet;
#X obj 16 6 inlet;
#X obj 465 44 netreceive 8001;
#X obj 609 67 outlet;
#X obj 497 212 route COR TAMANHO;
#X obj 483 263 s Bl-COR;
#X obj 560 263 s Bl-TAMANHO;
#X obj 507 156 route Cor;
#X obj 508 182 s Life-Cor;
#X msg 298 226 disconnect;
#X obj 577 187 s Explosion;
#N canvas 50 73 450 300 nuAir_sendStuff 0;
#X obj -18 -100 r CHNG1;
#X obj 66 -94 r CHNG2;
#X obj 202 -92 r CHNG3;
#X obj 324 7 r CHNG6;
#X obj 226 13 r CHNG5;
#X obj 325 -101 r CHNG4;
#X obj 146 112 r CHNG7;
#X obj 248 111 r CHNG8;
#X obj 355 111 r CHNG9;
#X obj 82 59 prepend send;
#X msg 127 191 nuAir \$1 CHNG7;
#X msg 228 202 nuAir \$1 CHNG8;
#X msg 324 202 nuAir \$1 CHNG9;
#X msg 310 56 nuAir \$1 CHNG6;
#X msg 214 65 nuAir \$1 CHNG5;
#X msg 307 -33 nuAir \$1 CHNG4;
#X msg 184 -38 nuAir \$1 CHNG3;
#X msg 74 -22 nuAir \$1 CHNG2;
#X msg -29 -26 nuAir \$1 CHNG1;
#X obj -25 -73 change;
#X obj 53 -65 change;
#X obj 187 -69 change;
#X obj 305 -61 change;
#X obj 233 36 change;
#X obj 317 30 change;
#X obj 140 152 change;
#X obj 227 161 change;
#X obj 343 158 change;
#X obj 95 237 outlet;
#X connect 0 0 19 0;
#X connect 1 0 20 0;
#X connect 2 0 21 0;
#X connect 3 0 24 0;
#X connect 4 0 23 0;
#X connect 5 0 22 0;
#X connect 6 0 25 0;
#X connect 7 0 26 0;
#X connect 8 0 27 0;
#X connect 9 0 28 0;
#X connect 10 0 9 0;
#X connect 11 0 9 0;
#X connect 12 0 9 0;
#X connect 13 0 9 0;
#X connect 14 0 9 0;
#X connect 15 0 9 0;
#X connect 16 0 9 0;
#X connect 17 0 9 0;
#X connect 18 0 9 0;
#X connect 19 0 18 0;
#X connect 20 0 17 0;
#X connect 21 0 16 0;
#X connect 22 0 15 0;
#X connect 23 0 14 0;
#X connect 24 0 13 0;
#X connect 25 0 10 0;
#X connect 26 0 11 0;
#X connect 27 0 12 0;
#X restore 291 108 pd nuAir_sendStuff;
#X obj 109 107 r somInicio_inicio;
#X msg 109 133 send somInicio_inicio bang;
#X obj 124 159 r somInicio_fim;
#X msg 124 185 send somInicio_fim bang;
#X obj 217 268 r MigrarOnOff;
#X msg 217 293 send MigrarOnOff \$1;
#X obj 262 319 r somStrasburg;
#X msg 234 347 send somStrasburg bang;
#X obj 230 376 r audio2corOn;
#X msg 233 401 send audio2corOn \$1;
#X obj 685 232 s audio-corH;
#X obj 464 116 route Bolinhas Life Explosion audio-corH audio-corS
audio-corV;
#X obj 705 203 s audio-corS;
#X obj 730 176 s audio-corV;
#X msg 80 76 disconnect;
#X obj 235 14 inlet;
#X obj 211 428 r somDF;
#X msg 210 451 send somDF \$1;
#X obj 148 203 r InicioOff;
#X msg 139 225 send InicioOff bang;
#X connect 0 0 5 0;
#X connect 1 0 0 0;
#X connect 2 0 0 0;
#X connect 3 0 4 0;
#X connect 4 0 2 0;
#X connect 5 0 6 0;
#X connect 7 0 1 0;
#X connect 8 0 29 0;
#X connect 10 0 11 0;
#X connect 10 1 12 0;
#X connect 13 0 14 0;
#X connect 15 0 0 0;
#X connect 17 0 0 0;
#X connect 18 0 19 0;
#X connect 19 0 0 0;
#X connect 20 0 21 0;
#X connect 21 0 0 0;
#X connect 22 0 23 0;
#X connect 23 0 0 0;
#X connect 24 0 25 0;
#X connect 25 0 0 0;
#X connect 26 0 27 0;
#X connect 27 0 0 0;
#X connect 29 0 10 0;
#X connect 29 1 13 0;
#X connect 29 2 16 0;
#X connect 29 3 28 0;
#X connect 29 4 30 0;
#X connect 29 5 31 0;
#X connect 32 0 0 0;
#X connect 33 0 32 0;
#X connect 34 0 35 0;
#X connect 35 0 0 0;
#X connect 36 0 37 0;
#X connect 37 0 0 0;
#X restore 243 97 pd COMUNICATIONS-V;
#X obj 243 119 tgl 15 0 empty empty empty 17 7 0 10 -262144 -1 -1 1
1;
#X obj 123 46 gemhead;
#X obj 123 73 world_light;
#X floatatom 348 121 5 0 0 0 - - -, f 5;
#X msg 13 19 reset \, dimen 1024 768 \, FSAA 8 \, lighting 1 \, create
\, 1;
#X obj 244 67 bng 15 250 50 0 empty empty empty 17 7 0 10 -262144 -1
-1;
#X msg 38 52 create \, 1;
#X obj 121 99 hradio 15 1 0 4 empty empty empty 0 -8 0 10 -262144 -1
-1 0;
#X text 363 68 discon;
#X obj 345 69 bng 15 250 50 0 empty empty empty 17 7 0 10 -262144 -1
-1;
#N canvas 477 221 487 387 VideoIn 0;
#X obj 74 169 pix_video;
#X obj 75 48 gemhead;
#X obj 198 308 s IMG;
#X text 222 36 general input from video stream;
#X msg 106 136 device \$1;
#X obj 188 57 hradio 15 1 0 4 empty empty empty 0 -8 0 10 -262144 -1
-1 0;
#X obj 187 27 inlet;
#X obj 245 200 kinect;
#X obj 195 84 sel 0 1 2 3 4;
#X obj 78 223 spigot;
#X obj 129 224 tgl 15 0 empty empty empty 17 7 0 10 -262144 -1 -1 1
1;
#X obj 281 137 t b b;
#X msg 280 161 1;
#X msg 216 141 0;
#X msg 183 139 1;
#X msg 299 204 0;
#X obj 75 19 tgl 15 0 empty empty empty 17 7 0 10 -262144 -1 -1 0 1
;
#X obj 178 112 t b b;
#X connect 0 0 9 0;
#X connect 1 0 0 0;
#X connect 4 0 0 0;
#X connect 5 0 8 0;
#X connect 5 0 4 0;
#X connect 6 0 5 0;
#X connect 7 0 2 0;
#X connect 8 0 17 0;
#X connect 8 1 17 0;
#X connect 8 2 11 0;
#X connect 9 0 2 0;
#X connect 10 0 9 1;
#X connect 11 0 12 0;
#X connect 11 1 15 0;
#X connect 12 0 7 0;
#X connect 13 0 7 0;
#X connect 14 0 10 0;
#X connect 15 0 10 0;
#X connect 16 0 1 0;
#X connect 17 0 13 0;
#X connect 17 1 14 0;
#X restore 119 118 pd VideoIn;
#X obj 6 549 cnv 15 400 130 empty empty extras 20 12 0 14 -233017 -66577
0;
#X obj 27 644 Bolinhas-V;
#X obj 27 625 tgl 15 0 empty empty empty 17 7 0 10 -262144 -1 -1 0
1;
#X obj 133 647 nuAir-V;
#X obj 133 625 tgl 15 0 empty empty empty 17 7 0 10 -262144 -1 -1 0
1;
#X obj 132 581 r Explosion;
#X obj 132 601 bng 15 250 50 0 empty empty empty 17 7 0 10 -262144
-1 -1;
#X obj 154 624 spigot;
#X obj 165 604 tgl 15 0 empty empty empty 17 7 0 10 -262144 -1 -1 0
1;
#X obj 26 585 r Explosion;
#X obj 26 605 bng 15 250 50 0 empty empty empty 17 7 0 10 -262144 -1
-1;
#X obj 50 623 spigot;
#X obj 77 604 tgl 15 0 empty empty empty 17 7 0 10 -262144 -1 -1 0
1;
#N canvas 406 156 905 541 videos_ext 0;
#X obj 161 421 shell;
#X msg 25 339 ./pause.sh;
#X msg 24 422 killall mplayer;
#X obj 25 311 r pause;
#X obj 24 395 r killvid;
#X obj 405 172 bng 15 250 50 0 empty empty empty 17 7 0 10 -262144
-1 -1;
#X obj 400 195 t b b;
#X obj 449 195 bng 15 250 50 0 empty empty empty 17 7 0 10 -262144
-1 -1;
#X obj 435 216 s killvid;
#X obj 344 217 delay 100;
#X msg 61 474 sudo killall;
#X obj 393 295 bng 15 250 50 0 empty empty empty 17 7 0 10 -262144
-1 -1;
#X obj 388 318 t b b;
#X obj 423 339 s killvid;
#X obj 332 340 delay 100;
#X obj 643 71 bng 15 250 50 0 empty empty empty 17 7 0 10 -262144 -1
-1;
#X obj 629 92 s killvid;
#X obj 178 20 inlet choose_cmd;
#X obj 625 41 inlet killvid;
#X msg 677 495 pd-extended -nrt paintLetters.pd;
#X obj 748 474 bng 15 250 50 0 empty empty empty 17 7 0 10 -262144
-1 -1;
#X obj 745 40 inlet start paintL;
#X obj 91 51 bng 15 250 50 0 empty empty empty 17 7 0 10 -262144 -1
-1;
#X obj 86 74 t b b;
#X obj 135 74 bng 15 250 50 0 empty empty empty 17 7 0 10 -262144 -1
-1;
#X obj 121 95 s killvid;
#X obj 33 99 delay 100;
#X obj 179 45 sel 0 1 2 3;
#X obj 634 415 bng 15 250 50 0 empty empty empty 17 7 0 10 -262144
-1 -1;
#X obj 597 415 t b b;
#X obj 611 437 s killvid;
#X obj 535 436 delay 100;
#X msg 324 465 mplayer -noborder -geometry 1366:100 -screenw 800 -screenh
600 -ao jack -slave -input file=/tmp/labio ./Pica_Mick.mp4;
#X msg 292 362 mplayer -noborder -geometry 1366:100 -screenw 800 -screenh
600 -slave -input file=/tmp/labio ./LiteraturaOstentao_DanielMinchoni.mp4
;
#X msg 300 241 mplayer -noborder -geometry 1366:100 -screenw 800 -screenh
600 -ao jack -slave -input file=/tmp/labio ./FRAMES_GAIANOIZ.mp4;
#X msg 22 138 mplayer -noborder -geometry 1366:100 -screenw 800 -screenh
600 -ao jack -slave -input file=/tmp/labio ./LOUIS_Cabaret.mp4;
#X msg 419 107 mplayer -noborder -geometry 1366:100 -screenw 800 -screenh
600 -ao jack -slave -input file=/tmp/labio ./videos_imagens/Ponha_pezinho.mp4
;
#X obj 151 322 r ext;
#X connect 1 0 0 0;
#X connect 2 0 0 0;
#X connect 3 0 1 0;
#X connect 4 0 2 0;
#X connect 5 0 6 0;
#X connect 6 0 9 0;
#X connect 6 1 8 0;
#X connect 7 0 8 0;
#X connect 9 0 34 0;
#X connect 10 0 0 0;
#X connect 11 0 12 0;
#X connect 12 0 14 0;
#X connect 12 1 13 0;
#X connect 14 0 33 0;
#X connect 15 0 16 0;
#X connect 17 0 27 0;
#X connect 18 0 16 0;
#X connect 19 0 0 0;
#X connect 20 0 19 0;
#X connect 21 0 20 0;
#X connect 22 0 23 0;
#X connect 23 0 26 0;
#X connect 23 1 25 0;
#X connect 24 0 25 0;
#X connect 26 0 35 0;
#X connect 27 0 23 0;
#X connect 27 1 6 0;
#X connect 27 2 12 0;
#X connect 27 3 29 0;
#X connect 28 0 29 0;
#X connect 29 0 31 0;
#X connect 29 1 30 0;
#X connect 31 0 32 0;
#X connect 32 0 0 0;
#X connect 33 0 0 0;
#X connect 34 0 0 0;
#X connect 35 0 0 0;
#X connect 37 0 0 0;
#X restore 292 579 pd videos_ext;
#X obj 229 646 Life-V;
#X obj 210 646 tgl 15 0 empty empty empty 17 7 0 10 -262144 -1 -1 0
1;
#X obj 210 582 r Explosion;
#X obj 210 602 bng 15 250 50 0 empty empty empty 17 7 0 10 -262144
-1 -1;
#X obj 210 624 spigot;
#X obj 243 605 tgl 15 0 empty empty empty 17 7 0 10 -262144 -1 -1 0
1;
#X connect 2 0 0 0;
#X connect 3 0 4 0;
#X connect 4 0 5 0;
#X connect 5 0 1 0;
#X connect 7 0 6 0;
#X connect 9 0 8 0;
#X connect 10 0 9 0;
#X connect 10 0 20 0;
#X connect 11 0 10 0;
#X connect 11 0 22 0;
#X connect 14 0 12 0;
#X connect 17 0 16 0;
#X connect 18 0 12 1;
#X connect 19 0 12 2;
#X connect 20 0 7 0;
#X connect 22 0 23 0;
#X connect 23 0 9 0;
#X connect 23 0 7 0;
#X connect 24 0 15 1;
#X connect 27 0 26 0;
#X connect 28 0 29 0;
#X connect 28 1 32 0;
#X connect 30 0 31 0;
#X connect 33 0 26 0;
#X connect 34 0 28 0;
#X connect 35 0 26 0;
#X connect 36 0 39 0;
#X connect 38 0 28 1;
#X connect 42 0 41 0;
#X connect 44 0 43 0;
#X connect 45 0 46 0;
#X connect 46 0 47 0;
#X connect 47 0 44 0;
#X connect 48 0 47 1;
#X connect 49 0 50 0;
#X connect 50 0 51 0;
#X connect 51 0 42 0;
#X connect 52 0 51 1;
#X connect 55 0 54 0;
#X connect 56 0 57 0;
#X connect 57 0 58 0;
#X connect 58 0 55 0;
#X connect 59 0 58 1;
