#N canvas 460 86 464 681 10;
#X obj 357 33 tgl 15 0 empty empty empty 17 7 0 10 -262144 -1 -1 1
1;
#X msg 357 55 \; pd dsp \$1;
#X floatatom 24 50 5 0 0 0 - - -, f 5;
#N canvas 200 135 945 594 COMUNICATIONS-A 0;
#X obj 39 26 netreceive 8000;
#X obj 9 204 s JW-Audio-Play;
#X obj 15 149 sel 0 1;
#X msg 10 172 stop;
#X obj 125 62 outlet;
#X obj 407 455 netsend;
#X obj 408 503 outlet;
#X msg 408 67 connect localhost 8001;
#X obj 408 24 inlet;
#X obj 499 338 r Bl-Cor;
#X obj 550 423 prepend send;
#X obj 594 316 r Bl-Tamanho;
#X msg 509 380 Bolinhas COR \$1;
#X msg 625 379 Bolinhas TAMANHO \$1;
#X obj 805 336 r Life-cor;
#X msg 440 178 disconnect;
#X msg 774 392 Life Cor \$1 \$2 \$3;
#X obj 113 207 s;
#X obj 86 153 unpack f s;
#X obj 747 285 r trig;
#X msg 747 312 Explosion bang;
#X obj 543 107 r audio-cor;
#X msg 677 110 1 0 1;
#X obj 753 103 r audio-vol;
#X msg 547 138 send audio-cor \$1;
#X msg 753 132 send audio-vol \$1;
#X floatatom 610 190 5 0 0 0 - - -, f 5;
#X obj 168 155 s somInicio_fim;
#X obj 165 132 s somInicio_inicio;
#X obj 242 180 s MigrarSom;
#X obj 304 134 s audio2corOn;
#X obj 280 154 s somStrasburg;
#X obj 220 261 r audio-corH;
#X obj 253 314 r audio-corS;
#X obj 271 360 r audio-corV;
#X msg 221 288 send audio-corH \$1;
#X msg 254 339 send audio-corS \$1;
#X msg 272 386 send audio-corV \$1;
#X obj 583 45 inlet;
#X obj 331 181 s somDF;
#X obj 24 88 route JW Bolinhas nuAir somInicio_inicio somInicio_fim
InicioOff MigrarOnOff somStrasburg audio2corOn somDF;
#X obj 169 180 s InicioOff;
#X connect 0 0 40 0;
#X connect 0 1 4 0;
#X connect 2 0 3 0;
#X connect 2 1 1 0;
#X connect 3 0 1 0;
#X connect 5 0 6 0;
#X connect 7 0 5 0;
#X connect 8 0 7 0;
#X connect 9 0 12 0;
#X connect 10 0 5 0;
#X connect 11 0 13 0;
#X connect 12 0 10 0;
#X connect 13 0 10 0;
#X connect 14 0 16 0;
#X connect 15 0 5 0;
#X connect 16 0 10 0;
#X connect 18 0 17 0;
#X connect 18 1 17 1;
#X connect 19 0 20 0;
#X connect 20 0 10 0;
#X connect 21 0 24 0;
#X connect 21 0 26 0;
#X connect 22 0 24 0;
#X connect 23 0 25 0;
#X connect 24 0 5 0;
#X connect 25 0 5 0;
#X connect 32 0 35 0;
#X connect 33 0 36 0;
#X connect 34 0 37 0;
#X connect 35 0 5 0;
#X connect 36 0 5 0;
#X connect 37 0 5 0;
#X connect 38 0 15 0;
#X connect 40 0 2 0;
#X connect 40 2 18 0;
#X connect 40 3 28 0;
#X connect 40 4 27 0;
#X connect 40 5 41 0;
#X connect 40 6 29 0;
#X connect 40 7 31 0;
#X connect 40 8 30 0;
#X connect 40 9 39 0;
#X restore 26 29 pd COMUNICATIONS-A;
#X obj 117 57 tgl 15 0 empty empty empty 17 7 0 10 -262144 -1 -1 1
1;
#X obj 27 3 bng 15 250 50 0 empty empty empty 17 7 0 10 -262144 -1
-1;
#X obj 351 615 tgl 15 0 empty empty empty 17 7 0 10 -262144 -1 -1 0
1;
#X obj 219 351 Explosion-A;
#X obj 184 235 bng 100 250 50 0 empty empty empty 17 7 0 10 -260097
-1 -1;
#X obj 357 9 loadbang;
#X obj 56 653 Bolinhas-A;
#X obj 56 632 tgl 15 0 empty empty empty 17 7 0 10 -262144 -1 -1 0
1;
#X obj 218 656 nuAir-A;
#X obj 218 630 tgl 15 0 empty empty empty 17 7 0 10 -262144 -1 -1 0
1;
#X obj 351 640 Life-A;
#X obj 31 282 audio2cor;
#X obj 33 264 tgl 15 0 empty empty empty 17 7 0 10 -262144 -1 -1 0
1;
#N canvas 168 98 679 669 frsb2synth 0;
#X obj 46 123 s~ micIn;
#X obj 192 393 r~ micIn;
#X obj 390 31 r~ micIn;
#X obj 391 54 fiddle~;
#X obj 402 83 bng 15 250 50 0 empty empty empty 17 7 0 10 -262144 -1
-1;
#X floatatom 481 79 5 0 0 0 - - -, f 5;
#X obj 325 107 mtof;
#X obj 298 590 *~;
#X obj 343 551 vsl 20 60 0 1 0 0 empty Vol-r empty 0 -9 0 10 -262144
-1 -1 1770 1;
#X obj 194 501 *~;
#X obj 220 193 phasor~;
#X floatatom 219 160 5 0 0 0 - - -, f 5;
#X obj 573 28 vsl 30 80 0 300 0 0 att att-r att 0 -9 0 10 -262144 -1
-1 1053 1;
#X obj 472 246 vsl 15 128 0 127 0 0 empty empty empty 0 -9 0 10 -262144
-1 -1 0 1;
#X obj 424 380 mtof;
#X obj 142 452 vsl 20 60 0 1 0 0 empty vol_micIn-r empty 0 -9 0 10
-262144 -1 -1 295 1;
#X obj 383 489 *~;
#X obj 504 244 vsl 15 128 0 4 0 0 empty empty empty 0 -9 0 10 -262144
-1 -1 11112 1;
#X floatatom 518 381 5 0 0 0 - - -, f 5;
#X floatatom 430 307 5 0 0 0 - - -, f 5;
#X obj 302 549 +~;
#X obj 459 165 pack f f;
#X obj 422 224 line;
#X obj 455 134 f;
#X obj 404 134 r att;
#X obj 632 31 vsl 30 80 0 1000 0 0 dec dec-r dec 0 -9 0 10 -262144
-1 -1 5925 1;
#X obj 418 170 r dec;
#X obj 459 53 s amp;
#X obj 585 463 r dec;
#X obj 397 108 t b b b;
#X obj 508 137 s hit;
#X obj 508 114 bng 15 250 50 0 empty empty empty 17 7 0 10 -262144
-1 -1;
#X floatatom 583 509 5 0 0 0 - - -, f 5;
#X floatatom 585 131 5 0 0 0 - - -, f 5;
#X obj 476 403 t b b;
#X obj 376 193 pack 1 f;
#X obj 359 157 del 1000;
#X floatatom 644 129 5 0 0 0 - - -, f 5;
#X obj 461 427 del 1000;
#X obj 574 234 - 30;
#X obj 542 261 f;
#X obj 577 260 / 90;
#X obj 536 227 r hit;
#X obj 231 523 hip~ 500;
#X floatatom 266 482 5 0 0 0 - - -, f 5;
#X obj 269 227 phasor~;
#X obj 263 275 +~;
#X obj 574 205 r amp;
#X obj 283 323 *~;
#X obj 341 266 expr~ $v1 > 0.5;
#X obj 328 238 phasor~;
#X obj 542 289 s ampOnHit;
#X obj 214 124 r ampOnHit;
#X obj 37 185 loadbang;
#X obj 504 205 r bp2;
#X obj 481 478 lop~ 3;
#X obj 290 374 moog~;
#X obj 351 371 sig~;
#X obj 353 338 sig~;
#X msg 466 452 0;
#X msg 515 449 1;
#X obj 376 527 *~;
#X obj 424 510 vsl 20 60 0 1 0 0 empty vol_synth-r empty 0 -9 0 10
-262144 -1 -1 4720 1;
#X obj 280 186 * 0.49;
#X floatatom 397 323 5 0 0 0 - - -, f 5;
#X text 525 315 verificar os valores de bp2;
#X msg 37 212 \; vol_micIn-r 0.05 \; vol_synth-r 0.8 \; att-r 40 \;
dec-r 750 \; bp2 3.5 \; Vol-r 0.3 \;;
#X obj 182 65 switch~;
#X obj 204 35 tgl 15 0 empty empty empty 17 7 0 10 -262144 -1 -1 0
1;
#X obj 159 34 inlet;
#X obj 36 27 adc~;
#X obj 66 103 r~ audioIn-R;
#X obj 20 81 r~ audioIn-L;
#X obj 221 620 throw~ audioOut-R;
#X obj 339 623 throw~ audioOut-L;
#X connect 1 0 9 0;
#X connect 2 0 3 0;
#X connect 3 0 6 0;
#X connect 3 1 4 0;
#X connect 3 3 5 0;
#X connect 3 3 27 0;
#X connect 3 3 23 1;
#X connect 4 0 29 0;
#X connect 6 0 50 0;
#X connect 7 0 73 0;
#X connect 7 0 74 0;
#X connect 8 0 7 1;
#X connect 9 0 43 0;
#X connect 10 0 46 0;
#X connect 11 0 10 0;
#X connect 11 0 63 0;
#X connect 12 0 33 0;
#X connect 13 0 14 0;
#X connect 13 0 19 0;
#X connect 13 0 34 0;
#X connect 14 0 57 0;
#X connect 15 0 9 1;
#X connect 16 0 61 0;
#X connect 17 0 18 0;
#X connect 17 0 58 0;
#X connect 20 0 7 0;
#X connect 21 0 22 0;
#X connect 22 0 13 0;
#X connect 23 0 21 0;
#X connect 24 0 21 1;
#X connect 24 0 36 1;
#X connect 25 0 37 0;
#X connect 26 0 35 1;
#X connect 28 0 32 0;
#X connect 28 0 38 1;
#X connect 29 0 36 0;
#X connect 29 1 23 0;
#X connect 29 2 30 0;
#X connect 31 0 30 0;
#X connect 34 0 38 0;
#X connect 34 1 60 0;
#X connect 35 0 22 0;
#X connect 36 0 35 0;
#X connect 38 0 59 0;
#X connect 39 0 41 0;
#X connect 40 0 51 0;
#X connect 41 0 40 1;
#X connect 42 0 40 0;
#X connect 43 0 20 0;
#X connect 44 0 43 1;
#X connect 45 0 46 1;
#X connect 46 0 48 0;
#X connect 47 0 39 0;
#X connect 48 0 56 0;
#X connect 49 0 48 1;
#X connect 50 0 49 0;
#X connect 50 0 48 1;
#X connect 52 0 11 0;
#X connect 53 0 66 0;
#X connect 54 0 17 0;
#X connect 55 0 16 1;
#X connect 56 0 16 0;
#X connect 57 0 56 1;
#X connect 58 0 56 2;
#X connect 59 0 55 0;
#X connect 60 0 55 0;
#X connect 61 0 20 1;
#X connect 62 0 61 1;
#X connect 63 0 45 0;
#X connect 64 0 58 0;
#X connect 68 0 67 0;
#X connect 69 0 68 0;
#X connect 71 0 0 0;
#X connect 72 0 0 0;
#X restore 364 316 pd frsb2synth;
#X obj 365 293 tgl 15 0 empty empty empty 17 7 0 10 -262144 -1 -1 0
1;
#X obj 363 264 spigot;
#X obj 391 243 tgl 15 0 empty empty empty 17 7 0 10 -262144 -1 -1 0
1;
#X obj 137 352 s exp_audio;
#X obj 362 215 r exp_audio;
#X obj 79 632 spigot;
#X obj 107 611 tgl 15 0 empty empty empty 17 7 0 10 -262144 -1 -1 0
1;
#X obj 79 591 r exp_audio;
#X obj 244 632 tgl 15 0 empty empty empty 17 7 0 10 -262144 -1 -1 0
1;
#X obj 244 609 spigot;
#X obj 272 588 tgl 15 0 empty empty empty 17 7 0 10 -262144 -1 -1 0
1;
#X obj 201 583 r exp_audio;
#N canvas 1 438 415 329 ring_mod 0;
#X obj 184 203 *~;
#X obj 183 230 hip~;
#X obj 206 166 osc~;
#X obj 67 23 r~ audioIn-L;
#X obj 149 22 r~ audioIn-R;
#X obj 327 65 switch~;
#X obj 331 39 tgl 15 0 empty empty empty 17 7 0 10 -262144 -1 -1 0
1;
#X obj 331 14 inlet;
#X obj 206 141 *;
#X obj 56 168 env~;
#X floatatom 56 190 5 0 0 0 - - -, f 5;
#X obj 298 186 samplerate~;
#X obj 298 163 bng 18 250 50 0 empty empty empty 0 -6 0 8 -262144 -1
-1;
#X obj 298 139 loadbang;
#X obj 243 142 / 4096;
#X text 249 208 One bin is SR/4096:;
#X obj 209 105 hsl 128 15 8 800 1 0 empty empty empty -2 -8 0 10 -262144
-1 -1 0 1;
#X obj 158 257 throw~ audioOut-R;
#X obj 158 279 throw~ audioOut-L;
#X connect 0 0 1 0;
#X connect 1 0 17 0;
#X connect 1 0 18 0;
#X connect 2 0 0 1;
#X connect 3 0 0 0;
#X connect 4 0 0 0;
#X connect 6 0 5 0;
#X connect 7 0 6 0;
#X connect 8 0 2 0;
#X connect 9 0 10 0;
#X connect 11 0 14 0;
#X connect 12 0 11 0;
#X connect 13 0 12 0;
#X connect 14 0 8 1;
#X connect 16 0 8 0;
#X restore 358 147 pd ring_mod;
#N canvas 375 112 589 295 AudioInOut 0;
#X obj 323 219 dac~;
#X obj 423 96 vsl 30 70 0 1 0 0 empty empty Vol_Out 0 -9 0 10 -262144
-1 -1 3450 1;
#X obj 369 179 *~;
#X obj 332 182 *~;
#X obj 369 179 *~;
#X obj 437 212 env~;
#X obj 192 189 s~ audioIn-R;
#X obj 111 191 s~ audioIn-L;
#X obj 28 102 vu 15 120 empty empty -1 -8 0 10 -66577 -1 1 0;
#X obj 35 52 env~;
#X obj 27 75 - 100;
#X obj 97 15 adc~;
#X obj 494 125 vu 15 120 empty empty -1 -8 0 10 -66577 -1 1 0;
#X obj 493 98 - 100;
#X obj 308 117 catch~ audioOut-R;
#X obj 308 138 catch~ audioOut-L;
#X obj 403 28 inlet;
#X obj 235 21 inlet;
#X obj 192 149 *~;
#X obj 111 154 *~;
#X obj 220 65 vsl 30 70 0 1 0 0 empty empty Vol_In 0 -9 0 10 -262144
-1 -1 3450 1;
#X connect 1 0 2 1;
#X connect 1 0 3 1;
#X connect 2 0 0 1;
#X connect 2 0 5 0;
#X connect 3 0 0 0;
#X connect 5 0 13 0;
#X connect 9 0 10 0;
#X connect 10 0 8 0;
#X connect 11 0 9 0;
#X connect 11 0 19 0;
#X connect 11 1 9 0;
#X connect 11 1 18 0;
#X connect 13 0 12 0;
#X connect 14 0 2 0;
#X connect 15 0 3 0;
#X connect 16 0 1 0;
#X connect 17 0 20 0;
#X connect 18 0 6 0;
#X connect 19 0 7 0;
#X connect 20 0 18 1;
#X connect 20 0 19 1;
#X restore 190 165 pd AudioInOut;
#X obj 359 125 tgl 15 0 empty empty empty 17 7 0 10 -262144 -1 -1 0
1;
#N canvas 814 327 464 454 INICIOsom 1;
#X obj 55 191 bp~ 400 1;
#X obj 234 376 throw~ audioOut-R;
#X obj 120 378 throw~ audioOut-L;
#X obj 188 335 spigot~;
#X obj 246 336 tgl 15 0 empty empty empty 17 7 0 10 -262144 -1 -1 1
1;
#X obj 306 177 line~ 1 100;
#X floatatom 135 188 5 0 0 0 - - -, f 5;
#X obj 191 234 *~;
#X obj 330 62 bng 15 250 50 0 empty empty empty 17 7 0 10 -262144 -1
-1;
#X obj 333 95 t b b;
#X obj 355 123 delay 100;
#X msg 362 146 0 100;
#X msg 317 145 1 50;
#X msg 134 29 1;
#X obj 215 97 delay 200;
#X obj 219 44 metro 1200;
#X obj 172 165 line;
#X msg 272 139 1;
#X obj 108 5 r somInicio_inicio;
#X obj 50 100 r somInicio_fim;
#X obj 288 18 r somInOff;
#X msg 253 18 0;
#X obj 98 258 bng 15 250 50 0 empty empty empty 17 7 0 10 -262144 -1
-1;
#X obj 219 68 t b b b;
#X obj 54 158 phasor~ 1200;
#X msg 175 137 0 10000;
#X obj 73 233 sel 0;
#X obj 36 286 s somInOff;
#N canvas 550 297 537 282 goSound 0;
#X obj 37 128 soundfiler;
#X obj 39 32 table growl;
#X obj 283 85 tabplay~ growl;
#X obj 245 56 tgl 15 0 empty empty empty 17 7 0 10 -262144 -1 -1 0
1;
#X obj 282 54 bng 15 250 50 0 empty empty empty 17 7 0 10 -262144 -1
-1;
#X msg 18 103 read -resize ./files/bassgrowl.aif growl;
#X obj 279 24 inlet;
#X obj 302 253 outlet~;
#X obj 83 68 loadbang;
#X obj 277 189 freeverb~;
#X floatatom 370 58 5 0 0 0 - - -, f 5;
#X msg 224 153 roomsize 0.7 \, damping 0.05 \, wet 0.4 \, dry 0.3;
#N canvas 1 54 336 300 parametersRev 0;
#X floatatom 98 80 5 0 0 0 - - -, f 5;
#X msg 144 44 roomsize \$1;
#X msg 144 89 damping \$1;
#X msg 144 177 wet \$1;
#X msg 144 221 dry \$1;
#X obj 156 198 hsl 60 18 0 1 0 1 empty empty dry 2 9 1 12 -225271 -1
-1 1800 0;
#X obj 156 154 hsl 60 18 0 1 0 1 empty empty wet 2 9 1 12 -225271 -1
-1 2700 0;
#X obj 156 66 hsl 60 18 0 2 0 1 empty empty damping 2 9 1 12 -261689
-1 -1 100 0;
#X obj 156 21 hsl 60 18 0.11 1.1 0 1 empty empty roomsize 2 9 1 12
-261689 -1 -1 3800 0;
#X floatatom 95 34 5 0 0 0 - - -, f 5;
#X floatatom 109 160 5 0 0 0 - - -, f 5;
#X floatatom 85 226 5 0 0 0 - - -, f 5;
#X obj 233 253 outlet;
#X connect 1 0 12 0;
#X connect 2 0 12 0;
#X connect 3 0 12 0;
#X connect 4 0 12 0;
#X connect 5 0 4 0;
#X connect 5 0 11 0;
#X connect 6 0 3 0;
#X connect 6 0 10 0;
#X connect 7 0 2 0;
#X connect 8 0 1 0;
#X connect 8 0 9 0;
#X restore 397 92 pd parametersRev;
#X floatatom 453 197 5 0 0 0 - - -, f 5;
#X connect 2 0 9 0;
#X connect 3 0 2 0;
#X connect 4 0 2 0;
#X connect 5 0 0 0;
#X connect 6 0 4 0;
#X connect 8 0 5 0;
#X connect 8 0 11 0;
#X connect 9 0 7 0;
#X connect 11 0 9 0;
#X connect 12 0 9 0;
#X restore 115 285 pd goSound;
#X connect 0 0 7 0;
#X connect 3 0 2 0;
#X connect 3 1 1 0;
#X connect 4 0 3 1;
#X connect 5 0 7 1;
#X connect 6 0 0 2;
#X connect 6 0 26 0;
#X connect 7 0 3 0;
#X connect 8 0 9 0;
#X connect 9 0 10 0;
#X connect 9 1 12 0;
#X connect 10 0 11 0;
#X connect 11 0 5 0;
#X connect 12 0 5 0;
#X connect 13 0 15 0;
#X connect 14 0 9 0;
#X connect 15 0 23 0;
#X connect 16 0 6 0;
#X connect 17 0 16 0;
#X connect 18 0 13 0;
#X connect 19 0 25 0;
#X connect 20 0 21 0;
#X connect 20 0 17 0;
#X connect 21 0 15 0;
#X connect 22 0 28 0;
#X connect 23 0 14 0;
#X connect 23 1 9 0;
#X connect 23 2 4 0;
#X connect 24 0 0 0;
#X connect 25 0 16 0;
#X connect 26 0 22 0;
#X connect 26 0 27 0;
#X connect 28 0 1 0;
#X connect 28 0 2 0;
#X restore 28 111 pd INICIOsom;
#N canvas 367 76 586 307 MIGRARsom 0;
#X obj 25 21 r MigrarSom;
#X obj 261 28 table DF;
#X obj 160 86 soundfiler;
#X obj 106 162 tabplay~ DF;
#X obj 115 187 throw~ audioOut-R;
#X obj 100 208 throw~ audioOut-L;
#X obj 31 45 sel 1 0;
#X obj 198 28 loadbang;
#X msg 87 116 stop;
#X obj 153 28 bng 15 250 50 0 empty empty empty 17 7 0 10 -262144 -1
-1;
#X floatatom 413 187 12 0 0 0 - - -, f 12;
#X floatatom 414 143 5 0 0 0 - - -, f 5;
#X obj 415 163 expr $f1*44100;
#X text 173 112 encontrar maneira de fazer o loop até MigrarSom 0
;
#N canvas 462 94 480 483 lazer 0;
#X obj 130 -21 bng 15 250 50 0 empty empty blast-em 0 -6 1 8 -262144
-1 -1;
#X obj 181 18 t b b;
#X obj 181 -22 tgl 15 0 empty empty empty 0 -6 0 8 -262144 -1 -1 0
1;
#X obj 181 -4 metro 100;
#X obj 36 123 sd 60 7 5000;
#X obj 286 74 trigger b b b b b;
#X obj 36 79 trigger b b b b b b;
#X obj 35 316 clip~ -1 1;
#X obj 158 365 hip~ 5;
#X obj 211 41 del 15;
#X obj 314 97 del 5;
#X obj 343 116 del 7;
#X obj 371 135 del 9;
#X obj 286 157 crack 1 7;
#X obj 35 293 *~ 0.4;
#X obj 61 142 sd 90 8 3000;
#X obj 87 161 sd 400 9 7000;
#X obj 112 180 sd 300 17 6000;
#X obj 137 200 sd 600 24 9400;
#X obj 164 220 sd 3200 65 12400;
#X obj 370 214 crack 0.05 24;
#X obj 314 176 crack 0.3 12;
#X obj 343 195 crack 0.15 19;
#X obj 158 385 *~ 0.3;
#X obj 287 285 *~ 0.6;
#X obj 73 423 throw~ audioOut-R;
#X obj 195 424 throw~ audioOut-L;
#X obj 57 -15 inlet;
#X connect 0 0 1 0;
#X connect 1 0 6 0;
#X connect 1 1 9 0;
#X connect 2 0 3 0;
#X connect 3 0 1 0;
#X connect 4 0 14 0;
#X connect 5 0 13 0;
#X connect 5 1 10 0;
#X connect 5 2 11 0;
#X connect 5 3 12 0;
#X connect 6 0 4 0;
#X connect 6 1 15 0;
#X connect 6 2 16 0;
#X connect 6 3 17 0;
#X connect 6 4 18 0;
#X connect 6 5 19 0;
#X connect 7 0 8 0;
#X connect 8 0 23 0;
#X connect 9 0 5 0;
#X connect 10 0 21 0;
#X connect 11 0 22 0;
#X connect 12 0 20 0;
#X connect 13 0 24 0;
#X connect 14 0 7 0;
#X connect 15 0 14 0;
#X connect 16 0 14 0;
#X connect 17 0 14 0;
#X connect 18 0 14 0;
#X connect 19 0 14 0;
#X connect 20 0 24 0;
#X connect 21 0 24 0;
#X connect 22 0 24 0;
#X connect 23 0 25 0;
#X connect 23 0 26 0;
#X connect 24 0 8 0;
#X connect 27 0 0 0;
#X restore 443 44 pd lazer;
#X obj 443 20 r somStrasburg;
#X msg 153 60 read -resize ./files/somDF.wav DF;
#X msg 42 116 bang;
#X obj 192 159 spigot;
#X obj 225 135 tgl 15 0 empty empty empty 17 7 0 10 -262144 -1 -1 1
1;
#X obj 91 63 r somDF;
#X obj 284 147 loadbang;
#X msg 263 176 1;
#X connect 0 0 6 0;
#X connect 3 0 4 0;
#X connect 3 0 5 0;
#X connect 3 1 18 0;
#X connect 6 0 17 0;
#X connect 6 1 8 0;
#X connect 7 0 16 0;
#X connect 8 0 3 0;
#X connect 9 0 16 0;
#X connect 11 0 12 0;
#X connect 12 0 10 0;
#X connect 15 0 14 0;
#X connect 16 0 2 0;
#X connect 17 0 3 0;
#X connect 18 0 17 0;
#X connect 19 0 18 1;
#X connect 20 0 8 0;
#X connect 21 0 22 0;
#X connect 22 0 19 0;
#X restore 31 178 pd MIGRARsom;
#X obj 32 244 r audio2corOn;
#X text 140 3 discon;
#X obj 123 9 bng 15 250 50 0 empty empty empty 17 7 0 10 -262144 -1
-1;
#X obj 248 81 vsl 30 70 0 1 0 0 empty empty Vol_Out 0 -9 0 10 -262144
-1 -1 3450 1;
#X obj 185 83 vsl 30 70 0 1 0 0 empty empty Vol_In 0 -9 0 10 -262144
-1 -1 3450 1;
#X obj 224 18 loadbang;
#X msg 225 37 0.5;
#X msg 144 82 1;
#X connect 0 0 1 0;
#X connect 3 0 2 0;
#X connect 3 1 4 0;
#X connect 5 0 3 0;
#X connect 6 0 14 0;
#X connect 8 0 7 0;
#X connect 8 0 21 0;
#X connect 9 0 0 0;
#X connect 11 0 10 0;
#X connect 13 0 12 0;
#X connect 16 0 15 0;
#X connect 18 0 17 0;
#X connect 19 0 18 0;
#X connect 20 0 19 1;
#X connect 22 0 19 0;
#X connect 23 0 11 0;
#X connect 24 0 23 1;
#X connect 25 0 23 0;
#X connect 26 0 13 0;
#X connect 27 0 26 0;
#X connect 28 0 27 1;
#X connect 29 0 27 0;
#X connect 32 0 30 0;
#X connect 35 0 16 0;
#X connect 37 0 3 1;
#X connect 38 0 31 1;
#X connect 39 0 31 0;
#X connect 40 0 41 0;
#X connect 40 0 42 0;
#X connect 41 0 38 0;
#X connect 41 0 39 0;
