#N canvas 1 80 552 652 10;
#X obj 24 52 gemwin;
#X msg 0 30 create;
#X msg 52 32 destroy;
#X msg 1 11 dimen 800 600;
#X obj 3 54 tgl 15 0 empty empty empty 17 7 0 10 -262144 -1 -1 1 1
;
#X obj 132 174 pix_video;
#X obj 132 209 pix_rgba;
#X obj 132 239 pix_flip;
#X obj 132 281 t a a;
#X msg 35 201 horizontal;
#X obj 35 176 r init;
#X obj 3 126 s init;
#X obj 2 101 loadbang;
#X obj 37 344 pix_separator;
#X obj 151 326 pix_separator;
#X obj 34 376 pix_texture;
#X obj 32 407 rectangle 5.33 4;
#X obj 153 399 pix_movement;
#X obj 178 371 hsl 128 15 0 1 0 0 empty empty empty -2 -8 0 10 -262144
-1 -1 1500 1;
#X obj 154 431 alpha;
#X obj 142 498 pix_blob;
#X obj 171 465 hradio 15 1 0 5 empty empty empty 0 -8 0 10 -262144
-1 -1 4;
#X floatatom 51 537 5 0 0 0 - - -, f 5;
#X floatatom 87 539 5 0 0 0 - - -, f 5;
#X obj 357 122 part_head;
#X obj 357 374 part_killold 20;
#X obj 363 444 part_color;
#X msg 374 404 0.5 1 0;
#X msg 432 406 0 1 1;
#X obj 365 497 part_size;
#X floatatom 421 478 5 0 0 0 - - -, f 5;
#X obj 365 526 part_render;
#X obj 359 43 gemhead 55;
#X obj 131 592 s X;
#X obj 182 592 s Y;
#X obj 133 565 - 5.33;
#X obj 133 540 * 10.66;
#X obj 188 562 - 4;
#X obj 187 536 * 8;
#X obj 361 596 text3d;
#X msg 388 566 font PUSSSA__.TTF;
#X msg 313 561 text words;
#X obj 290 434 r init;
#X msg 289 123 speed \$1;
#X obj 288 86 hsl 128 15 0 1 0 0 empty empty empty -2 -8 0 10 -262144
-1 -1 3900 1;
#X obj 350 200 part_velocity 0 0 0.1 0.2;
#X obj 356 313 part_orbitpoint;
#X obj 351 167 part_source 5 point 0 0 0;
#X obj 397 251 r X;
#X obj 427 252 r Y;
#X obj 398 281 pack f f 0;
#X floatatom 478 285 5 0 0 0 - - -, f 5;
#X floatatom 250 120 5 0 0 0 - - -, f 5;
#X obj 436 101 r X;
#X obj 466 102 r Y;
#X obj 437 131 pack f f 0;
#X msg 278 595 text BLA;
#X obj 135 139 gemhead;
#X obj 522 254 vsl 15 128 -20 20 0 0 empty empty gravity -30 -9 0 10
-262130 -1 -1 0 1;
#X msg 218 445 4;
#X msg 260 45 0.3;
#X obj 253 21 r init;
#X msg 390 475 0.2;
#X connect 1 0 0 0;
#X connect 2 0 0 0;
#X connect 3 0 0 0;
#X connect 4 0 0 0;
#X connect 5 0 6 0;
#X connect 6 0 7 0;
#X connect 7 0 8 0;
#X connect 8 0 13 0;
#X connect 8 1 14 0;
#X connect 9 0 7 0;
#X connect 10 0 9 0;
#X connect 12 0 11 0;
#X connect 13 0 15 0;
#X connect 14 0 17 0;
#X connect 15 0 16 0;
#X connect 17 0 19 0;
#X connect 18 0 17 1;
#X connect 19 0 20 0;
#X connect 20 1 22 0;
#X connect 20 1 36 0;
#X connect 20 2 23 0;
#X connect 20 2 38 0;
#X connect 21 0 20 1;
#X connect 24 0 47 0;
#X connect 25 0 26 0;
#X connect 26 0 29 0;
#X connect 27 0 26 1;
#X connect 28 0 26 2;
#X connect 29 0 31 0;
#X connect 30 0 29 1;
#X connect 31 0 39 0;
#X connect 32 0 24 0;
#X connect 35 0 33 0;
#X connect 36 0 35 0;
#X connect 37 0 34 0;
#X connect 38 0 37 0;
#X connect 40 0 39 0;
#X connect 41 0 39 0;
#X connect 42 0 41 0;
#X connect 42 0 40 0;
#X connect 42 0 27 0;
#X connect 42 0 28 0;
#X connect 42 0 62 0;
#X connect 42 0 59 0;
#X connect 43 0 24 0;
#X connect 44 0 43 0;
#X connect 44 0 52 0;
#X connect 45 0 46 0;
#X connect 46 0 25 0;
#X connect 47 0 45 0;
#X connect 48 0 50 0;
#X connect 49 0 50 1;
#X connect 50 0 46 1;
#X connect 51 0 46 2;
#X connect 53 0 55 0;
#X connect 54 0 55 1;
#X connect 55 0 47 3;
#X connect 56 0 39 0;
#X connect 57 0 5 0;
#X connect 58 0 51 0;
#X connect 59 0 21 0;
#X connect 60 0 44 0;
#X connect 61 0 60 0;
#X connect 62 0 30 0;
