#N canvas 128 131 634 589 10;
#X obj 80 220 pix_rgba;
#X obj 81 472 rectangle 5.333 4;
#X obj 81 447 pix_texture;
#X obj 80 332 t a a;
#X obj 106 362 pix_separator;
#X obj 80 297 pix_flip;
#X msg 111 272 horizontal;
#X obj 106 390 s IMAGE;
#X obj 209 198 metro 100;
#X obj 211 176 tgl 15 0 empty empty empty 17 7 0 10 -262144 -1 -1 0
1;
#X obj 208 223 s clk;
#X obj 480 226 s THR;
#X obj 362 196 tgl 30 0 empty empty empty 17 7 0 10 -4034 -1 -1 0 1
;
#X obj 362 233 s STORE;
#X obj 483 118 bng 15 250 50 0 empty empty empty 17 7 0 10 -262144
-1 -1;
#X obj 109 511 loadbang;
#X obj 112 536 s init;
#X obj 111 249 r init;
#X obj 208 258 r init;
#X obj 87 524 bng 15 250 50 0 empty empty empty 17 7 0 10 -262144 -1
-1;
#X obj 286 275 r X1;
#X obj 341 278 r Y1;
#X obj 445 277 r Y2;
#X obj 390 274 r X2;
#X obj 494 275 r X3;
#X obj 549 278 r Y3;
#X obj 290 375 r X4;
#X obj 345 378 r Y4;
#X obj 394 374 r X5;
#X obj 449 377 r Y5;
#X obj 498 375 r X6;
#X obj 553 378 r Y6;
#X obj 286 475 r X7;
#X obj 341 478 r Y7;
#X obj 390 474 r X8;
#X obj 445 477 r Y8;
#X obj 494 475 r X9;
#X obj 549 478 r Y9;
#X obj 297 342 s CHNG1;
#X obj 394 340 s CHNG2;
#X obj 498 341 s CHNG3;
#X obj 500 434 s CHNG6;
#X obj 397 430 s CHNG5;
#X obj 293 431 s CHNG4;
#X obj 289 531 s CHNG7;
#X obj 391 530 s CHNG8;
#X obj 498 530 s CHNG9;
#X obj 289 301 hotspot_ball;
#X obj 359 76 bng 30 250 50 0 empty empty LIGA 3 15 0 10 -257985 -1
-1;
#X msg 370 169 1;
#X msg 406 170 0;
#X obj 391 129 delay 100;
#X msg 209 287 \; X1 0.15 \; Y1 0.2 \; X2 0.15 \; Y2 0.45 \; X3 0.15
\; Y3 0.7 \; X4 0.3 \; Y4 0.85 \; X5 0.5 \; Y5 0.85 \; X6 0.7 \; Y6
0.85 \; X7 0.85 \; Y7 0.7 \; X8 0.85 \; Y8 0.45 \; X9 0.85 \; Y9 0.2
\; THR 0.4 \;;
#X obj 80 412 colourRGB 1 1 1 1;
#X floatatom 166 396 5 0 0 0 - - -, f 5;
#X obj 352 114 t b b;
#X obj 407 75 bng 30 250 50 0 empty empty DESLIGA -5 15 0 10 -258113
-1 -1;
#X obj 506 116 vsl 15 100 0 1 0 0 empty empty empty 0 -9 0 10 -204800
-1 -1 0 1;
#X floatatom 523 226 5 0 0 0 - - -, f 5;
#X obj 106 7 loadbang;
#X msg 114 26 0;
#X obj 231 10 inlet;
#X obj 289 501 hotspot_ball;
#X obj 393 300 hotspot_ball;
#X obj 497 301 hotspot_ball;
#X obj 293 401 hotspot_ball;
#X obj 397 400 hotspot_ball;
#X obj 501 401 hotspot_ball;
#X obj 393 500 hotspot_ball;
#X obj 497 501 hotspot_ball;
#X obj 202 84 s nuAir-SW;
#X obj 235 34 t f f f;
#X obj 320 49 sel 0 1;
#X obj 52 88 r IMG;
#X obj 53 113 spigot;
#X obj 96 92 tgl 15 0 empty empty empty 17 7 0 10 -262144 -1 -1 1 1
;
#X connect 0 0 5 0;
#X connect 2 0 1 0;
#X connect 3 0 53 0;
#X connect 3 1 4 0;
#X connect 4 0 7 0;
#X connect 5 0 3 0;
#X connect 6 0 5 0;
#X connect 8 0 10 0;
#X connect 9 0 8 0;
#X connect 12 0 13 0;
#X connect 14 0 57 0;
#X connect 15 0 16 0;
#X connect 17 0 6 0;
#X connect 18 0 52 0;
#X connect 19 0 16 0;
#X connect 20 0 47 0;
#X connect 21 0 47 1;
#X connect 22 0 63 1;
#X connect 23 0 63 0;
#X connect 24 0 64 0;
#X connect 25 0 64 1;
#X connect 26 0 65 0;
#X connect 27 0 65 1;
#X connect 28 0 66 0;
#X connect 29 0 66 1;
#X connect 30 0 67 0;
#X connect 31 0 67 1;
#X connect 32 0 62 0;
#X connect 33 0 62 1;
#X connect 34 0 68 0;
#X connect 35 0 68 1;
#X connect 36 0 69 0;
#X connect 37 0 69 1;
#X connect 47 0 38 0;
#X connect 48 0 55 0;
#X connect 49 0 12 0;
#X connect 50 0 12 0;
#X connect 51 0 50 0;
#X connect 53 0 2 0;
#X connect 54 0 53 4;
#X connect 55 0 49 0;
#X connect 55 1 51 0;
#X connect 56 0 49 0;
#X connect 57 0 11 0;
#X connect 57 0 58 0;
#X connect 59 0 60 0;
#X connect 60 0 70 0;
#X connect 60 0 75 0;
#X connect 61 0 71 0;
#X connect 62 0 44 0;
#X connect 63 0 39 0;
#X connect 64 0 40 0;
#X connect 65 0 43 0;
#X connect 66 0 42 0;
#X connect 67 0 41 0;
#X connect 68 0 45 0;
#X connect 69 0 46 0;
#X connect 71 0 75 0;
#X connect 71 1 70 0;
#X connect 71 2 72 0;
#X connect 72 0 56 0;
#X connect 72 1 48 0;
#X connect 73 0 74 0;
#X connect 74 0 0 0;
#X connect 75 0 74 1;
