#N canvas 74 223 570 544 10;
#N canvas 85 213 930 383 TABLES 0;
#N canvas 0 50 450 250 (subpatch) 0;
#X array Smpl-1 116067 float 2;
#X coords 0 1 116067 -1 200 140 1;
#X restore 45 22 graph;
#N canvas 0 50 450 250 (subpatch) 0;
#X array Smpl-2 103177 float 2;
#X coords 0 1 103177 -1 200 140 1;
#X restore 259 25 graph;
#N canvas 0 50 450 250 (subpatch) 0;
#X array Smpl-3 110280 float 2;
#X coords 0 1 110280 -1 200 140 1;
#X restore 490 24 graph;
#N canvas 0 50 450 250 (subpatch) 0;
#X array Smpl-4 110280 float 2;
#X coords 0 1 110280 -1 200 140 1;
#X restore 715 28 graph;
#N canvas 0 50 450 250 (subpatch) 0;
#X array Smpl-5 62553 float 2;
#X coords 0 1 62553 -1 200 140 1;
#X restore 41 189 graph;
#N canvas 0 50 450 250 (subpatch) 0;
#X array Smpl-6 110280 float 2;
#X coords 0 1 110280 -1 200 140 1;
#X restore 258 192 graph;
#N canvas 0 50 450 250 (subpatch) 0;
#X array Smpl-7 77847 float 2;
#X coords 0 1 77847 -1 200 140 1;
#X restore 482 194 graph;
#N canvas 0 50 450 250 (subpatch) 0;
#X array Smpl-8 107142 float 2;
#X coords 0 1 107142 -1 200 140 1;
#X restore 708 195 graph;
#N canvas 0 50 450 250 (subpatch) 0;
#X array Smpl-9 115611 float 2;
#X coords 0 1 115611 -1 200 140 1;
#X restore 41 365 graph;
#X restore 191 39 pd TABLES;
#X obj 46 274 soundfiler;
#X msg 46 146 read -resize files/fazer48-M.wav Smpl-1 \, read -resize
files/amor48-M.wav Smpl-2 \, read -resize files/com_outra48-M.wav Smpl-3
\, read -resize files/disp48-M.wav Smpl-4 \, read -resize files/nao48-M.wav
Smpl-5 \, read -resize files/da48-M.wav Smpl-6 \, read -resize files/pa_diz48-M.wav
Smpl-7 \, read -resize files/quanto48-M.wav Smpl-8 \, read -resize
files/bom48-M.wav Smpl-9 \,;
#X obj 47 98 loadbang;
#N canvas 639 159 490 608 PLAYER 0;
#X obj 56 25 sel 1;
#X obj 43 80 sel 1;
#X obj 47 -1 r CHNG1;
#X obj 45 58 r CHNG2;
#X obj 48 142 sel 1;
#X obj 46 196 sel 1;
#X obj 46 255 sel 1;
#X obj 47 307 sel 1;
#X obj 44 360 sel 1;
#X obj 43 416 sel 1;
#X obj 21 492 sel 1;
#X obj 41 120 r CHNG3;
#X obj 39 173 r CHNG4;
#X obj 37 233 r CHNG5;
#X obj 38 283 r CHNG6;
#X obj 44 338 r CHNG7;
#X obj 35 397 r CHNG8;
#X obj 21 466 r CHNG9;
#X obj 318 490 dac~;
#X obj 199 9 bng 15 250 50 0 empty empty empty 17 7 0 10 -262144 -1
-1;
#X obj 159 79 tabplay~ Smpl-1;
#X obj 257 78 tabplay~ Smpl-2;
#X obj 301 116 tabplay~ Smpl-3;
#X obj 312 185 tabplay~ Smpl-4;
#X obj 322 235 tabplay~ Smpl-5;
#X obj 321 274 tabplay~ Smpl-6;
#X obj 343 326 tabplay~ Smpl-7;
#X obj 353 383 tabplay~ Smpl-8;
#X obj 365 443 tabplay~ Smpl-9;
#X connect 0 0 20 0;
#X connect 1 0 21 0;
#X connect 2 0 0 0;
#X connect 3 0 1 0;
#X connect 4 0 22 0;
#X connect 5 0 23 0;
#X connect 6 0 24 0;
#X connect 7 0 25 0;
#X connect 8 0 26 0;
#X connect 9 0 27 0;
#X connect 10 0 28 0;
#X connect 11 0 4 0;
#X connect 12 0 5 0;
#X connect 13 0 6 0;
#X connect 14 0 7 0;
#X connect 15 0 8 0;
#X connect 16 0 9 0;
#X connect 17 0 10 0;
#X connect 19 0 20 0;
#X connect 20 0 18 0;
#X connect 20 0 18 1;
#X connect 21 0 18 0;
#X connect 21 0 18 1;
#X connect 22 0 18 0;
#X connect 22 0 18 1;
#X connect 23 0 18 0;
#X connect 23 0 18 1;
#X connect 24 0 18 0;
#X connect 24 0 18 1;
#X connect 25 0 18 0;
#X connect 25 0 18 1;
#X connect 26 0 18 0;
#X connect 26 0 18 1;
#X connect 27 0 18 0;
#X connect 27 0 18 1;
#X connect 28 0 18 0;
#X connect 28 0 18 1;
#X restore 300 46 pd PLAYER;
#X obj 488 154 switch~;
#X obj 492 122 tgl 15 0 empty empty empty 17 7 0 10 -262144 -1 -1 0
1;
#X obj 479 68 inlet;
#X connect 2 0 1 0;
#X connect 3 0 2 0;
#X connect 6 0 5 0;
#X connect 7 0 6 0;
