#N canvas 60 83 492 501 10;
#X obj 85 64 tgl 15 0 empty empty empty 17 7 0 10 -262144 -1 -1 1 1
;
#X obj 84 87 gemhead;
#X obj 80 438 text3d;
#X msg 228 412 font PUSSSA__.TTF;
#X floatatom 66 308 5 0 0 0 - - -, f 5;
#X floatatom 172 306 5 0 0 0 - - -, f 5;
#X obj 183 91 tgl 15 0 empty empty empty 17 7 0 10 -262144 -1 -1 1
1;
#X obj 183 116 metro 300;
#X floatatom 213 81 5 0 0 0 - - -, f 5;
#X obj 182 148 f;
#X obj 212 148 + 1;
#X obj 182 228 - 4;
#X obj 179 256 * -1;
#X obj 180 175 mod 900;
#X obj 178 201 / 100;
#X obj 303 26 inlet word;
#X obj 375 287 prepend text;
#X obj 253 384 loadbang;
#X obj 217 51 \$1;
#X obj 217 28 loadbang;
#X obj 81 21 r pal_and_ON;
#X obj 87 161 \$2;
#X obj 265 278 mod 36000;
#X obj 78 391 rotateXYZ;
#X obj 33 339 translateXYZ 1 1 0;
#X obj 133 229 sel -4;
#X obj 112 254 random 80;
#X obj 133 278 / 10;
#X obj 133 300 - 4;
#X obj 86 284 +;
#X obj 276 227 random 50;
#X obj 301 246 + 10;
#X connect 0 0 1 0;
#X connect 1 0 24 0;
#X connect 3 0 2 0;
#X connect 4 0 24 1;
#X connect 5 0 24 2;
#X connect 6 0 7 0;
#X connect 7 0 9 0;
#X connect 8 0 7 1;
#X connect 9 0 10 0;
#X connect 9 0 13 0;
#X connect 9 0 22 0;
#X connect 10 0 9 1;
#X connect 11 0 12 0;
#X connect 11 0 25 0;
#X connect 12 0 5 0;
#X connect 13 0 14 0;
#X connect 14 0 11 0;
#X connect 15 0 16 0;
#X connect 16 0 2 0;
#X connect 17 0 3 0;
#X connect 18 0 8 0;
#X connect 19 0 18 0;
#X connect 19 0 21 0;
#X connect 20 0 0 0;
#X connect 20 0 6 0;
#X connect 21 0 29 1;
#X connect 22 0 23 2;
#X connect 23 0 2 0;
#X connect 24 0 23 0;
#X connect 25 0 26 0;
#X connect 25 0 30 0;
#X connect 26 0 27 0;
#X connect 27 0 28 0;
#X connect 28 0 29 0;
#X connect 29 0 4 0;
#X connect 30 0 31 0;
#X connect 31 0 18 0;
