#N canvas 544 135 856 556 10;
#X obj 17 111 inlet;
#X obj 537 -14 r word_in;
#X symbolatom 18 156 20 0 0 2 write_here - -, f 20;
#X obj 18 192 t s b b b b;
#X obj 17 228 symbol2list;
#X msg 238 275 set text;
#X msg 120 310 bang;
#X msg 106 365 text q w e r t;
#X obj 17 252 drip 550;
#X msg 157 292 add2 \$1;
#X obj 8 314 s word_in;
#X obj 39 486 symbol;
#X msg 39 456 caz;
#X obj 39 514 makefilename %s;
#X text 36 435 shoot one word!;
#X obj 192 49 gemhead;
#X obj 187 25 tgl 15 0 empty empty empty 17 7 0 10 -262144 -1 -1 1
1;
#X obj 57 74 gemwin;
#X msg 57 20 create \, 1;
#X msg 67 49 0 \, destroy;
#X obj 10 285 t b b;
#X msg 144 395 text \$1;
#X msg 108 488 set text;
#X obj 115 188 bng 15 250 50 0 empty empty empty 17 7 0 10 -262144
-1 -1;
#X obj 465 13 f;
#X obj 498 14 + 1;
#X obj 435 91 demux . . . .;
#X obj 481 41 mod 4;
#X msg 414 146 text \$1;
#X msg 477 140 text \$1;
#X obj 194 104 t a a a a;
#X floatatom 439 48 5 0 0 0 - - -, f 5;
#X obj 430 11 bng 15 250 50 0 empty empty empty 17 7 0 10 -262144 -1
-1;
#X msg 539 141 text \$1;
#X msg 600 139 text \$1;
#X obj 247 338 separator;
#X obj 322 338 separator;
#X obj 400 338 separator;
#X obj 475 338 separator;
#N canvas 269 332 450 300 word 0;
#X msg 301 171 font \$1;
#X msg 301 217 alias \$1;
#X obj 301 199 tgl 15 0 empty empty empty 0 -6 0 8 -262144 -1 -1 0
1;
#X obj 107 141 translateXYZ;
#X floatatom 371 132 5 0 0 0 - - -, f 5;
#X obj 27 54 separator;
#X obj 34 23 inlet;
#X obj 131 30 inlet XY;
#X obj 139 63 unpack f f;
#X obj 374 109 line;
#X msg 396 70 0, f 2;
#X obj 376 40 t b b;
#X msg 336 68 9 2000;
#X obj 250 44 inlet word;
#X obj 214 244 text2d 100;
#X connect 0 0 14 0;
#X connect 1 0 14 0;
#X connect 2 0 1 0;
#X connect 3 0 14 0;
#X connect 4 0 3 3;
#X connect 5 0 3 0;
#X connect 6 0 5 0;
#X connect 7 0 8 0;
#X connect 7 0 11 0;
#X connect 8 0 3 1;
#X connect 8 1 3 2;
#X connect 9 0 4 0;
#X connect 10 0 9 0;
#X connect 11 0 12 0;
#X connect 11 1 10 0;
#X connect 12 0 9 1;
#X connect 13 0 14 0;
#X restore 433 481 pd word;
#N canvas 1 81 450 300 word 0;
#X msg 301 171 font \$1;
#X msg 301 217 alias \$1;
#X obj 301 199 tgl 15 0 empty empty empty 0 -6 0 8 -262144 -1 -1 0
1;
#X obj 107 141 translateXYZ;
#X floatatom 371 132 5 0 0 0 - - -, f 5;
#X obj 27 54 separator;
#X obj 34 23 inlet;
#X obj 131 30 inlet XY;
#X obj 139 63 unpack f f;
#X obj 374 109 line;
#X msg 396 70 0, f 2;
#X obj 376 40 t b b;
#X msg 336 68 9 2000;
#X obj 241 21 inlet word;
#X obj 214 244 text2d 100;
#X connect 0 0 14 0;
#X connect 1 0 14 0;
#X connect 2 0 1 0;
#X connect 3 0 14 0;
#X connect 4 0 3 3;
#X connect 5 0 3 0;
#X connect 6 0 5 0;
#X connect 7 0 8 0;
#X connect 7 0 11 0;
#X connect 8 0 3 1;
#X connect 8 1 3 2;
#X connect 9 0 4 0;
#X connect 10 0 9 0;
#X connect 11 0 12 0;
#X connect 11 1 10 0;
#X connect 12 0 9 1;
#X connect 13 0 14 0;
#X restore 495 480 pd word;
#N canvas 1 81 450 300 word 0;
#X msg 301 171 font \$1;
#X msg 301 217 alias \$1;
#X obj 301 199 tgl 15 0 empty empty empty 0 -6 0 8 -262144 -1 -1 0
1;
#X obj 107 141 translateXYZ;
#X floatatom 371 132 5 0 0 0 - - -, f 5;
#X obj 27 54 separator;
#X obj 34 23 inlet;
#X obj 131 30 inlet XY;
#X obj 139 63 unpack f f;
#X obj 374 109 line;
#X msg 396 70 0, f 2;
#X obj 376 40 t b b;
#X msg 336 68 9 2000;
#X obj 241 21 inlet word;
#X obj 214 244 text2d 100;
#X connect 0 0 14 0;
#X connect 1 0 14 0;
#X connect 2 0 1 0;
#X connect 3 0 14 0;
#X connect 4 0 3 3;
#X connect 5 0 3 0;
#X connect 6 0 5 0;
#X connect 7 0 8 0;
#X connect 7 0 11 0;
#X connect 8 0 3 1;
#X connect 8 1 3 2;
#X connect 9 0 4 0;
#X connect 10 0 9 0;
#X connect 11 0 12 0;
#X connect 11 1 10 0;
#X connect 12 0 9 1;
#X connect 13 0 14 0;
#X restore 553 481 pd word;
#N canvas 1 82 450 300 word 0;
#X msg 301 171 font \$1;
#X msg 301 217 alias \$1;
#X obj 301 199 tgl 15 0 empty empty empty 0 -6 0 8 -262144 -1 -1 0
1;
#X obj 107 141 translateXYZ;
#X floatatom 371 132 5 0 0 0 - - -, f 5;
#X obj 27 54 separator;
#X obj 34 23 inlet;
#X obj 131 30 inlet XY;
#X obj 139 63 unpack f f;
#X obj 374 109 line;
#X msg 396 70 0, f 2;
#X obj 376 40 t b b;
#X msg 336 68 9 2000;
#X obj 250 44 inlet word;
#X obj 214 244 text2d 100;
#X connect 0 0 14 0;
#X connect 1 0 14 0;
#X connect 2 0 1 0;
#X connect 3 0 14 0;
#X connect 4 0 3 3;
#X connect 5 0 3 0;
#X connect 6 0 5 0;
#X connect 7 0 8 0;
#X connect 7 0 11 0;
#X connect 8 0 3 1;
#X connect 8 1 3 2;
#X connect 9 0 4 0;
#X connect 10 0 9 0;
#X connect 11 0 12 0;
#X connect 11 1 10 0;
#X connect 12 0 9 1;
#X connect 13 0 14 0;
#X restore 615 480 pd word;
#X obj 669 52 random 80;
#X obj 678 83 / 10;
#X obj 678 106 - 4;
#X obj 683 141 pack f f;
#X obj 652 15 t b b;
#X obj 736 50 random 80;
#X obj 745 81 / 10;
#X obj 745 104 - 4;
#X obj 543 91 demux . . . .;
#X connect 0 0 2 0;
#X connect 1 0 24 0;
#X connect 1 0 47 0;
#X connect 2 0 3 0;
#X connect 3 0 4 0;
#X connect 3 4 5 0;
#X connect 4 0 8 0;
#X connect 5 0 7 0;
#X connect 6 0 7 0;
#X connect 8 0 9 0;
#X connect 8 0 20 0;
#X connect 8 0 26 0;
#X connect 9 0 7 0;
#X connect 11 0 13 0;
#X connect 12 0 11 0;
#X connect 13 0 28 0;
#X connect 15 0 30 0;
#X connect 16 0 15 0;
#X connect 18 0 17 0;
#X connect 19 0 17 0;
#X connect 20 0 10 0;
#X connect 20 1 6 0;
#X connect 21 0 7 0;
#X connect 23 0 2 0;
#X connect 24 0 25 0;
#X connect 24 0 27 0;
#X connect 25 0 24 1;
#X connect 26 0 28 0;
#X connect 26 1 29 0;
#X connect 26 2 33 0;
#X connect 26 3 34 0;
#X connect 27 0 26 1;
#X connect 27 0 31 0;
#X connect 27 0 51 1;
#X connect 28 0 39 2;
#X connect 30 0 35 0;
#X connect 30 1 36 0;
#X connect 30 2 37 0;
#X connect 30 3 38 0;
#X connect 32 0 24 0;
#X connect 33 0 41 2;
#X connect 34 0 42 2;
#X connect 35 0 39 0;
#X connect 36 0 40 0;
#X connect 37 0 41 0;
#X connect 38 0 42 0;
#X connect 43 0 44 0;
#X connect 44 0 45 0;
#X connect 45 0 46 0;
#X connect 46 0 51 0;
#X connect 47 0 43 0;
#X connect 47 1 48 0;
#X connect 48 0 49 0;
#X connect 49 0 50 0;
#X connect 50 0 46 1;
#X connect 51 0 39 1;
#X connect 51 1 40 1;
#X connect 51 2 41 1;
#X connect 51 3 42 1;
