#N canvas 20 103 724 610 10;
#X obj 176 55 gemhead;
#X obj 175 96 part_head;
#X obj 159 388 part_killold;
#X obj 108 514 part_draw;
#X msg 41 476 draw line;
#X msg 37 499 draw point;
#X msg 247 69 speed \$1;
#X floatatom 301 43 5 0 0 0 - - -, f 5;
#X obj 170 260 part_velocity sphere;
#X obj 222 177 r conf;
#X symbolatom 223 217 10 0 0 0 - - -, f 10;
#X floatatom 244 359 5 0 0 0 - - -, f 5;
#X text 78 97 EMISSION SPEED;
#X text 20 261 CONFIG. & INIT. VELOCITY;
#X text 63 388 AGE in Frames;
#X msg 341 16 0.3;
#X text 10 155 QUANTITY & TYPE OF OBJECTS;
#X obj 156 467 part_orbitpoint;
#X floatatom 299 434 5 0 0 0 - - -, f 5;
#X floatatom 199 122 5 0 0 0 - - -, f 5;
#X obj 394 94 * 10.66;
#X obj 400 120 - 5.33;
#X obj 458 98 * -8;
#X obj 459 120 + 4;
#X obj 174 154 part_source 10 point;
#X floatatom 418 161 5 0 0 0 - - -, f 5;
#X floatatom 371 163 5 0 0 0 - - -, f 5;
#X obj 425 187 t b f;
#X obj 412 223 pack f f f;
#X floatatom 462 162 5 0 0 0 - - -, f 5;
#X obj 469 188 t b f;
#X obj 416 261 s pt;
#X obj 202 430 r pt;
#X msg 272 99 -1 -1 0;
#X text 257 465 the orbit point changes (in the GEM plane);
#X floatatom 496 60 5 0 0 0 - - -, f 5;
#X floatatom 540 62 5 0 0 0 - - -, f 5;
#X msg 381 296 0.05;
#X obj 213 545 text3d;
#X floatatom 272 517 5 0 0 0 - - -, f 5;
#X obj 220 505 print;
#X msg 286 546 text fuck;
#X obj 175 8 inlet;
#X obj 175 30 tgl 15 0 empty empty empty 17 7 0 10 -262144 -1 -1 0
1;
#X connect 0 0 1 0;
#X connect 1 0 24 0;
#X connect 2 0 17 0;
#X connect 4 0 3 0;
#X connect 5 0 3 0;
#X connect 6 0 1 0;
#X connect 7 0 6 0;
#X connect 8 0 2 0;
#X connect 9 0 10 0;
#X connect 10 0 8 1;
#X connect 11 0 2 1;
#X connect 15 0 7 0;
#X connect 17 0 3 0;
#X connect 17 0 38 0;
#X connect 18 0 17 2;
#X connect 19 0 24 1;
#X connect 20 0 21 0;
#X connect 21 0 26 0;
#X connect 22 0 23 0;
#X connect 23 0 25 0;
#X connect 24 0 8 0;
#X connect 25 0 27 0;
#X connect 26 0 28 0;
#X connect 27 0 28 0;
#X connect 27 1 28 1;
#X connect 28 0 31 0;
#X connect 29 0 30 0;
#X connect 30 0 28 2;
#X connect 30 1 28 2;
#X connect 32 0 17 1;
#X connect 33 0 24 3;
#X connect 35 0 20 0;
#X connect 36 0 22 0;
#X connect 37 0 8 2;
#X connect 41 0 38 0;
#X connect 42 0 43 0;
#X connect 43 0 0 0;
