#N canvas 32 122 620 460 10;
#X declare -lib Gem;
#X obj 28 48 gemhead;
#X obj 27 20 tgl 15 1 empty empty empty 0 -6 0 8 -24198 -1 -1 1 1;
#X obj 494 1 import Gem;
#X obj 99 78 hsv2rgb;
#X obj 57 115 color;
#X obj 427 103 adc~;
#X obj 422 146 fiddle~ 1024 1 20 3;
#X obj 448 182 unpack;
#X obj 491 241 / 30;
#X obj 485 209 - 20;
#X obj 491 278 s vol_size;
#X obj 178 92 r vol_size;
#X obj 437 206 - 50;
#X obj 443 241 / 20;
#X obj 407 276 s pitch_Hue;
#X obj 101 31 r pitch_Hue;
#X obj 378 201 bng 15 250 50 0 empty empty empty 17 7 0 10 -262144
-1 -1;
#X msg 497 101 amp-range 70 90;
#X obj 472 47 gemwin;
#X msg 424 2 create \, 1;
#X obj 54 393 sphere 2;
#X msg 102 56 \$1 1 1;
#X msg 474 24 destroy;
#X obj 127 163 pow 0.7;
#X obj -6 253 translateXYZ;
#X obj 149 201 hsl 40 15 -1 1 0 0 empty empty empty -2 -8 0 10 -262144
-1 -1 0 1;
#X obj 149 226 hsl 40 15 -1 1 0 0 empty empty empty -2 -8 0 10 -262144
-1 -1 1950 1;
#X obj 262 199 random 3;
#X obj 226 202 - 1;
#X obj 259 223 random 3;
#X obj 225 224 - 1;
#X connect 0 0 4 0;
#X connect 1 0 0 0;
#X connect 3 0 4 1;
#X connect 4 0 24 0;
#X connect 5 0 6 0;
#X connect 5 1 6 0;
#X connect 6 1 16 0;
#X connect 6 2 7 0;
#X connect 7 0 12 0;
#X connect 7 1 9 0;
#X connect 8 0 10 0;
#X connect 9 0 8 0;
#X connect 11 0 23 0;
#X connect 12 0 13 0;
#X connect 13 0 14 0;
#X connect 15 0 21 0;
#X connect 16 0 27 0;
#X connect 16 0 29 0;
#X connect 17 0 6 0;
#X connect 19 0 18 0;
#X connect 21 0 3 0;
#X connect 22 0 18 0;
#X connect 23 0 20 1;
#X connect 24 0 20 0;
#X connect 25 0 24 1;
#X connect 26 0 24 2;
#X connect 27 0 28 0;
#X connect 28 0 25 0;
#X connect 29 0 30 0;
#X connect 30 0 26 0;
