#N canvas 306 155 734 558 10;
#X floatatom 594 505 5 0 100 1 size - -, f 5;
#X msg 451 399 font \$1;
#X msg 459 460 alias \$1;
#X obj 459 442 tgl 15 0 empty empty empty 0 -6 0 8 -262144 -1 -1 0
1;
#X obj 214 438 translateXYZ;
#X floatatom 315 384 5 -10 10 0 - - -, f 5;
#X obj 168 521 text2d;
#X obj 546 26 cnv 15 170 270 empty empty empty 20 12 0 14 -228992 -66577
0;
#X obj 549 73 cnv 15 150 220 empty empty empty 20 12 0 14 -24198 -66577
0;
#X obj 561 16 gemhead;
#X floatatom 599 248 5 0 100 1 size - -, f 5;
#X msg 570 113 font \$1;
#X obj 570 94 openpanel;
#X obj 570 77 bng 15 250 50 0 empty empty empty 0 -6 0 8 -262144 -1
-1;
#X msg 578 139 text hello world!;
#X msg 582 158 1 2 3 4;
#X msg 577 205 justify left base;
#X floatatom 664 33 5 0 0 0 - - -, f 5;
#X floatatom 623 28 4 0 0 0 - - -, f 4;
#X obj 560 50 rotateXYZ;
#X obj 560 269 text3d;
#X msg 588 180 string 48 49 32 51 52;
#X obj 17 111 inlet;
#X obj 252 8 r word_in;
#X obj 376 57 t b b;
#X obj 315 330 line;
#X obj 371 36 delay 2;
#X obj 293 86 random 4;
#X symbolatom 18 156 20 0 0 2 write_here - -, f 20;
#X obj 599 366 bng 15 250 50 0 empty empty empty 17 7 0 10 -262144
-1 -1;
#X obj 625 378 repeat 5;
#X obj 630 399 print fodazzz;
#X obj 18 192 t s b b b b;
#X obj 17 228 symbol2list;
#X msg 168 297 set text;
#X msg 72 314 bang;
#X msg 67 388 text and you;
#X obj 17 252 drip 550;
#X msg 109 296 add2 \$1;
#X obj 8 314 s word_in;
#X obj 39 486 symbol;
#X msg 39 456 caz;
#X obj 39 514 makefilename %s;
#X text 36 435 shoot one word!;
#X obj 192 49 gemhead;
#X obj 187 25 tgl 15 0 empty empty empty 17 7 0 10 -262144 -1 -1 0
1;
#X obj 57 74 gemwin;
#X msg 57 20 create \, 1;
#X msg 67 49 0 \, destroy;
#X msg 368 117 5000;
#X msg 403 116 10000;
#X msg 447 115 15000;
#X msg 489 114 20000;
#X obj 288 195 f;
#X obj 317 193 f;
#X obj 347 190 f;
#X obj 376 188 f;
#X obj 440 305 bng 15 250 50 0 empty empty empty 17 7 0 10 -262144
-1 -1;
#X floatatom 440 362 5 0 0 0 - - -, f 5;
#X obj 436 335 random 2;
#X obj 290 117 sel 0 1 2 3;
#X obj 295 53 bng 15 250 50 0 empty empty empty 17 7 0 10 -262144 -1
-1;
#X floatatom 373 371 5 0 0 0 - - -, f 5;
#X obj 10 285 t b b;
#X obj 467 85 loadbang;
#X floatatom 367 155 5 0 0 0 - - -, f 5;
#X floatatom 407 155 5 0 0 0 - - -, f 5;
#X floatatom 450 155 5 0 0 0 - - -, f 5;
#X floatatom 490 155 5 0 0 0 - - -, f 5;
#X msg 499 220 5;
#X msg 292 234 -5 \$1;
#X obj 231 194 random 7;
#X obj 231 219 - 3;
#X obj 155 179 sin;
#X obj 149 126 spigot;
#X obj 154 154 f;
#X obj 182 155 + 1;
#X obj 201 129 tgl 15 0 empty empty empty 17 7 0 10 -262144 -1 -1 0
1;
#X obj 194 80 t b a;
#X obj 258 325 +;
#X obj 264 263 / 10;
#X obj 269 285 t b f;
#X obj 432 199 t b f;
#X obj 162 216 print;
#X connect 0 0 6 1;
#X connect 1 0 6 0;
#X connect 2 0 6 0;
#X connect 3 0 2 0;
#X connect 4 0 6 0;
#X connect 5 0 4 2;
#X connect 10 0 20 1;
#X connect 11 0 20 0;
#X connect 12 0 11 0;
#X connect 13 0 12 0;
#X connect 14 0 20 0;
#X connect 15 0 20 0;
#X connect 16 0 20 0;
#X connect 17 0 19 3;
#X connect 18 0 19 1;
#X connect 19 0 20 0;
#X connect 21 0 20 0;
#X connect 22 0 28 0;
#X connect 23 0 26 0;
#X connect 23 0 71 0;
#X connect 24 0 61 0;
#X connect 24 1 69 0;
#X connect 25 0 5 0;
#X connect 26 0 24 0;
#X connect 27 0 60 0;
#X connect 28 0 32 0;
#X connect 29 0 30 0;
#X connect 30 0 31 0;
#X connect 32 0 33 0;
#X connect 32 4 34 0;
#X connect 33 0 37 0;
#X connect 34 0 36 0;
#X connect 35 0 36 0;
#X connect 36 0 6 0;
#X connect 37 0 38 0;
#X connect 37 0 63 0;
#X connect 38 0 36 0;
#X connect 40 0 42 0;
#X connect 41 0 40 0;
#X connect 42 0 6 0;
#X connect 44 0 78 0;
#X connect 45 0 44 0;
#X connect 47 0 46 0;
#X connect 48 0 46 0;
#X connect 49 0 65 0;
#X connect 50 0 66 0;
#X connect 51 0 67 0;
#X connect 52 0 68 0;
#X connect 53 0 70 0;
#X connect 54 0 70 0;
#X connect 55 0 70 0;
#X connect 56 0 70 0;
#X connect 57 0 59 0;
#X connect 59 0 58 0;
#X connect 60 0 53 0;
#X connect 60 1 54 0;
#X connect 60 2 55 0;
#X connect 60 3 56 0;
#X connect 61 0 27 0;
#X connect 63 0 39 0;
#X connect 63 1 35 0;
#X connect 64 0 49 0;
#X connect 64 0 50 0;
#X connect 64 0 51 0;
#X connect 64 0 52 0;
#X connect 65 0 53 1;
#X connect 66 0 54 1;
#X connect 67 0 55 1;
#X connect 68 0 56 1;
#X connect 69 0 25 0;
#X connect 70 0 25 0;
#X connect 71 0 72 0;
#X connect 72 0 79 0;
#X connect 73 0 80 0;
#X connect 74 0 75 0;
#X connect 75 0 76 0;
#X connect 75 0 73 0;
#X connect 76 0 75 1;
#X connect 77 0 74 1;
#X connect 78 0 74 0;
#X connect 78 1 4 0;
#X connect 79 0 4 1;
#X connect 80 0 81 0;
#X connect 81 0 79 0;
#X connect 81 1 79 1;
