#N canvas 479 98 695 622 10;
#X obj 177 246 pix_image;
#X obj 124 49 gemwin;
#X msg 100 27 create \, 1;
#X msg 168 28 0 \, destroy;
#X msg 76 194 open images/IMG_20141022_005806.jpg;
#X obj 176 158 gemhead;
#X obj 109 549 pix_texture;
#X obj 282 573 rectangle 4 3;
#X msg 321 32 text Cor&Som;
#X msg 303 75 font RapScript_09.otf;
#X obj 146 514 alpha;
#X obj 440 15 gemhead;
#X floatatom 506 313 5 0 0 0 - - -, f 5;
#X floatatom 550 316 5 0 0 0 - - -, f 5;
#X obj 485 279 pix_info - - - - -;
#X obj 498 364 pack f f;
#X obj 501 340 f;
#X obj 543 340 f;
#X obj 480 311 bng 15 250 50 0 empty empty empty 17 7 0 10 -262144
-1 -1;
#X obj 451 46 spigot;
#X obj 504 46 tgl 15 0 empty empty empty 17 7 0 10 -262144 -1 -1 0
1;
#X obj 285 547 spigot;
#X obj 360 546 tgl 15 0 empty empty empty 17 7 0 10 -262144 -1 -1 1
1;
#X obj 150 322 demux - - -;
#X msg 194 297 0;
#X msg 221 299 1;
#X floatatom 447 134 5 0 0 0 - - -, f 5;
#X floatatom 394 365 5 0 0 0 - - -, f 5;
#X floatatom 437 365 5 0 0 0 - - -, f 5;
#X obj 392 405 pack f f;
#X obj 424 383 t b f;
#X obj 345 341 gemhead;
#X obj 413 155 text3d;
#X obj 184 428 pix_resize;
#X floatatom 255 335 5 0 0 0 - - -, f 5;
#X floatatom 299 334 5 0 0 0 - - -, f 5;
#X obj 264 373 pack f f;
#X obj 296 351 t b f;
#X msg 261 403 dimen \$1 \$2;
#X msg 532 57 0;
#X msg 561 58 180;
#N canvas 1 79 450 300 open 0;
#X restore 75 162 pd open;
#X msg 74 216 open images/15_stripesV_bombadas.jpeg;
#X msg 270 52 text COR&SOM;
#X msg 299 116 font No_Color.ttf;
#X obj 418 559 r show_full;
#X obj 515 17 r show_mask;
#X obj 350 379 r snap;
#X obj 279 493 pix_flip;
#X msg 326 465 vertical;
#N canvas 1 155 286 253 goMask 0;
#X msg 127 131 bang;
#X obj 81 135 bng 15 250 50 0 empty empty empty 17 7 0 10 -262144 -1
-1;
#X obj 174 130 bng 15 250 50 0 empty empty empty 17 7 0 10 -262144
-1 -1;
#X obj 140 60 t b b b;
#X obj 139 35 bng 15 250 50 0 empty empty empty 17 7 0 10 -262144 -1
-1;
#X msg 183 178 0;
#X msg 151 178 1;
#X msg 103 181 1;
#X msg 73 181 0;
#X obj 158 92 delay 200;
#X obj 87 91 delay 400;
#X obj 154 228 s show_full;
#X obj 74 229 s show_mask;
#X obj 117 154 s snap;
#X obj 153 8 inlet;
#X connect 0 0 13 0;
#X connect 1 0 8 0;
#X connect 1 0 7 0;
#X connect 2 0 6 0;
#X connect 2 0 5 0;
#X connect 3 0 10 0;
#X connect 3 1 9 0;
#X connect 3 2 2 0;
#X connect 4 0 3 0;
#X connect 5 0 11 0;
#X connect 6 0 12 0;
#X connect 7 0 11 0;
#X connect 8 0 12 0;
#X connect 9 0 0 0;
#X connect 10 0 1 0;
#X connect 14 0 4 0;
#X restore 38 103 pd goMask;
#X obj 36 69 bng 15 250 50 0 empty empty empty 17 7 0 10 -262144 -1
-1;
#X msg 398 480 horizontal;
#X obj 453 85 rotateXYZ 180 0 0;
#X text 358 191 the image is masked by a text \; it would be nice to
have the text on the image \; at the same spot it is by himself;
#X obj 151 475 pix_multiply;
#X obj 319 434 bng 15 250 50 0 empty empty snap -2 7 0 10 -262144 -1
-1;
#X obj 306 517 pix_texture;
#X floatatom 553 531 5 0 0 0 - - -, f 5;
#X floatatom 597 534 5 0 0 0 - - -, f 5;
#X obj 532 497 pix_info - - - - -;
#X obj 346 433 pix_snap 0 0 400 300;
#X obj 263 300 bng 15 250 50 0 empty empty empty 17 7 0 10 -262144
-1 -1;
#X connect 0 0 14 0;
#X connect 0 0 23 0;
#X connect 2 0 1 0;
#X connect 3 0 1 0;
#X connect 4 0 0 0;
#X connect 5 0 0 0;
#X connect 6 0 21 0;
#X connect 8 0 32 0;
#X connect 9 0 32 0;
#X connect 10 0 6 0;
#X connect 11 0 19 0;
#X connect 12 0 16 1;
#X connect 13 0 17 1;
#X connect 14 1 12 0;
#X connect 14 2 13 0;
#X connect 15 0 61 2;
#X connect 16 0 15 0;
#X connect 17 0 15 1;
#X connect 18 0 16 0;
#X connect 18 0 17 0;
#X connect 19 0 53 0;
#X connect 20 0 19 1;
#X connect 21 0 7 0;
#X connect 22 0 21 1;
#X connect 23 0 6 0;
#X connect 23 1 33 0;
#X connect 24 0 23 1;
#X connect 25 0 23 1;
#X connect 26 0 32 1;
#X connect 27 0 29 0;
#X connect 28 0 30 0;
#X connect 29 0 61 1;
#X connect 30 0 29 0;
#X connect 30 1 29 1;
#X connect 31 0 61 0;
#X connect 33 0 55 0;
#X connect 34 0 36 0;
#X connect 35 0 37 0;
#X connect 36 0 38 0;
#X connect 36 0 61 2;
#X connect 37 0 36 0;
#X connect 37 1 36 1;
#X connect 38 0 33 0;
#X connect 39 0 53 1;
#X connect 40 0 53 1;
#X connect 42 0 0 0;
#X connect 43 0 32 0;
#X connect 44 0 32 0;
#X connect 45 0 22 0;
#X connect 46 0 20 0;
#X connect 47 0 61 0;
#X connect 48 0 55 1;
#X connect 48 0 57 0;
#X connect 48 0 60 0;
#X connect 49 0 48 0;
#X connect 51 0 50 0;
#X connect 52 0 48 0;
#X connect 53 0 32 0;
#X connect 55 0 10 0;
#X connect 56 0 61 0;
#X connect 57 0 21 0;
#X connect 60 1 58 0;
#X connect 60 2 59 0;
#X connect 61 0 48 0;
#X connect 62 0 34 0;
