#N canvas 1 55 450 300 10;
#X obj 28 114 gemwin;
#X msg 46 74 destroy;
#X msg 38 52 create \, 1;
#X obj 253 116 pix_video;
#X obj 239 55 gemhead;
#X obj 374 69 tgl 15 0 empty empty empty 17 7 0 10 -262144 -1 -1 1
1;
#X msg 361 104 device \$1;
#X obj 249 173 pix_texture;
#X obj 263 218 rectangle 4 3;
#X connect 1 0 0 0;
#X connect 2 0 0 0;
#X connect 3 0 7 0;
#X connect 4 0 3 0;
#X connect 5 0 6 0;
#X connect 6 0 3 0;
#X connect 7 0 8 0;
