#N canvas 491 108 570 544 10;
#X obj 73 -16 gemwin;
#X msg 26 -44 create;
#X msg 75 -42 destroy;
#X obj 40 -18 tgl 15 0 empty empty empty 17 7 0 10 -262144 -1 -1 1
1;
#X obj 42 35 gemhead;
#X obj 40 79 pix_video;
#X obj 40 100 pix_rgba;
#X msg 29 11 dimen 800 600;
#X obj 34 349 rectangle 5.333 4;
#X obj 36 324 pix_texture;
#X obj 40 212 t a a;
#X obj 66 242 pix_separator;
#X obj 40 177 pix_flip;
#X msg 71 152 horizontal;
#X obj 66 270 s IMAGE;
#X obj 169 78 metro 100;
#X obj 171 56 tgl 15 0 empty empty empty 17 7 0 10 -262144 -1 -1 1
1;
#X obj 168 103 s clk;
#X obj 440 106 s THR;
#X obj 322 76 tgl 30 0 empty empty empty 17 7 0 10 -4034 -1 -1 1 1
;
#X obj 322 113 s STORE;
#X obj 443 -2 bng 15 250 50 0 empty empty empty 17 7 0 10 -262144 -1
-1;
#X obj 59 387 loadbang;
#X obj 62 412 s init;
#X obj 71 129 r init;
#X obj 168 138 r init;
#X obj 37 400 bng 15 250 50 0 empty empty empty 17 7 0 10 -262144 -1
-1;
#X obj 246 155 r X1;
#X obj 301 158 r Y1;
#X obj 405 157 r Y2;
#X obj 350 154 r X2;
#N canvas 278 103 490 608 samples 0;
#X obj 233 505 readsf~;
#X obj 227 539 dac~;
#X obj 276 541 bng 15 250 50 0 empty empty empty 17 7 0 10 -262144
-1 -1;
#X msg 304 540 1;
#X obj 340 539 s ABRE;
#X obj 56 25 sel 1;
#X obj 49 71 sel 1;
#X obj -4 24 r CHNG1;
#X obj -10 68 r CHNG2;
#X obj 47 125 sel 1;
#X obj 46 196 sel 1;
#X obj 46 255 sel 1;
#X obj 47 307 sel 1;
#X obj 44 360 sel 1;
#X obj 43 416 sel 1;
#X obj 42 471 sel 1;
#X obj -13 124 r CHNG3;
#X obj -13 193 r CHNG4;
#X obj -14 254 r CHNG5;
#X obj -12 304 r CHNG6;
#X obj -16 359 r CHNG7;
#X obj -16 413 r CHNG8;
#X obj -10 469 r CHNG9;
#X obj 105 24 t b b;
#X obj 107 1 spigot;
#X obj 98 73 t b b;
#X obj 100 50 spigot;
#X msg 138 72 0;
#X obj 98 131 t b b;
#X obj 100 108 spigot;
#X msg 140 130 0;
#X obj 95 202 t b b;
#X obj 97 179 spigot;
#X msg 149 199 0;
#X obj 97 261 t b b;
#X obj 99 238 spigot;
#X msg 150 261 0;
#X obj 96 315 t b b;
#X obj 98 292 spigot;
#X msg 143 315 0;
#X obj 92 367 t b b;
#X obj 94 344 spigot;
#X msg 140 367 0;
#X obj 95 468 t b b;
#X obj 97 445 spigot;
#X msg 137 473 0;
#X obj 90 420 t b b;
#X obj 92 397 spigot;
#X msg 132 417 0;
#X obj 137 -22 r ABRE;
#X obj 393 90 tgl 15 0 empty empty empty 17 7 0 10 -262144 -1 -1 1
1;
#X obj 397 63 r ABRE;
#X msg 142 26 0;
#X obj 168 26 s ABRE;
#X obj 167 69 s ABRE;
#X obj 171 130 s ABRE;
#X obj 182 198 s ABRE;
#X obj 182 257 s ABRE;
#X obj 176 317 s ABRE;
#X obj 172 367 s ABRE;
#X obj 167 418 s ABRE;
#X obj 170 475 s ABRE;
#X obj 232 -33 r init;
#X msg 234 -1 open fazer48.wav \, 1;
#X msg 231 63 open amor48.wav \, 1;
#X msg 230 129 open com_outra48.wav \, 1;
#X msg 228 188 open disp48.wav \, 1;
#X msg 229 242 open nao48.wav \, 1;
#X msg 229 299 open da48.wav \, 1;
#X msg 228 364 open pa_diz48.wav \, 1;
#X msg 223 417 open quanto48.wav \, 1;
#X msg 231 471 open bom48.wav \, 1;
#X connect 0 0 1 1;
#X connect 0 0 1 0;
#X connect 0 1 2 0;
#X connect 0 1 3 0;
#X connect 3 0 4 0;
#X connect 5 0 24 0;
#X connect 6 0 26 0;
#X connect 7 0 5 0;
#X connect 8 0 6 0;
#X connect 9 0 29 0;
#X connect 10 0 32 0;
#X connect 11 0 35 0;
#X connect 12 0 38 0;
#X connect 13 0 41 0;
#X connect 14 0 47 0;
#X connect 15 0 44 0;
#X connect 16 0 9 0;
#X connect 17 0 10 0;
#X connect 18 0 11 0;
#X connect 19 0 12 0;
#X connect 20 0 13 0;
#X connect 21 0 14 0;
#X connect 22 0 15 0;
#X connect 23 0 52 0;
#X connect 23 1 63 0;
#X connect 24 0 23 0;
#X connect 25 0 27 0;
#X connect 25 1 64 0;
#X connect 26 0 25 0;
#X connect 27 0 54 0;
#X connect 28 0 30 0;
#X connect 28 1 65 0;
#X connect 29 0 28 0;
#X connect 30 0 55 0;
#X connect 31 0 33 0;
#X connect 31 1 66 0;
#X connect 32 0 31 0;
#X connect 33 0 56 0;
#X connect 34 0 36 0;
#X connect 34 1 67 0;
#X connect 35 0 34 0;
#X connect 36 0 57 0;
#X connect 37 0 39 0;
#X connect 37 1 68 0;
#X connect 38 0 37 0;
#X connect 39 0 58 0;
#X connect 40 0 42 0;
#X connect 40 1 69 0;
#X connect 41 0 40 0;
#X connect 42 0 59 0;
#X connect 43 0 45 0;
#X connect 43 1 71 0;
#X connect 44 0 43 0;
#X connect 45 0 61 0;
#X connect 46 0 48 0;
#X connect 46 1 70 0;
#X connect 47 0 46 0;
#X connect 48 0 60 0;
#X connect 49 0 24 1;
#X connect 49 0 26 1;
#X connect 49 0 29 1;
#X connect 49 0 32 1;
#X connect 49 0 35 1;
#X connect 49 0 38 1;
#X connect 49 0 41 1;
#X connect 49 0 47 1;
#X connect 49 0 44 1;
#X connect 51 0 50 0;
#X connect 52 0 53 0;
#X connect 62 0 63 0;
#X connect 62 0 64 0;
#X connect 62 0 65 0;
#X connect 62 0 66 0;
#X connect 62 0 67 0;
#X connect 62 0 68 0;
#X connect 62 0 69 0;
#X connect 62 0 70 0;
#X connect 62 0 71 0;
#X connect 63 0 0 0;
#X connect 64 0 0 0;
#X connect 65 0 0 0;
#X connect 66 0 0 0;
#X connect 67 0 0 0;
#X connect 68 0 0 0;
#X connect 69 0 0 0;
#X connect 70 0 0 0;
#X connect 71 0 0 0;
#X restore 168 -39 pd samples;
#X obj 454 155 r X3;
#X obj 509 158 r Y3;
#X obj 249 381 hotspot_ball;
#X obj 250 255 r X4;
#X obj 305 258 r Y4;
#X obj 354 254 r X5;
#X obj 409 257 r Y5;
#X obj 458 255 r X6;
#X obj 513 258 r Y6;
#X obj 246 355 r X7;
#X obj 301 358 r Y7;
#X obj 350 354 r X8;
#X obj 405 357 r Y8;
#X obj 454 355 r X9;
#X obj 509 358 r Y9;
#X obj 257 222 s CHNG1;
#X obj 354 220 s CHNG2;
#X obj 458 221 s CHNG3;
#X obj 460 314 s CHNG6;
#X obj 357 310 s CHNG5;
#X obj 253 311 s CHNG4;
#X obj 249 411 s CHNG7;
#X obj 351 410 s CHNG8;
#X obj 458 410 s CHNG9;
#X obj 249 181 hotspot_ball;
#X obj 353 180 hotspot_ball;
#X obj 457 181 hotspot_ball;
#X obj 253 281 hotspot_ball;
#X obj 357 280 hotspot_ball;
#X obj 461 281 hotspot_ball;
#X obj 353 380 hotspot_ball;
#X obj 457 381 hotspot_ball;
#X obj 319 -44 bng 30 250 50 0 empty empty LIGA 3 15 0 10 -257985 -1
-1;
#X msg 330 49 1;
#X msg 366 50 0;
#X msg 167 8 \; pd dsp \$1;
#X obj 167 -15 tgl 15 0 empty empty empty 17 7 0 10 -262144 -1 -1 1
1;
#X obj 366 28 delay 100;
#X msg 169 167 \; X1 0.15 \; Y1 0.2 \; X2 0.15 \; Y2 0.45 \; X3 0.15
\; Y3 0.7 \; X4 0.3 \; Y4 0.85 \; X5 0.5 \; Y5 0.85 \; X6 0.7 \; Y6
0.85 \; X7 0.85 \; Y7 0.7 \; X8 0.85 \; Y8 0.45 \; X9 0.85 \; Y9 0.2
\; THR 0.4 \;;
#X obj 35 298 colourRGB 1 1 1 1;
#X obj 43 58 alpha;
#X floatatom 126 276 5 0 0 0 - - -, f 5;
#X obj 312 -6 t b b;
#X obj 367 -45 bng 30 250 50 0 empty empty DESLIGA -5 15 0 10 -258113
-1 -1;
#X obj 466 -3 vsl 15 100 0 1 0 0 empty empty empty 0 -9 0 10 -204800
-1 -1 2500 1;
#X floatatom 483 106 5 0 0 0 - - -, f 5;
#N canvas 515 193 450 300 INIT_game 0;
#X text 45 31 set a control to choose color of hotspot and ball;
#X text 45 63 or throw it randomly on the screen (game: discover the
sentence hidden in the screen. It could be a long word also \, divided
in sillables. When you discover the right sequence you make a certain
specific movement.;
#X restore 155 449 pd INIT_game;
#X connect 1 0 0 0;
#X connect 2 0 0 0;
#X connect 3 0 0 0;
#X connect 4 0 72 0;
#X connect 5 0 6 0;
#X connect 6 0 12 0;
#X connect 7 0 0 0;
#X connect 9 0 8 0;
#X connect 10 0 71 0;
#X connect 10 1 11 0;
#X connect 11 0 14 0;
#X connect 12 0 10 0;
#X connect 13 0 12 0;
#X connect 15 0 17 0;
#X connect 16 0 15 0;
#X connect 19 0 20 0;
#X connect 21 0 76 0;
#X connect 22 0 23 0;
#X connect 24 0 13 0;
#X connect 25 0 70 0;
#X connect 26 0 23 0;
#X connect 27 0 56 0;
#X connect 28 0 56 1;
#X connect 29 0 57 1;
#X connect 30 0 57 0;
#X connect 32 0 58 0;
#X connect 33 0 58 1;
#X connect 34 0 53 0;
#X connect 35 0 59 0;
#X connect 36 0 59 1;
#X connect 37 0 60 0;
#X connect 38 0 60 1;
#X connect 39 0 61 0;
#X connect 40 0 61 1;
#X connect 41 0 34 0;
#X connect 42 0 34 1;
#X connect 43 0 62 0;
#X connect 44 0 62 1;
#X connect 45 0 63 0;
#X connect 46 0 63 1;
#X connect 56 0 47 0;
#X connect 57 0 48 0;
#X connect 58 0 49 0;
#X connect 59 0 52 0;
#X connect 60 0 51 0;
#X connect 61 0 50 0;
#X connect 62 0 54 0;
#X connect 63 0 55 0;
#X connect 64 0 74 0;
#X connect 65 0 19 0;
#X connect 66 0 19 0;
#X connect 68 0 67 0;
#X connect 69 0 66 0;
#X connect 71 0 9 0;
#X connect 72 0 5 0;
#X connect 73 0 71 4;
#X connect 74 0 65 0;
#X connect 74 1 69 0;
#X connect 75 0 65 0;
#X connect 76 0 18 0;
#X connect 76 0 77 0;
